<svg width="24" height="24" viewBox="0 0 24 24" fill="none" xmlns="http://www.w3.org/2000/svg">
<path d="M21.4125 3.67499H9.7125C8.6625 3.67499 7.8 4.57499 7.8 5.66249V6.63749H6.525V5.88749C6.525 5.43749 6.15 5.06249 5.7 5.06249C5.25 5.06249 4.875 5.43749 4.875 5.88749V6.63749H3.6C3.075 6.63749 2.5875 6.97499 2.4 7.49999L0.7125 12.1125L0.5625 12.525L0.8625 12.9375V16.875C0.8625 17.625 1.4625 18.225 2.2125 18.225H2.4C2.775 19.4625 3.9 20.3625 5.25 20.3625C6.6 20.3625 7.725 19.4625 8.1 18.225H15.9375C16.3125 19.4625 17.4375 20.3625 18.7875 20.3625C20.1375 20.3625 21.2625 19.4625 21.6375 18.225H22.275C22.875 18.225 23.4 17.7 23.4 17.1V5.66249C23.325 4.57499 22.5 3.67499 21.4125 3.67499ZM3.9 8.32499H7.8V11.5875H2.7L3.9 8.32499ZM5.25 18.6375C4.5375 18.6375 3.975 18.0375 3.975 17.325C3.975 16.6125 4.5375 16.0125 5.25 16.0125C5.9625 16.0125 6.525 16.6125 6.525 17.325C6.525 18.0375 5.9625 18.6375 5.25 18.6375ZM5.25 14.3625C4.05 14.3625 3 15.1125 2.55 16.1625V13.3125H7.8V15.8625C7.275 14.925 6.3375 14.3625 5.25 14.3625ZM18.7875 18.6375C18.075 18.6375 17.5125 18.0375 17.5125 17.325C17.5125 16.6125 18.075 16.0125 18.7875 16.0125C19.5 16.0125 20.0625 16.6125 20.0625 17.325C20.0625 18.0375 19.4625 18.6375 18.7875 18.6375ZM18.7875 14.3625C17.4375 14.3625 16.275 15.3 15.9375 16.5375H9.4875V5.66249C9.4875 5.47499 9.6 5.36249 9.7125 5.36249H21.45C21.5625 5.36249 21.675 5.51249 21.675 5.69999V16.5375H21.6375C21.2625 15.2625 20.1375 14.3625 18.7875 14.3625Z" fill="#00CCCC"/>
</svg>
