<svg width="39" height="40" viewBox="0 0 39 40" fill="none" xmlns="http://www.w3.org/2000/svg">
<path d="M27.625 3.33325H11.375C6.88769 3.33325 3.25 7.06421 3.25 11.6666V28.3333C3.25 32.9356 6.88769 36.6666 11.375 36.6666H27.625C32.1123 36.6666 35.75 32.9356 35.75 28.3333V11.6666C35.75 7.06421 32.1123 3.33325 27.625 3.33325Z" stroke="#137A7A" stroke-width="3" stroke-linecap="round" stroke-linejoin="round"/>
<path d="M26 18.95C26.2006 20.3371 25.9696 21.7537 25.3399 22.9984C24.7102 24.243 23.7139 25.2524 22.4927 25.8828C21.2714 26.5132 19.8875 26.7327 18.5377 26.5099C17.1878 26.2871 15.9409 25.6335 14.9741 24.6419C14.0074 23.6504 13.3701 22.3715 13.1529 20.987C12.9357 19.6026 13.1496 18.1832 13.7643 16.9306C14.379 15.6781 15.3631 14.6562 16.5766 14.0104C17.7902 13.3646 19.1714 13.1277 20.5238 13.3333C21.9033 13.5432 23.1804 14.2025 24.1665 15.2139C25.1526 16.2253 25.7955 17.5351 26 18.95Z" stroke="#137A7A" stroke-width="3" stroke-linecap="round" stroke-linejoin="round"/>
<path d="M28.4375 10.8333H28.4551" stroke="#137A7A" stroke-width="3" stroke-linecap="round" stroke-linejoin="round"/>
</svg>
