<svg width="39" height="40" viewBox="0 0 39 40" fill="none" xmlns="http://www.w3.org/2000/svg">
<path d="M26 13.3333C28.5859 13.3333 31.0658 14.3868 32.8943 16.2622C34.7228 18.1375 35.75 20.6811 35.75 23.3333V34.9999H29.25V23.3333C29.25 22.4492 28.9076 21.6014 28.2981 20.9762C27.6886 20.3511 26.862 19.9999 26 19.9999C25.138 19.9999 24.3114 20.3511 23.7019 20.9762C23.0924 21.6014 22.75 22.4492 22.75 23.3333V34.9999H16.25V23.3333C16.25 20.6811 17.2772 18.1375 19.1057 16.2622C20.9342 14.3868 23.4141 13.3333 26 13.3333Z" stroke="#137A7A" stroke-width="3" stroke-linecap="round" stroke-linejoin="round"/>
<path d="M9.75 15H3.25V35H9.75V15Z" stroke="#137A7A" stroke-width="3" stroke-linecap="round" stroke-linejoin="round"/>
<path d="M6.5 9.99992C8.29493 9.99992 9.75 8.50753 9.75 6.66659C9.75 4.82564 8.29493 3.33325 6.5 3.33325C4.70507 3.33325 3.25 4.82564 3.25 6.66659C3.25 8.50753 4.70507 9.99992 6.5 9.99992Z" stroke="#137A7A" stroke-width="3" stroke-linecap="round" stroke-linejoin="round"/>
</svg>
