<svg width="88" height="37" viewBox="0 0 88 37" fill="none" xmlns="http://www.w3.org/2000/svg">
<g clip-path="url(#clip0_2_288)">
<path d="M70.612 -1.9056e-06C71.1715 0.197071 71.7692 0.178535 72.3458 0.283901C76.4264 1.03024 79.8952 2.86634 82.7532 5.77853C85.2515 8.32292 86.901 11.321 87.5982 14.7746C88.6901 20.1844 87.562 25.1454 84.1686 29.5649C81.2915 33.3112 77.451 35.7054 72.7296 36.6068C66.8217 37.7346 61.4654 36.4283 56.7962 32.7239C53.4027 30.0322 51.2078 26.5678 50.3067 22.3941C49.0962 16.7932 50.3097 11.6829 53.895 7.15317C56.6445 3.67902 60.277 1.46732 64.672 0.453657C65.4174 0.281949 66.1708 0.144388 66.9383 0.0965835C67.0347 0.0907298 67.1432 0.110242 67.1984 -0.00195312C68.3356 -1.9056e-06 69.4738 -1.9056e-06 70.612 -1.9056e-06Z" fill="#29166F"/>
<path d="M0 18.9083C0.617808 18.9083 1.23662 18.922 1.85443 18.9024C2.13772 18.8937 2.2221 18.9766 2.21507 19.2527C2.19498 20.0146 2.20703 20.7776 2.20301 21.5395C2.201 21.919 2.28941 22.2771 2.48831 22.602C2.73342 23.0029 3.07096 23.2498 3.5863 23.2224C4.08256 23.1961 4.3779 22.9093 4.57881 22.52C4.74256 22.202 4.82493 21.8537 4.82292 21.4898C4.82091 20.7434 4.83799 19.9971 4.82192 19.2507C4.81589 18.9659 4.87817 18.841 5.20365 18.8605C5.73607 18.8937 6.27251 18.881 6.80694 18.8946C6.94457 18.8976 7.13041 18.8488 7.12238 19.0888C7.08621 20.1385 7.21781 21.1981 6.9516 22.2342C6.601 23.6029 5.75717 24.5122 4.32365 24.8654C4.28347 24.8751 4.25333 24.922 4.21817 24.9522C3.75005 24.9522 3.28091 24.9522 2.81279 24.9522C1.37626 24.8576 0.0592694 23.5298 0 22.0283C0 20.9883 0 19.9483 0 18.9083Z" fill="#29166F"/>
<path d="M36.3513 24.9541C35.7093 24.4878 35.5777 24.2215 35.7304 23.76C35.8791 23.3132 36.1986 23.0946 36.6667 23.1141C37.1188 23.1337 37.4161 23.4 37.5226 23.8117C37.6311 24.2341 37.4493 24.5668 37.0735 24.8068C37.0002 24.8537 36.8596 24.8127 36.8535 24.9541C36.6858 24.9541 36.518 24.9541 36.3513 24.9541Z" fill="#2A1870"/>
<path d="M39.0625 24.9541C38.6969 24.6663 38.2709 24.4068 38.4096 23.8449C38.5211 23.3932 38.8958 23.1034 39.3388 23.1083C39.7537 23.1132 40.1666 23.4205 40.2439 23.8156C40.3303 24.2634 40.1545 24.6068 39.7416 24.8312C39.6783 24.8654 39.5638 24.8322 39.5648 24.9532C39.3971 24.9541 39.2293 24.9541 39.0625 24.9541Z" fill="#2A1870"/>
<path d="M42.4761 24.9542C41.8321 24.5785 41.6131 24.1639 41.8311 23.6839C41.9989 23.3151 42.2983 23.0966 42.7282 23.1122C43.132 23.1268 43.4224 23.3415 43.564 23.6985C43.7157 24.081 43.6112 24.4312 43.2908 24.7005C43.1692 24.8029 43.0165 24.8703 42.8779 24.9532C42.7443 24.9542 42.6107 24.9542 42.4761 24.9542Z" fill="#2A176F"/>
<path d="M14.5602 24.9541C14.1342 24.7356 13.7656 24.4683 13.8248 23.9307C13.8751 23.4751 14.1684 23.1951 14.6174 23.12C15.0594 23.0459 15.3889 23.2644 15.5909 23.64C15.7797 23.9912 15.6562 24.4741 15.3256 24.7268C15.2131 24.8127 15.0835 24.878 14.962 24.9532C14.8284 24.9541 14.6948 24.9541 14.5602 24.9541Z" fill="#2A176F"/>
<path d="M17.2715 24.9541C16.5964 24.5844 16.3574 24.0937 16.6396 23.6068C16.8305 23.2771 17.1299 23.078 17.5367 23.1141C17.9355 23.1493 18.2329 23.3727 18.3464 23.7327C18.4579 24.0839 18.4037 24.442 18.0742 24.6956C17.9486 24.7922 17.8069 24.8683 17.6733 24.9541C17.5397 24.9541 17.4061 24.9541 17.2715 24.9541Z" fill="#2A176F"/>
<path d="M17.3659 17.7259C17.3659 18.2946 17.37 18.8634 17.3649 19.4312C17.3559 20.6205 16.6788 21.2976 15.4482 21.3327C14.9299 21.3473 14.4095 21.3561 13.8932 21.32C13.4732 21.2907 13.2703 21.3805 13.3437 21.8351C13.4009 22.1932 13.2854 22.5405 13.1799 22.8829C12.8705 23.881 12.1412 24.4029 11.1185 24.5493C9.7905 24.7405 9.78849 24.7259 9.78849 23.4195C9.78849 23.2732 9.80557 23.1249 9.78448 22.9815C9.74128 22.6907 9.85881 22.599 10.1572 22.561C10.776 22.481 11.0141 22.2205 11.0573 21.5941C11.0904 21.1259 11.0693 20.6537 11.0663 20.1824C11.0593 18.72 11.0563 17.2585 11.0332 15.7961C11.0291 15.561 11.0794 15.4829 11.3265 15.4898C11.878 15.5044 12.4315 15.5141 12.982 15.4868C13.3276 15.4702 13.4411 15.5629 13.4321 15.9122C13.4069 16.8702 13.422 17.8293 13.424 18.7873C13.424 18.9659 13.421 19.1463 13.4481 19.322C13.5024 19.6663 13.7093 19.8722 14.078 19.9024C14.4497 19.9327 14.6737 19.761 14.7802 19.4205C14.8495 19.2 14.8626 18.9756 14.8626 18.7463C14.8656 17.7717 14.8816 16.7971 14.8756 15.8224C14.8736 15.5717 14.9459 15.48 15.2142 15.4888C15.8159 15.5083 16.4186 15.5151 17.0204 15.4956C17.3328 15.4849 17.372 15.6205 17.3659 15.8732C17.3519 16.4898 17.3609 17.1073 17.3609 17.7249C17.3639 17.7259 17.3649 17.7259 17.3659 17.7259Z" fill="#29166F"/>
<path d="M7.73514 18.0429C7.73514 17.0693 7.74619 16.0956 7.7281 15.122C7.72208 14.8195 7.78436 14.6927 8.13194 14.7083C8.76582 14.7376 9.40171 14.7249 10.0366 14.7122C10.2707 14.7073 10.353 14.7678 10.352 15.0078C10.343 17.0195 10.345 19.0322 10.349 21.0439C10.349 21.2371 10.3129 21.3415 10.0768 21.3366C9.39167 21.3239 8.70655 21.318 8.02144 21.3385C7.69596 21.3483 7.73313 21.161 7.73313 20.9629C7.73614 19.9902 7.73514 19.0166 7.73514 18.0429Z" fill="#29166F"/>
<path d="M18.0761 17.9795C18.0761 17.0224 18.0912 16.0644 18.0681 15.1073C18.0601 14.7805 18.1666 14.6976 18.488 14.7102C19.1048 14.7346 19.7246 14.7268 20.3424 14.7132C20.5866 14.7073 20.695 14.7502 20.693 15.0254C20.681 17.0215 20.682 19.0176 20.692 21.0127C20.693 21.2702 20.6137 21.3463 20.3515 21.3395C19.7166 21.3229 19.0807 21.3151 18.4468 21.3415C18.1153 21.3561 18.0661 21.2273 18.0701 20.9483C18.0852 19.959 18.0761 18.9688 18.0761 17.9795Z" fill="#29166F"/>
<path d="M3.79824 16.6654C4.31961 16.6741 4.7355 17.1024 4.7134 17.6078C4.69331 18.0858 4.24627 18.4956 3.76207 18.4819C3.2849 18.4683 2.82883 18.0215 2.82984 17.5697C2.83084 17.0722 3.27586 16.6566 3.79824 16.6654Z" fill="#2A1870"/>
<path d="M69.9891 1.27903C70.9877 1.44586 71.9993 1.52196 72.9918 1.75025C79.8811 3.33757 85.1621 8.76879 86.3786 15.5571C86.4921 16.1922 86.5725 16.8342 86.6679 17.4732C86.7664 18.1444 86.7654 18.8156 86.6689 19.4878C86.4891 20.5883 86.4138 21.7063 86.0833 22.7824C83.9687 29.6742 79.3105 33.8985 72.0565 35.3981C71.4729 35.519 70.8772 35.5854 70.2865 35.6761C69.3593 35.7785 68.432 35.7883 67.5048 35.6702C66.4601 35.4898 65.3983 35.399 64.3746 35.1005C57.643 33.1385 53.2731 28.882 51.6699 22.24C49.3855 12.7795 55.7203 3.79025 65.0145 1.7122C65.9427 1.5044 66.89 1.43513 67.8263 1.28586C68.5466 1.17171 69.2679 1.19025 69.9891 1.27903Z" fill="#FEFEFE"/>
<path d="M67.5048 35.6693C68.432 35.6712 69.3593 35.6732 70.2865 35.6751C70.3397 35.7571 70.3005 35.7883 70.2172 35.7883C69.3803 35.7883 68.5445 35.7873 67.7077 35.7854C67.6183 35.7863 67.546 35.7512 67.5048 35.6693Z" fill="#010061"/>
<path d="M69.9891 1.27902C69.2678 1.28098 68.5466 1.28293 67.8263 1.28585C67.7761 1.20878 67.8052 1.17171 67.8916 1.17171C68.6018 1.17073 69.311 1.17073 70.0213 1.17268C70.0454 1.17268 70.0695 1.19317 70.0936 1.20488C70.0584 1.22927 70.0243 1.25366 69.9891 1.27902Z" fill="#010063"/>
<path d="M86.669 19.4868C86.669 18.8156 86.668 18.1434 86.668 17.4722C86.6961 17.4693 86.7252 17.4663 86.7534 17.4634C86.7614 18.1629 86.7704 18.8624 86.7765 19.561C86.7765 19.5688 86.7564 19.5766 86.7453 19.5854C86.7202 19.5532 86.6941 19.52 86.669 19.4868Z" fill="#000063"/>
<path d="M41.9758 15.4888C41.6081 15.4712 41.4845 15.5571 41.4986 15.9366C41.5348 16.9268 41.5267 17.919 41.5267 18.9102C41.5267 19.5581 41.2937 19.9093 40.8959 19.9005C40.5051 19.8917 40.271 19.522 40.269 18.8956C40.266 17.8712 40.261 16.8478 40.273 15.8234C40.276 15.5766 40.2188 15.481 39.9435 15.4898C39.3247 15.5093 38.7039 15.5181 38.0861 15.4868C37.7465 15.4702 37.7094 15.6078 37.7104 15.88C37.7144 16.9034 37.7013 17.9278 37.6883 18.9512C37.6802 19.5346 37.3799 19.8868 36.9077 19.8878C36.4195 19.8888 36.1423 19.5571 36.1413 18.9571C36.1392 17.9171 36.1332 16.8771 36.1483 15.8371C36.1523 15.5688 36.092 15.4781 35.7907 15.4839C34.4857 15.5073 33.1798 15.4898 31.8749 15.5093C30.6262 15.5278 30.0566 16.1083 30.0476 17.3239C30.0455 17.6488 30.0486 17.9746 30.0295 18.2985C30.0074 18.6937 29.8798 19.0605 29.6417 19.3844C29.3936 19.721 29.051 19.8761 28.6381 19.7649C28.2213 19.6527 28.176 19.319 28.1811 18.9493C28.1941 17.9093 28.1791 16.8693 28.1901 15.8293C28.1921 15.5863 28.1349 15.4849 27.8576 15.4898C26.619 15.5132 25.3793 15.4849 24.1427 15.5346C22.668 15.5941 22.0532 16.2459 22.0231 17.6859C22.01 18.32 22.01 18.9532 22.004 19.5873C21.9899 21.1395 22.6931 21.3824 23.773 21.3483C25.1744 21.3034 25.1724 21.3376 25.1051 19.9815C25.096 19.8 25.095 19.679 24.8459 19.6839C24.4139 19.6927 24.2773 19.4185 24.2803 19.0449C24.2844 18.5415 24.2874 18.0371 24.2934 17.5337C24.3024 16.8937 24.6661 16.5502 25.3231 16.5581C25.9429 16.5649 26.2171 16.8585 26.2232 17.5229C26.2332 18.6771 26.2473 19.8312 26.2443 20.9844C26.2433 21.2546 26.3276 21.3532 26.617 21.3434C27.1685 21.3239 27.722 21.3268 28.2735 21.3473C28.9204 21.3717 29.3926 21.0907 29.7763 20.6185C29.8657 20.5083 29.8999 20.3463 30.0707 20.3083C30.4202 21.0341 30.8452 21.3112 31.6679 21.3278C32.2867 21.3405 32.9066 21.3317 33.5254 21.3366C34.1221 21.3415 34.6515 21.1824 35.0423 20.7259C35.1728 20.5727 35.2301 20.5902 35.3728 20.7132C36.297 21.5112 36.9208 21.5493 37.9063 20.8488C38.1584 20.6702 38.3081 20.6351 38.5683 20.8605C39.1198 21.3385 39.7637 21.4459 40.478 21.1805C40.8527 21.041 41.1691 20.8107 41.5549 20.6088C41.5649 20.7181 41.59 20.7961 41.576 20.8673C41.4896 21.3132 41.7055 21.4156 42.1265 21.4029C42.7111 21.3844 43.2968 21.4254 43.8824 21.441C43.8824 19.4585 43.8824 17.4751 43.8824 15.4927C43.2465 15.4956 42.6097 15.519 41.9758 15.4888ZM33.7624 19.1629C33.7644 19.6088 33.5384 19.8527 33.0793 19.8888C32.4786 19.9356 32.0979 19.7493 32.0637 19.2849C32.0135 18.5941 32.0165 17.8946 32.0667 17.2039C32.0989 16.7639 32.5369 16.5181 33.0261 16.5688C33.5083 16.6185 33.7534 16.882 33.7614 17.3688C33.7665 17.6595 33.7624 17.9512 33.7624 18.242C33.7624 18.5483 33.7614 18.8556 33.7624 19.1629Z" fill="#29166F"/>
<path d="M61.4031 22.1073C60.7903 19.961 60.4668 17.8273 61.3298 15.6976C62.3032 13.2946 64.3043 12.0156 66.7172 11.2693C69.8143 10.3122 72.5618 11.1483 74.7789 13.2673C76.3269 14.7473 76.9909 16.7512 76.8975 18.9161C76.8553 19.8956 76.6002 20.8302 76.2415 21.7454C76.126 22.039 76.0145 22.0537 75.7443 21.9229C73.6116 20.8898 71.4678 19.8771 69.3371 18.84C69.0217 18.6868 68.7756 18.6946 68.4642 18.8419C66.2602 19.8829 64.0481 20.9063 61.8381 21.9337C61.7035 21.9961 61.5628 22.0439 61.4031 22.1073Z" fill="#E67919"/>
<path d="M66.0553 22.3571C65.7388 22.9278 65.4606 23.4293 65.1813 23.9317C65.2044 23.9502 65.2275 23.9688 65.2506 23.9873C66.004 23.4946 66.7575 23.0029 67.5722 22.4702C67.6535 23.1473 67.5541 23.7756 67.6184 24.4351C68.0624 23.7259 68.5064 23.0166 69.0057 22.2176C69.3392 23.1434 69.6436 23.9902 69.9912 24.9522C70.1941 24.0459 70.3729 23.2488 70.5798 22.321C71.2268 23.0478 71.8114 23.7054 72.3971 24.3629C72.4704 24.3024 72.5438 24.242 72.6171 24.1805C72.38 23.6127 72.1439 23.0449 71.8908 22.438C73.2269 22.5434 74.4966 22.5132 75.7252 23.122C78.1121 24.3044 80.5712 25.3493 83.147 26.518C82.724 26.5639 82.4448 26.6049 82.1635 26.6224C78.094 26.878 74.0245 27.1307 69.956 27.3834C68.9223 27.4478 67.8876 27.5063 66.8539 27.5805C66.6249 27.5971 66.4742 27.479 66.3104 27.3737C65.3079 26.7288 64.2993 26.0927 63.3138 25.4244C63.0416 25.24 62.8326 25.239 62.5423 25.361C60.2459 26.322 57.9394 27.2585 55.647 28.2263C55.3305 28.36 55.1929 28.3083 55.0171 28.0468C54.7348 27.6263 54.4134 27.2293 54.0979 26.8302C53.9583 26.6537 53.8839 26.5551 54.1733 26.4195C56.7429 25.2195 59.3056 24.0059 61.8652 22.7863C62.3414 22.56 62.8487 22.6332 63.3419 22.5824C64.2169 22.4966 65.0939 22.4361 66.0553 22.3571Z" fill="#71635D"/>
<path d="M74.4635 33.8371C73.7221 34.0712 72.9827 34.1727 72.2484 34.2868C69.4326 34.7259 66.6268 34.7532 63.8482 34.0381C60.6858 33.2244 58.083 31.5405 55.8499 29.1737C56.6515 28.8234 57.423 28.4868 58.1935 28.1503C59.5306 27.5649 60.8697 26.9824 62.2037 26.3902C62.4087 26.2995 62.5664 26.2468 62.7904 26.3893C66.6309 28.8351 70.4783 31.2703 74.3238 33.7083C74.364 33.7346 74.3941 33.7727 74.4635 33.8371Z" fill="#71635D"/>
<path d="M67.991 28.4546C72.8762 28.1922 77.7072 27.9337 82.6004 27.6712C82.3724 28.1551 82.069 28.5151 81.7787 28.878C80.2337 30.8098 78.3009 32.2702 76.0255 33.3102C75.8407 33.3951 75.6961 33.4576 75.4821 33.32C73.0199 31.7356 70.5486 30.1649 68.0814 28.5893C68.0583 28.5756 68.0483 28.5424 67.991 28.4546Z" fill="#71635D"/>
<path d="M77.5535 14.3424C77.3496 14.3756 77.3315 14.2332 77.2793 14.1434C76.8222 13.3629 76.2697 12.6537 75.5976 12.038C75.3997 11.8566 75.3756 11.7415 75.5665 11.5337C77.0241 9.94926 78.4747 8.35902 79.9133 6.75804C80.0921 6.55999 80.1805 6.60975 80.3382 6.75414C81.7215 8.02048 82.8727 9.45755 83.7718 11.0858C83.9024 11.3229 83.9365 11.4654 83.6291 11.6019C81.6471 12.4829 79.6732 13.3815 77.6972 14.2741C77.6379 14.3015 77.5786 14.3297 77.5535 14.3424Z" fill="#0092DC"/>
<path d="M55.7675 18.6263C54.7147 18.6263 53.6609 18.6049 52.6091 18.6371C52.1953 18.6498 52.1069 18.5141 52.13 18.1483C52.2505 16.2624 52.6091 14.4283 53.3334 12.6683C53.4249 12.4449 53.5092 12.4068 53.7473 12.5229C55.6781 13.4683 57.6159 14.4 59.5557 15.3268C59.8189 15.4527 59.9184 15.561 59.8069 15.88C59.5437 16.6312 59.3659 17.4098 59.3719 18.2107C59.3739 18.4722 59.2865 18.5376 59.0283 18.5346C57.9414 18.5219 56.8544 18.5298 55.7675 18.5298C55.7675 18.561 55.7675 18.5941 55.7675 18.6263Z" fill="#0092DC"/>
<path d="M85.6302 20.281C85.4574 22.0956 84.9542 23.8459 84.1676 25.5249C84.036 25.8068 83.9285 25.8761 83.6171 25.7268C81.7074 24.8059 79.7897 23.8995 77.8659 23.0068C77.5646 22.8673 77.5344 22.7444 77.6741 22.4624C78.0377 21.7307 78.2587 20.9503 78.3963 20.1493C78.4345 19.9249 78.4968 19.8234 78.77 19.8312C80.9439 19.8927 83.1188 19.9346 85.2937 19.9854C85.4725 19.9903 85.7468 19.9044 85.6302 20.281Z" fill="#0092DC"/>
<path d="M68.9192 2.42536C69.9841 2.39902 70.9947 2.50438 71.9982 2.68877C72.2182 2.72877 72.3418 2.73951 72.2514 3.03999C71.6366 5.06926 71.0449 7.10536 70.4653 9.14536C70.3839 9.43121 70.2503 9.50926 69.9781 9.46048C69.1613 9.31512 68.3446 9.39707 67.5319 9.49268C67.3049 9.51902 67.2376 9.45658 67.1994 9.26048C66.7876 7.14829 66.3767 5.03512 65.9467 2.92585C65.8995 2.69268 65.9558 2.6556 66.1687 2.62438C67.0939 2.4917 68.0222 2.39317 68.9192 2.42536Z" fill="#0092DC"/>
<path d="M82.071 18.5376C80.9851 18.5376 79.8992 18.5346 78.8142 18.5405C78.6103 18.5415 78.5269 18.4898 78.5109 18.2722C78.4496 17.4478 78.3371 16.6283 78.0417 15.8468C77.9553 15.6166 78.0618 15.5395 78.2527 15.4527C80.2317 14.5629 82.2087 13.6693 84.1806 12.7659C84.4308 12.6507 84.5413 12.6585 84.6437 12.9385C85.2746 14.6585 85.6684 16.4185 85.7036 18.2517C85.7106 18.6244 85.6051 18.7093 85.2284 18.6995C84.1766 18.6702 83.1238 18.6888 82.071 18.6888C82.071 18.6381 82.071 18.5873 82.071 18.5376Z" fill="#0092DC"/>
<path d="M62.2872 11.9746C62.2198 12.0517 62.1626 12.1288 62.0943 12.1961C61.5136 12.7629 61.0174 13.3951 60.6196 14.0937C60.492 14.318 60.3865 14.2917 60.1936 14.198C58.2418 13.2517 56.2889 12.3083 54.329 11.3785C54.0668 11.2537 54.0447 11.1473 54.1823 10.9112C55.1125 9.31804 56.2487 7.88682 57.6451 6.64975C57.863 6.45658 57.9705 6.41268 58.1725 6.67609C59.4784 8.38146 60.8024 10.0732 62.1214 11.7688C62.1706 11.8322 62.2219 11.8937 62.2872 11.9746Z" fill="#0092DC"/>
<path d="M58.9861 5.59219C60.5964 4.41756 62.3705 3.59609 64.2822 3.03512C64.5745 2.94926 64.6318 3.11805 64.6719 3.31707C65.0155 5.04487 65.355 6.77366 65.6956 8.50244C65.7639 8.8517 65.8191 9.2039 65.9035 9.54829C65.9618 9.78439 65.8945 9.8878 65.6524 9.96585C64.9381 10.198 64.2621 10.521 63.6543 10.9493C63.377 11.1444 63.2485 11.0888 63.0666 10.8517C62.0309 9.50048 60.9842 8.15805 59.9404 6.81268C59.629 6.41268 59.3156 6.01366 58.9861 5.59219Z" fill="#0092DC"/>
<path d="M74.3308 11.0107C74.1992 10.9327 74.1279 10.8917 74.0576 10.8488C73.4046 10.4546 72.7215 10.1151 71.9882 9.89074C71.6969 9.80098 71.6868 9.67513 71.7602 9.42927C72.3539 7.42732 72.9405 5.42342 73.5182 3.41659C73.6005 3.13171 73.712 3.0761 74.0134 3.17074C75.7403 3.71415 77.3325 4.50537 78.8062 5.53366C79.0101 5.6761 79.0754 5.75317 78.8825 5.96293C77.4018 7.57464 75.9321 9.19513 74.4614 10.8137C74.4042 10.8751 74.368 10.9532 74.3308 11.0107Z" fill="#0092DC"/>
<path d="M55.8539 19.7981C56.9057 19.7981 57.9585 19.8088 59.0103 19.7912C59.3187 19.7863 59.4422 19.8537 59.4814 20.1785C59.5648 20.8693 59.7577 21.5415 60.061 22.1766C60.1746 22.4156 60.1725 22.5629 59.8822 22.7005C57.9243 23.6332 55.9735 24.5824 54.0266 25.5366C53.8106 25.6429 53.7272 25.6107 53.6288 25.3971C52.8794 23.7766 52.4143 22.0859 52.2244 20.319C52.1872 19.9737 52.2907 19.8781 52.6463 19.8859C53.7152 19.9083 54.7851 19.8937 55.8539 19.8937C55.8539 19.8624 55.8539 19.8302 55.8539 19.7981Z" fill="#0092DC"/>
</g>
<defs>
<clipPath id="clip0_2_288">
<rect width="88" height="37" fill="white"/>
</clipPath>
</defs>
</svg>
