<svg width="39" height="40" viewBox="0 0 39 40" fill="none" xmlns="http://www.w3.org/2000/svg">
<path d="M37.375 4.99991C35.8189 6.12571 34.0959 6.98676 32.2725 7.54991C31.2938 6.39577 29.9932 5.57773 28.5464 5.20646C27.0997 4.83518 25.5767 4.92857 24.1834 5.474C22.7901 6.01943 21.5937 6.99058 20.7561 8.25611C19.9185 9.52163 19.48 11.0205 19.5 12.5499V14.2166C16.6443 14.2925 13.8146 13.6429 11.2629 12.3257C8.71121 11.0084 6.51677 9.06431 4.875 6.66658C4.875 6.66658 -1.625 21.6666 13 28.3332C9.65336 30.6632 5.66663 31.8315 1.625 31.6666C16.25 39.9999 34.125 31.6666 34.125 12.4999C34.1235 12.0357 34.08 11.5726 33.995 11.1166C35.6535 9.43907 36.8238 7.3211 37.375 4.99991Z" stroke="#137A7A" stroke-width="3" stroke-linecap="round" stroke-linejoin="round"/>
</svg>
