<svg width="92" height="92" viewBox="0 0 92 92" fill="none" xmlns="http://www.w3.org/2000/svg">
<g clip-path="url(#clip0_7_580)">
<path d="M65.7201 75.45C68.5643 75.45 70.8701 73.1443 70.8701 70.3C70.8701 67.4557 68.5643 65.15 65.7201 65.15C62.8758 65.15 60.5701 67.4557 60.5701 70.3C60.5701 73.1443 62.8758 75.45 65.7201 75.45Z" stroke="#333333" stroke-width="0.8244" stroke-miterlimit="10" stroke-linecap="round"/>
<path d="M65.72 79.99C71.0717 79.99 75.41 75.6516 75.41 70.3C75.41 64.9484 71.0717 60.61 65.72 60.61C60.3684 60.61 56.03 64.9484 56.03 70.3C56.03 75.6516 60.3684 79.99 65.72 79.99Z" stroke="#333333" stroke-width="0.8244" stroke-miterlimit="10" stroke-linecap="round"/>
<path d="M60.03 57.96L66.67 70.3L53.37 65.15" fill="white"/>
<path d="M60.03 57.96L66.67 70.3L53.37 65.15" stroke="#333333" stroke-width="0.8244" stroke-miterlimit="10" stroke-linecap="round"/>
<path d="M55.9601 65.32L63.5101 68.24L59.7401 61.23C59.2001 61.48 58.4001 61.92 57.6201 62.71C56.6601 63.68 56.1901 64.71 55.9601 65.32Z" fill="#00CCCC"/>
<path d="M65.3201 74.22C66.9714 74.22 68.3101 72.8813 68.3101 71.23C68.3101 69.5787 66.9714 68.24 65.3201 68.24C63.6687 68.24 62.3301 69.5787 62.3301 71.23C62.3301 72.8813 63.6687 74.22 65.3201 74.22Z" fill="#FFCC00"/>
<g opacity="0.9">
<path d="M-16.53 67.54C-14.42 68.12 -10.65 68.87 -6.38003 67.91C7.35997 64.79 8.57997 47.83 18.33 46.49C28.52 45.09 32.64 62.85 47.51 63.55C55.95 63.95 56.7 58.33 67.03 58.02C79.6 57.64 83.65 65.81 93.59 65.34C99.27 65.07 107.01 61.97 115.91 49.42" stroke="#00CCCC" stroke-width="0.2083" stroke-miterlimit="10"/>
<path d="M-19.74 64.51C-17.44 64.69 -13.7 65.08 -9.55999 63.93C4.47001 60.02 7.01001 44.4 16.66 42.85C22.99 41.83 27.13 46.61 31.99 51.24C35.93 55 40.3 58.96 46.87 59.57C48.4 59.71 49.73 59.64 50.94 59.45C56.48 58.55 58.57 54.51 67.01 54.39C79.73 54.22 83.68 63.41 93.7 63.12C99.38 62.95 107.2 59.76 116.43 46.26" stroke="#00CCCC" stroke-width="0.2083" stroke-miterlimit="10"/>
<path d="M-22.95 61.48C-20.45 61.26 -16.75 61.28 -12.74 59.96C1.59005 55.21 5.43005 40.95 14.9901 39.21C21.9001 37.96 26.37 42.2 31.18 46.57C35.2701 50.29 39.56 54.67 46.22 55.59C47.74 55.8 49.1001 55.79 50.3801 55.66C56.4101 55.03 58.5301 50.74 66.9801 50.75C79.8501 50.78 83.6901 61 93.7901 60.89C99.4701 60.82 107.37 57.53 116.93 43.1" stroke="#00CCCC" stroke-width="0.2083" stroke-miterlimit="10"/>
<path d="M-26.1699 58.45C-23.4799 57.83 -19.8099 57.47 -15.9299 55.98C-1.30992 50.36 3.84008 37.48 13.3101 35.57C20.8001 34.07 25.6101 37.79 30.3601 41.9C34.6101 45.58 38.8101 50.36 45.5601 51.61C47.0601 51.89 48.4501 51.95 49.8201 51.87C56.3401 51.52 58.4901 46.98 66.9501 47.11C79.9701 47.35 83.7101 58.59 93.8901 58.66C99.5701 58.69 107.54 55.31 117.44 39.94" stroke="#00CCCC" stroke-width="0.2083" stroke-miterlimit="10"/>
<path d="M-29.38 55.42C-26.5 54.4 -22.86 53.65 -19.11 52.01C-4.22001 45.49 2.26 33.99 11.64 31.94C19.71 30.18 24.87 33.38 29.55 37.24C33.96 40.87 38.07 46.07 44.91 47.63C46.39 47.97 47.82 48.1 49.26 48.09C56.26 48.03 58.45 43.22 66.92 43.48C80.09 43.92 83.72 56.19 93.98 56.44C99.65 56.57 107.71 53.09 117.94 36.78" stroke="#00CCCC" stroke-width="0.2083" stroke-miterlimit="10"/>
<path d="M-32.59 52.39C-29.52 50.97 -25.92 49.82 -22.29 48.04C-7.12997 40.57 0.680034 30.49 9.98003 28.3C18.63 26.26 24.14 28.96 28.75 32.57C33.33 36.15 37.35 41.75 44.27 43.65C45.74 44.05 47.2 44.25 48.71 44.3C56.2 44.53 58.43 39.45 66.9 39.84C80.22 40.49 83.75 53.78 94.08 54.21C99.75 54.43 107.89 50.87 118.45 33.62" stroke="#00CCCC" stroke-width="0.2083" stroke-miterlimit="10"/>
<path d="M-35.7999 49.36C-32.5399 47.55 -28.9799 45.99 -25.4599 44.06C-10.0699 35.63 -0.909926 26.98 8.31007 24.66C17.5301 22.34 23.4001 24.53 27.9401 27.9C32.6901 31.43 36.6201 37.43 43.6301 39.66C45.0801 40.12 46.5801 40.4 48.1601 40.5C56.1401 41.02 58.4001 35.67 66.8801 36.19C80.3501 37.04 83.7701 51.36 94.1901 51.98C99.8601 52.3 108.08 48.64 118.96 30.46" stroke="#00CCCC" stroke-width="0.2083" stroke-miterlimit="10"/>
<path d="M-39.01 46.33C-35.56 44.12 -32.04 42.14 -28.64 40.09C-13.03 30.66 -2.50001 23.47 6.63999 21.03C16.43 18.42 22.67 20.11 27.13 23.24C32.06 26.7 35.89 33.11 42.98 35.69C44.42 36.21 45.95 36.57 47.6 36.73C56.06 37.57 58.36 31.92 66.85 32.57C80.47 33.63 83.79 48.97 94.28 49.77C99.95 50.19 108.24 46.44 119.46 27.31" stroke="#00CCCC" stroke-width="0.2083" stroke-miterlimit="10"/>
<path d="M-42.22 43.3C-1.17997 13.85 17.3 12.59 26.32 18.57C32.44 22.63 36.6 31.62 47.05 32.94C56 34.07 58.33 28.16 66.83 28.94C80.6 30.2 83.81 46.57 94.39 47.55C100.06 48.07 108.43 44.22 119.98 24.16" stroke="#00CCCC" stroke-width="0.2083" stroke-miterlimit="10"/>
</g>
<path d="M17.7 56.5C24.2 54.35 31.24 55.93 35.75 60.57C40.95 65.91 40.46 72.92 40.37 74.02C44.7 73.95 49.03 73.88 53.35 73.81C52.89 72.47 52.16 69.75 52.92 66.57C53.08 65.91 53.6 63.98 55.2 61.86C58.01 58.13 61.05 57.92 69.83 52.59C69.83 52.59 74.53 49.73 74.16 48.06C74.04 47.53 73.75 47.24 73.75 47.24C73.31 46.79 72.51 46.62 72.51 46.62C72.51 46.62 71.89 46.62 70.66 46.62C67.71 46.62 64.75 46.62 61.8 46.62C60.15 47.79 58.5 48.96 56.85 50.12C54.58 50.12 52.32 50.12 50.05 50.12C49.24 49.1 47.72 47.52 45.34 46.56C39.72 44.31 34.4 47.65 33.77 48.05C33.66 48.11 31.98 49.04 30.4 48.16C30.24 48.07 29.43 47.6 29.03 46.61C28.55 45.42 28.89 43.98 29.85 42.9C30.54 42.33 31.22 41.77 31.91 41.2L30.47 39.4C29.33 39.75 20.86 42.47 18.31 50.32C17.56 52.66 17.53 54.83 17.7 56.5Z" fill="white" stroke="#333333" stroke-width="0.8244" stroke-miterlimit="10" stroke-linecap="round"/>
<path d="M42.7 55.49C43.37 55.47 43.8 55.49 44.59 55.49C46.86 55.48 47.99 55.39 49.51 55.3C51.44 55.18 52.41 55.12 52.64 55.05C53.65 54.75 55.32 53.92 56.85 51.14C55.16 51.14 53.47 51.14 51.78 51.14C50.32 51.14 48.85 51.14 47.39 51.14C46.98 50.63 46.31 49.91 45.33 49.31C44.66 48.93 43.21 48.24 41.26 48.25C38.84 48.26 37.13 49.33 36.51 49.77C36.79 50.58 37.89 51.84 39.07 53.61C39.86 54.82 41.24 55.53 42.7 55.49Z" fill="#00CCCC"/>
<path d="M18.14 52.51H19.98C20.26 52.51 20.49 52.28 20.49 52V50.3C20.49 50.02 20.26 49.79 19.98 49.79H18.83" fill="#FFCC00"/>
<path d="M71.8801 44.96L73.7301 39.89L80.2501 38.35L77.0401 33.15L81.4201 28.14L74.7501 26.8L73.6401 19.25L68.0501 25.87L61.6001 22.09L64.2501 31.66L57.4501 32.6L64.9501 41.95" fill="white"/>
<path d="M71.8801 44.96L73.7301 39.89L80.2501 38.35L77.0401 33.15L81.4201 28.14L74.7501 26.8L73.6401 19.25L68.0501 25.87L61.6001 22.09L64.2501 31.66L57.4501 32.6L64.9501 41.95" stroke="#333333" stroke-width="0.8244" stroke-miterlimit="10" stroke-linecap="round"/>
<path d="M2.76001 80.66C31.63 80.66 60.81 80.66 89.73 80.66H2.76001Z" fill="white"/>
<path d="M2.76001 80.66C31.63 80.66 60.81 80.66 89.73 80.66" stroke="#333333" stroke-width="0.8244" stroke-miterlimit="10" stroke-linecap="round"/>
<path d="M26.77 75.45C29.6143 75.45 31.92 73.1443 31.92 70.3C31.92 67.4557 29.6143 65.15 26.77 65.15C23.9257 65.15 21.62 67.4557 21.62 70.3C21.62 73.1443 23.9257 75.45 26.77 75.45Z" stroke="#333333" stroke-width="0.8244" stroke-miterlimit="10" stroke-linecap="round"/>
<path d="M26.7701 79.99C32.1217 79.99 36.4601 75.6516 36.4601 70.3C36.4601 64.9484 32.1217 60.61 26.7701 60.61C21.4184 60.61 17.0801 64.9484 17.0801 70.3C17.0801 75.6516 21.4184 79.99 26.7701 79.99Z" stroke="#333333" stroke-width="0.8244" stroke-miterlimit="10" stroke-linecap="round"/>
<path d="M32.95 44.96L29.66 47.56" stroke="#333333" stroke-width="0.8244" stroke-miterlimit="10" stroke-linecap="round"/>
<path d="M26.12 70.3L34.4 59.32" stroke="#333333" stroke-width="0.8244" stroke-miterlimit="10" stroke-linecap="round"/>
<path d="M33.78 48.05C35.06 49.96 36.33 51.88 37.61 53.79C38.82 55.61 40.88 56.67 43.06 56.61C46.45 56.51 49.84 56.42 53.24 56.32C54.12 56.3 54.52 56.01 55.01 55.82C59.17 54.19 61.08 49.45 61.92 46.61" stroke="#333333" stroke-width="0.8244" stroke-miterlimit="10" stroke-linecap="round"/>
<path d="M17.9301 53.02H20.7401C21.1701 53.02 21.5101 52.67 21.5101 52.25V49.65C21.5101 49.22 21.1601 48.88 20.7401 48.88H18.9801" stroke="#333333" stroke-width="0.8244" stroke-miterlimit="10" stroke-linecap="round"/>
<path d="M26.07 74.3C27.8926 74.3 29.37 72.8225 29.37 71C29.37 69.1775 27.8926 67.7 26.07 67.7C24.2475 67.7 22.77 69.1775 22.77 71C22.77 72.8225 24.2475 74.3 26.07 74.3Z" fill="#FFCC00"/>
</g>
<defs>
<clipPath id="clip0_7_580">
<rect width="92" height="92" fill="white"/>
</clipPath>
</defs>
</svg>
