<svg width="90" height="90" viewBox="0 0 90 90" fill="none" xmlns="http://www.w3.org/2000/svg">
<g clip-path="url(#clip0_5_5)">
<g opacity="0.9">
<path d="M-16.8685 71.7082C-14.8044 72.2756 -11.1164 73.0093 -6.93918 72.0701C6.5119 69.018 7.70539 52.4267 17.2434 51.1158C27.2119 49.7462 31.2423 67.1201 45.7891 67.8049C54.0456 68.1962 54.7793 62.6984 64.8847 62.3951C77.1815 62.0234 81.1434 70.0158 90.8673 69.556C96.4239 69.2919 103.996 66.2593 112.702 53.9821" stroke="#00CCCC" stroke-width="0.2083" stroke-miterlimit="10"/>
<path d="M-20.0087 68.744C-17.7587 68.9201 -14.1 69.3016 -10.05 68.1766C3.68481 64.3516 6.15981 49.0712 15.6098 47.5549C21.8022 46.5571 25.8522 51.2332 30.6065 55.7625C34.4609 59.4408 38.7359 63.3147 45.1631 63.9114C46.6598 64.0484 47.9609 63.9799 49.1446 63.794C54.5642 62.9136 56.6087 58.9614 64.8652 58.844C77.3087 58.6777 81.1729 67.668 90.975 67.3843C96.5315 67.218 104.182 64.0973 113.211 50.8908" stroke="#00CCCC" stroke-width="0.2083" stroke-miterlimit="10"/>
<path d="M-23.1489 65.7799C-20.7033 65.5647 -17.0837 65.5843 -13.1609 64.293C0.857598 59.6462 4.61412 45.6962 13.9663 43.994C20.7261 42.7712 25.0989 46.919 29.8043 51.194C33.8054 54.8332 38.0022 59.118 44.5174 60.018C46.0043 60.2234 47.3348 60.2136 48.587 60.0864C54.4859 59.4701 56.5598 55.2734 64.8261 55.2832C77.4163 55.3125 81.1728 65.3103 91.0533 65.2027C96.6098 65.1343 104.338 61.9158 113.69 47.7995" stroke="#00CCCC" stroke-width="0.2083" stroke-miterlimit="10"/>
<path d="M-26.2892 62.8158C-23.6577 62.2093 -20.0674 61.8571 -16.2718 60.3995C-1.96962 54.9016 3.06843 42.2919 12.3326 40.4332C19.6597 38.9658 24.3652 42.6049 29.0119 46.6256C33.1695 50.2256 37.2782 54.9016 43.8815 56.1245C45.3489 56.3984 46.7086 56.4571 48.0489 56.3788C54.4271 56.0364 56.5304 51.5951 64.8065 51.7223C77.5434 51.9571 81.2021 62.9527 91.1608 63.0212C96.7173 63.0506 104.514 59.744 114.199 44.7082" stroke="#00CCCC" stroke-width="0.2083" stroke-miterlimit="10"/>
<path d="M-29.4293 59.8516C-26.6119 58.8538 -23.0511 58.1201 -19.3826 56.5158C-4.81628 50.1375 1.52285 38.8875 10.6989 36.8821C18.5935 35.1603 23.6413 38.2908 28.2196 42.0669C32.5337 45.618 36.5544 50.7049 43.2457 52.231C44.6935 52.5636 46.0924 52.6908 47.5011 52.681C54.3489 52.6223 56.4913 47.9169 64.7772 48.1712C77.6609 48.6016 81.212 60.6049 91.2489 60.8495C96.7957 60.9766 104.68 57.5723 114.688 41.6169" stroke="#00CCCC" stroke-width="0.2083" stroke-miterlimit="10"/>
<path d="M-32.5696 56.8875C-29.5663 55.4984 -26.0446 54.3734 -22.4935 52.6321C-7.67284 45.3343 -0.032624 35.4734 9.0652 33.331C17.5272 31.3353 22.9174 33.9766 27.4272 37.5082C31.9076 41.0103 35.8402 46.4886 42.6098 48.3473C44.0478 48.7386 45.4761 48.9343 46.9533 48.9832C54.2804 49.2082 56.4619 44.2386 64.7478 44.6201C77.7782 45.256 81.2315 58.2571 91.337 58.6777C96.8837 58.8929 104.847 55.4103 115.177 38.5353" stroke="#00CCCC" stroke-width="0.2083" stroke-miterlimit="10"/>
<path d="M-35.7196 53.9234C-32.5305 52.1527 -29.0479 50.6266 -25.6044 48.7386C-10.549 40.4919 -1.58808 32.0299 7.43148 29.7603C16.451 27.4908 22.1934 29.6332 26.6347 32.9299C31.2815 36.3832 35.126 42.2527 41.9837 44.4343C43.4021 44.8843 44.8695 45.1582 46.4152 45.256C54.2217 45.7647 56.4326 40.531 64.7282 41.0397C77.9054 41.8712 81.2511 55.8799 91.4445 56.4864C96.9913 56.7995 105.033 53.219 115.676 35.4343" stroke="#00CCCC" stroke-width="0.2083" stroke-miterlimit="10"/>
<path d="M-38.8597 50.9593C-35.4847 48.7973 -32.0413 46.8603 -28.7152 44.8549C-13.4445 35.6201 -3.14344 28.5864 5.79787 26.1995C15.375 23.6462 21.4794 25.2995 25.8424 28.3614C30.6653 31.7462 34.412 38.0169 41.3479 40.5408C42.7566 41.0495 44.2533 41.4016 45.8674 41.5582C54.1435 42.3799 56.3935 36.8527 64.6989 37.4886C78.0229 38.5256 81.2707 53.5321 91.5326 54.3147C97.0794 54.7256 105.189 51.0571 116.165 32.343" stroke="#00CCCC" stroke-width="0.2083" stroke-miterlimit="10"/>
<path d="M-42 47.9951C-1.85218 19.1853 16.2359 17.9527 25.05 23.8027C31.037 27.7745 35.1065 36.569 45.3293 37.8603C54.0848 38.9658 56.3641 33.1843 64.6793 33.9473C78.15 35.1799 81.2902 51.194 91.6402 52.1527C97.1869 52.6614 105.375 48.8951 116.674 29.2712" stroke="#00CCCC" stroke-width="0.2083" stroke-miterlimit="10"/>
</g>
<path d="M51.8641 66.993C51.4337 63.5299 43.8032 60.9669 33.2869 60.1158C30.6359 57.8756 22.3304 51.4484 9.89673 50.7832C9.00651 50.7343 8.14564 50.7245 7.29456 50.7343V72.3147L30.7239 72.7451C30.9391 72.7549 31.1641 72.7549 31.3793 72.7647C31.4087 69.8006 33.5706 67.1495 36.6815 66.6799C39.675 66.2299 42.6 68.0495 43.5196 70.9256C43.7054 71.5125 43.8033 72.1093 43.8228 72.6864C43.9402 72.794 44.0087 72.8625 44.1261 72.9701C45.8576 72.9701 48.088 72.9799 49.8196 71.4636C51.1793 70.2799 52.0206 68.3234 51.8641 66.993Z" fill="white" stroke="#333333" stroke-width="0.8244" stroke-miterlimit="10" stroke-linecap="round"/>
<path d="M28.5424 60.1256C28.7185 60.243 28.6598 60.5169 28.4446 60.5462C25.275 61.0549 21.7729 61.4658 17.9968 61.6908C14.9446 61.8669 12.0685 61.8962 9.39786 61.818C9.27069 61.818 9.16308 61.7103 9.17286 61.5734C9.25112 58.9027 9.33916 56.2321 9.41743 53.5614C9.41743 53.4245 9.53482 53.3267 9.67177 53.3364C12.137 53.5517 15.2479 54.0506 18.6913 55.2049C22.9076 56.6234 26.2044 58.5212 28.5424 60.1256Z" fill="white" stroke="#333333" stroke-width="0.8244" stroke-miterlimit="10" stroke-linecap="round"/>
<path d="M49.037 64.0875C49.037 64.0875 46.6304 67.5506 51.4924 68.4897C51.6196 68.1082 51.7174 67.6093 51.6391 67.0419C51.3652 65.0658 49.2033 64.156 49.037 64.0875Z" stroke="#333333" stroke-width="0.8244" stroke-miterlimit="10"/>
<path d="M49.8294 65.5647C49.8294 65.5647 48.6457 67.2669 51.0326 67.7267C51.0913 67.5408 51.1403 67.2962 51.1011 67.0125C50.9739 66.044 49.9076 65.594 49.8294 65.5647Z" fill="#FFCC00"/>
<path d="M23.1424 59.8517C23.2598 59.9299 23.2207 60.1158 23.0837 60.1354C20.9609 60.4777 18.6229 60.7517 16.0989 60.8984C14.0544 61.0158 12.137 61.0353 10.3468 60.9864C10.2587 60.9864 10.1902 60.9082 10.2 60.8201C10.2587 59.0299 10.3076 57.2495 10.3663 55.4593C10.3663 55.3712 10.4446 55.3027 10.5326 55.3125C12.1859 55.4593 14.2598 55.7919 16.5685 56.5647C19.3859 57.5038 21.5772 58.7756 23.1424 59.8517Z" fill="#00CCCC"/>
<path d="M37.5912 79.0549C41.0274 79.0549 43.813 76.2693 43.813 72.8332C43.813 69.397 41.0274 66.6114 37.5912 66.6114C34.1551 66.6114 31.3695 69.397 31.3695 72.8332C31.3695 76.2693 34.1551 79.0549 37.5912 79.0549Z" stroke="#333333" stroke-width="0.8244" stroke-miterlimit="10" stroke-linecap="round"/>
<path d="M37.5912 74.9071C38.7366 74.9071 39.6652 73.9786 39.6652 72.8332C39.6652 71.6878 38.7366 70.7593 37.5912 70.7593C36.4459 70.7593 35.5173 71.6878 35.5173 72.8332C35.5173 73.9786 36.4459 74.9071 37.5912 74.9071Z" fill="white" stroke="#333333" stroke-width="0.8244" stroke-miterlimit="10" stroke-linecap="round"/>
<path d="M37.2294 74.0756C37.9317 74.0756 38.5011 73.5062 38.5011 72.8038C38.5011 72.1015 37.9317 71.5321 37.2294 71.5321C36.527 71.5321 35.9576 72.1015 35.9576 72.8038C35.9576 73.5062 36.527 74.0756 37.2294 74.0756Z" fill="#FFCC00"/>
<path d="M79.4707 52.9353C66.0294 52.5538 56.5892 59.343 54.2902 61.094C54.2413 62.9038 54.1924 64.7038 54.1435 66.5136L53.0087 66.7288C52.9207 67.1984 52.4805 69.644 53.8598 71.2582C54.3392 71.8256 54.975 72.2169 54.975 72.2169C56.0902 72.9114 57.4989 73.1462 57.4989 73.1462C57.4989 73.1462 57.7044 73.156 58.0957 73.1853C58.1348 70.1527 60.3946 67.4723 63.5739 67.081C66.5772 66.719 69.4533 68.6169 70.2946 71.5321C70.5392 72.3832 70.5881 73.2245 70.4902 74.0364C70.7055 74.056 70.9207 74.0658 71.1359 74.0853L79.4609 74.5451V52.9353H79.4707Z" fill="white" stroke="#333333" stroke-width="0.8244" stroke-miterlimit="10" stroke-linecap="round"/>
<path d="M58.8 60.9766C58.6239 61.0843 58.6631 61.3582 58.8685 61.4071C61.9989 62.1212 65.462 62.7473 69.2283 63.2071C72.2609 63.5788 75.1272 63.7843 77.7978 63.8821C77.925 63.8821 78.0326 63.7843 78.0424 63.6571C78.1304 60.9864 78.2087 58.3158 78.2968 55.6451C78.2968 55.5082 78.1891 55.4006 78.062 55.4006C75.587 55.4593 72.4468 55.7625 68.9348 56.6919C64.6305 57.8266 61.2261 59.5093 58.8 60.9766Z" stroke="#333333" stroke-width="0.8244" stroke-miterlimit="10" stroke-linecap="round"/>
<path d="M61.0109 60.7517C60.8837 60.8299 60.9131 61.0256 61.0598 61.0549C63.2902 61.5636 65.7554 62.0136 68.4359 62.3364C70.5978 62.6006 72.6424 62.7473 74.5402 62.8158C74.6283 62.8158 74.7065 62.7473 74.7163 62.6495C74.775 60.7516 74.8337 58.844 74.9022 56.9462C74.9022 56.8484 74.8239 56.7701 74.7359 56.7701C72.975 56.8093 70.7446 57.0343 68.2402 57.6897C65.1587 58.5114 62.7424 59.7147 61.0109 60.7517Z" fill="#00CCCC"/>
<path d="M64.3174 79.4853C67.7536 79.4853 70.5392 76.6998 70.5392 73.2636C70.5392 69.8274 67.7536 67.0419 64.3174 67.0419C60.8813 67.0419 58.0957 69.8274 58.0957 73.2636C58.0957 76.6998 60.8813 79.4853 64.3174 79.4853Z" stroke="#333333" stroke-width="0.8244" stroke-miterlimit="10" stroke-linecap="round"/>
<path d="M64.3174 75.3375C65.4628 75.3375 66.3914 74.409 66.3914 73.2636C66.3914 72.1182 65.4628 71.1897 64.3174 71.1897C63.172 71.1897 62.2435 72.1182 62.2435 73.2636C62.2435 74.409 63.172 75.3375 64.3174 75.3375Z" fill="white" stroke="#333333" stroke-width="0.8244" stroke-miterlimit="10" stroke-linecap="round"/>
<path d="M64.1804 74.6625C64.8504 74.6625 65.3935 74.1194 65.3935 73.4495C65.3935 72.7795 64.8504 72.2364 64.1804 72.2364C63.5105 72.2364 62.9674 72.7795 62.9674 73.4495C62.9674 74.1194 63.5105 74.6625 64.1804 74.6625Z" fill="#FFCC00"/>
<path d="M50.8761 60.9082L52.6859 55.9484L59.0641 54.4419L55.9239 49.3549L60.2087 44.4538L53.6837 43.143L52.588 35.7669L47.1195 42.2332L40.8098 38.5353L43.4119 47.8973L36.7598 48.8169L44.0967 57.9734" fill="white"/>
<path d="M50.8761 60.9082L52.6859 55.9484L59.0641 54.4419L55.9239 49.3549L60.2087 44.4538L53.6837 43.143L52.588 35.7669L47.1195 42.2332L40.8098 38.5353L43.4119 47.8973L36.7598 48.8169L44.0967 57.9734" stroke="#333333" stroke-width="0.8244" stroke-miterlimit="10" stroke-linecap="round"/>
<path d="M3.66516 79.906C28.963 79.906 61.3923 79.906 86.7293 79.906H3.66516Z" fill="white"/>
<path d="M3.66516 79.906C28.963 79.906 61.3923 79.906 86.7293 79.906" stroke="#333333" stroke-width="0.8244" stroke-miterlimit="10" stroke-linecap="round"/>
</g>
<defs>
<clipPath id="clip0_5_5">
<rect width="90" height="90" fill="white"/>
</clipPath>
</defs>
</svg>
