<svg width="92" height="92" viewBox="0 0 92 92" fill="none" xmlns="http://www.w3.org/2000/svg">
<g clip-path="url(#clip0_6_153)">
<g opacity="0.9">
<path d="M-21.5399 68.51C-19.1799 69.16 -14.9699 70.01 -10.2099 68.92C5.27008 65.39 6.86008 46.03 17.4101 44.81C28.9301 43.48 33.7901 65.69 49.5601 66.24C58.8701 66.57 60.1001 58.58 71.8201 57.79C85.2301 56.88 89.9701 66.62 101.5 66.03C107.64 65.72 116.34 62.42 126.44 48.1" stroke="#00CCCC" stroke-width="0.2061" stroke-miterlimit="10"/>
<path d="M-23.71 65.08C-21.18 65.21 -17.07 65.58 -12.54 64.23C3.09004 59.57 6.10004 41.91 16.38 40.26C22.43 39.29 26.63 43.36 30.96 48.07C36.06 53.62 40.93 60.57 49.11 61.37C50.28 61.48 51.35 61.46 52.36 61.32C58.3 60.51 60.72 55.51 67.89 54.03C69.14 53.77 70.49 53.63 71.97 53.61C85.09 53.43 89.86 64.22 101.29 63.89C107.52 63.73 116.41 60.11 127.08 44.04" stroke="#00CCCC" stroke-width="0.2061" stroke-miterlimit="10"/>
<path d="M-25.87 61.65C-23.16 61.25 -19.16 61.14 -14.86 59.54C0.900006 53.69 5.34 37.73 15.36 35.71C21.99 34.37 26.43 37.84 30.73 42.14C36.14 47.55 40.59 55.2 48.67 56.51C49.82 56.69 50.9 56.74 51.96 56.65C58.2 56.18 60.6 50.86 67.96 49.64C69.28 49.42 70.65 49.36 72.12 49.42C84.94 49.95 89.74 61.78 101.08 61.74C107.41 61.72 116.48 57.79 127.72 39.98" stroke="#00CCCC" stroke-width="0.2061" stroke-miterlimit="10"/>
<path d="M-28.0399 58.22C-25.1599 57.29 -21.2599 56.67 -17.1899 54.85C-1.28992 47.74 4.58008 33.49 14.3401 31.15C21.5501 29.42 26.2601 32.3 30.5001 36.2C36.2301 41.46 40.2401 49.82 48.2301 51.63C49.3601 51.88 50.4601 51.99 51.5601 51.97C58.1101 51.84 60.4801 46.2 68.0301 45.25C69.4101 45.08 70.8201 45.09 72.2801 45.23C84.8001 46.46 89.6401 59.37 100.88 59.59C107.31 59.72 116.56 55.47 128.38 35.91" stroke="#00CCCC" stroke-width="0.2061" stroke-miterlimit="10"/>
<path d="M-30.2 54.79C-27.15 53.33 -23.36 52.19 -19.52 50.16C-3.49995 41.73 3.80005 29.23 13.32 26.6C21.1 24.45 26.0901 26.76 30.2701 30.26C36.35 35.35 39.9001 44.43 47.7901 46.76C48.9001 47.08 50.01 47.26 51.17 47.3C58.03 47.51 60.37 41.56 68.11 40.87C69.56 40.74 70.99 40.82 72.44 41.05C84.67 42.97 89.5401 56.97 100.68 57.44C107.21 57.72 116.64 53.15 129.03 31.85" stroke="#00CCCC" stroke-width="0.2061" stroke-miterlimit="10"/>
<path d="M-32.36 51.36C-29.13 49.37 -25.47 47.69 -21.84 45.47C-5.74998 35.65 3.02001 24.93 12.3 22.04C20.64 19.45 25.94 21.2 30.04 24.32C36.48 29.22 39.56 39.05 47.35 41.88C48.44 42.27 49.57 42.52 50.77 42.61C57.93 43.16 60.24 36.9 68.17 36.47C69.68 36.39 71.14 36.54 72.58 36.85C84.51 39.45 89.42 54.56 100.46 55.28C107.09 55.71 116.7 50.83 129.67 27.77" stroke="#00CCCC" stroke-width="0.2061" stroke-miterlimit="10"/>
<path d="M-34.5299 47.93C-31.1299 45.41 -27.5899 43.18 -24.1699 40.78C-8.06991 29.51 2.23009 20.61 11.2701 17.49C20.1601 14.43 25.7801 15.62 29.8001 18.39C36.6101 23.07 39.2101 33.68 46.9101 37.02C47.9801 37.48 49.1301 37.8 50.3701 37.95C57.8401 38.83 60.1201 32.29 68.2401 32.1C69.8201 32.07 71.3101 32.28 72.7401 32.68C84.3801 35.95 89.3101 52.2 100.26 53.15C106.99 53.76 116.77 48.53 130.32 23.72" stroke="#00CCCC" stroke-width="0.2061" stroke-miterlimit="10"/>
<path d="M-36.6899 44.5C3.67006 10.11 21.2201 7.33 29.5701 12.45C37.7801 17.49 39.3501 31.59 49.9701 33.26C57.7501 34.48 60.0001 27.63 68.3101 27.7C83.1101 27.82 87.8401 49.63 100.05 50.99C106.88 51.75 116.84 46.2 130.96 19.65" stroke="#00CCCC" stroke-width="0.2061" stroke-miterlimit="10"/>
</g>
<path d="M53.4701 69.54C51.6001 67.06 45.6401 59.81 34.9201 56.76C22.2101 53.15 11.8101 58.01 9.37005 59.23C9.03005 60.81 8.68005 62.39 8.34005 63.97H7.31005C7.15005 64.36 6.36005 66.44 7.31005 68.09C7.64005 68.67 8.13005 69.12 8.13005 69.12C8.99005 69.91 10.1901 70.36 10.1901 70.36C10.1901 70.36 10.3701 70.41 10.7101 70.5C11.2401 67.84 13.6801 65.86 16.5401 66.05C19.2401 66.23 21.4501 68.38 21.7101 71.08C21.7801 71.86 21.6901 72.62 21.4701 73.31C21.6601 73.36 21.8401 73.41 22.0301 73.46L48.7301 80.05C48.9201 80.1 49.1101 80.15 49.3001 80.2C49.9101 77.62 52.3201 75.74 55.1301 75.95C57.8301 76.15 60.0201 78.31 60.2501 81.01C60.3001 81.56 60.2601 82.1 60.1601 82.61C60.2401 82.73 60.2901 82.8 60.3701 82.92C61.8801 83.27 63.8201 83.72 65.6301 82.74C67.0601 81.97 68.1901 80.43 68.3101 79.24C68.6301 76.12 62.4701 72.37 53.4701 69.54Z" fill="white" stroke="#333333" stroke-width="0.8244" stroke-miterlimit="10" stroke-linecap="round"/>
<path d="M49.33 68.62C49.46 68.76 49.35 68.98 49.16 68.97C46.29 68.79 43.16 68.45 39.82 67.89C37.12 67.44 34.61 66.89 32.3 66.3C32.19 66.27 32.12 66.16 32.15 66.04C32.75 63.73 33.35 61.42 33.96 59.1C33.99 58.98 34.11 58.92 34.23 58.95C36.34 59.63 38.95 60.68 41.73 62.37C45.12 64.44 47.62 66.75 49.33 68.62Z" fill="white" stroke="#333333" stroke-width="0.8244" stroke-miterlimit="10" stroke-linecap="round"/>
<path d="M66.42 76.14C66.42 76.14 63.63 78.69 67.69 80.47C67.87 80.17 68.06 79.75 68.1 79.24C68.26 77.45 66.55 76.23 66.42 76.14Z" stroke="#333333" stroke-width="0.8244" stroke-miterlimit="10"/>
<path d="M66.8201 77.58C66.8201 77.58 65.4501 78.83 67.4401 79.71C67.5301 79.56 67.6201 79.35 67.6401 79.1C67.7201 78.22 66.8901 77.62 66.8201 77.58Z" fill="#FFCC00"/>
<path d="M79.3401 58.72V21.55C79.3401 20.97 78.9901 20.45 78.4601 20.23L52.2401 9.4C51.5001 9.09 50.6601 9.46 50.3701 10.2C50.3701 10.21 50.3601 10.22 50.3601 10.23C50.0801 10.95 50.4301 11.76 51.1401 12.05C59.1501 15.39 67.1501 18.73 75.1601 22.07C75.6901 22.29 76.0301 22.81 76.0301 23.38V58.79C76.0301 59.15 75.8901 59.49 75.6501 59.76C75.1501 60.3 74.6401 60.85 74.1401 61.39C73.9001 61.65 73.7601 62 73.7601 62.36V85.52C73.7601 86.31 74.4001 86.94 75.1801 86.94H80.5801C81.3701 86.94 82.0001 86.3 82.0001 85.52V62.46C82.0001 62.06 81.8301 61.67 81.5301 61.4C80.9301 60.86 80.3901 60.32 79.7901 59.78C79.5101 59.51 79.3401 59.12 79.3401 58.72Z" fill="white" stroke="#333333" stroke-width="0.8244" stroke-miterlimit="10" stroke-linecap="round"/>
<path d="M50.6901 11.94C50.5801 12.2 50.4601 12.46 50.3501 12.72C49.1501 15.49 50.8301 18.66 53.7901 19.22L61.0001 20.59C62.9701 20.96 64.9601 20.05 65.9601 18.31C60.8701 16.19 55.7801 14.06 50.6901 11.94Z" stroke="#333333" stroke-width="0.8244" stroke-miterlimit="10" stroke-linecap="round"/>
<path d="M51.69 13.24C51.62 13.41 51.54 13.58 51.47 13.75C50.68 15.57 51.78 17.65 53.73 18.02L58.47 18.92C59.76 19.17 61.07 18.57 61.73 17.42C58.37 16.03 55.03 14.64 51.69 13.24Z" fill="#FFCC00"/>
<path d="M13.36 59.88C13.18 59.95 13.18 60.19 13.35 60.27C15.99 61.41 18.92 62.54 22.15 63.57C24.76 64.4 27.24 65.06 29.57 65.58C29.68 65.61 29.79 65.53 29.82 65.42C30.34 63.09 30.86 60.75 31.38 58.42C31.41 58.3 31.33 58.19 31.21 58.17C29.02 57.81 26.22 57.56 22.98 57.79C19.01 58.08 15.74 59 13.36 59.88Z" stroke="#333333" stroke-width="0.8244" stroke-miterlimit="10" stroke-linecap="round"/>
<path d="M44.68 67.3C44.77 67.39 44.69 67.54 44.57 67.53C42.65 67.41 40.56 67.18 38.33 66.81C36.53 66.51 34.85 66.14 33.3 65.75C33.22 65.73 33.18 65.65 33.2 65.58C33.6 64.03 34.01 62.49 34.41 60.94C34.43 60.86 34.51 60.82 34.59 60.84C36 61.29 37.75 62 39.6 63.13C41.87 64.51 43.53 66.05 44.68 67.3Z" fill="#00CCCC"/>
<path d="M15.3301 60.05C15.2001 60.1 15.2001 60.27 15.3201 60.33C17.2001 61.14 19.2901 61.95 21.5901 62.68C23.4501 63.27 25.2201 63.74 26.8701 64.11C26.9501 64.13 27.0301 64.08 27.0501 64C27.4201 62.34 27.7901 60.68 28.1601 59.02C28.1801 58.94 28.1201 58.85 28.0401 58.84C26.4801 58.58 24.4901 58.41 22.1801 58.57C19.3601 58.77 17.0301 59.43 15.3301 60.05Z" fill="#00CCCC"/>
<path d="M54.71 87.05C57.7807 87.05 60.27 84.5607 60.27 81.49C60.27 78.4193 57.7807 75.93 54.71 75.93C51.6393 75.93 49.15 78.4193 49.15 81.49C49.15 84.5607 51.6393 87.05 54.71 87.05Z" stroke="#333333" stroke-width="0.8244" stroke-miterlimit="10" stroke-linecap="round"/>
<path d="M16.1701 77.16C19.2408 77.16 21.7301 74.6707 21.7301 71.6C21.7301 68.5293 19.2408 66.04 16.1701 66.04C13.0994 66.04 10.6101 68.5293 10.6101 71.6C10.6101 74.6707 13.0994 77.16 16.1701 77.16Z" stroke="#333333" stroke-width="0.8244" stroke-miterlimit="10" stroke-linecap="round"/>
<path d="M54.7101 83.34C55.7318 83.34 56.5601 82.5117 56.5601 81.49C56.5601 80.4683 55.7318 79.64 54.7101 79.64C53.6884 79.64 52.8601 80.4683 52.8601 81.49C52.8601 82.5117 53.6884 83.34 54.7101 83.34Z" fill="white" stroke="#333333" stroke-width="0.8244" stroke-miterlimit="10" stroke-linecap="round"/>
<path d="M16.1701 73.45C17.1918 73.45 18.0201 72.6217 18.0201 71.6C18.0201 70.5783 17.1918 69.75 16.1701 69.75C15.1483 69.75 14.3201 70.5783 14.3201 71.6C14.3201 72.6217 15.1483 73.45 16.1701 73.45Z" fill="white" stroke="#333333" stroke-width="0.8244" stroke-miterlimit="10" stroke-linecap="round"/>
<path d="M54.4 82.52C55.0241 82.52 55.53 82.0141 55.53 81.39C55.53 80.7659 55.0241 80.26 54.4 80.26C53.7759 80.26 53.27 80.7659 53.27 81.39C53.27 82.0141 53.7759 82.52 54.4 82.52Z" fill="#FFCC00"/>
<path d="M16.0101 72.82C16.6065 72.82 17.0901 72.3365 17.0901 71.74C17.0901 71.1435 16.6065 70.66 16.0101 70.66C15.4136 70.66 14.9301 71.1435 14.9301 71.74C14.9301 72.3365 15.4136 72.82 16.0101 72.82Z" fill="#FFCC00"/>
<path d="M62.66 67.8L64.28 63.36L69.99 62.02L67.18 57.47L71.01 53.09L65.17 51.91L64.2 45.31L59.3 51.1L53.66 47.79L55.98 56.17L50.04 56.99L56.6 65.17" fill="white"/>
<path d="M62.66 67.8L64.28 63.36L69.99 62.02L67.18 57.47L71.01 53.09L65.17 51.91L64.2 45.31L59.3 51.1L53.66 47.79L55.98 56.17L50.04 56.99L56.6 65.17" stroke="#333333" stroke-width="0.8244" stroke-miterlimit="10" stroke-linecap="round"/>
<path d="M2.77002 87.11C31.64 87.11 60.82 87.11 89.74 87.11Z" fill="white"/>
<path d="M2.77002 87.11C31.64 87.11 60.82 87.11 89.74 87.11" stroke="#333333" stroke-width="0.8244" stroke-miterlimit="10" stroke-linecap="round"/>
</g>
<defs>
<clipPath id="clip0_6_153">
<rect width="92" height="92" fill="white"/>
</clipPath>
</defs>
</svg>
