<svg width="95" height="92" viewBox="0 0 95 92" fill="none" xmlns="http://www.w3.org/2000/svg">
<g clip-path="url(#clip0_7_375)">
<g opacity="0.9">
<path d="M-30.7615 76.82C-23.0789 80.97 -11.9164 85.35 -1.67289 81.66C12.9282 76.41 17.5853 57.68 22.6657 58.99C28.3347 60.45 23.1304 83.91 31.1744 87.22C39.3423 90.59 52.601 69.7 63.526 73.82C68.5755 75.73 68.3896 81.2 74.1619 82.48C81.4624 84.1 85.8097 76.24 90.7559 78.15C95.0619 79.82 94.6488 86.89 97.8499 100C99.7809 107.91 102.084 114.16 103.694 118.14" stroke="#00CCCC" stroke-width="0.2159" stroke-miterlimit="10"/>
<path d="M-29.7701 75.22C-22.0772 78.33 -11.1935 81.96 -1.32177 78.06C8.21953 74.3 13.6304 65.76 17.6472 60.65C19.8777 57.82 21.6538 55.98 23.4608 56.57C27.6326 57.94 26.3521 70.34 28.7271 78.05C29.6152 80.93 30.9059 83.17 33.1364 83.94C39.4456 86.13 48.2744 75.21 57.0206 71.67C59.9842 70.46 62.8549 70.08 65.5603 71.21C70.4445 73.25 70.4136 78.63 75.907 80.15C80.7603 81.49 84.3021 78.63 87.7511 77.22C89.2587 76.6 90.725 76.28 92.2635 76.8C96.5902 78.26 96.7451 84.51 100.194 95.99C102.301 103.01 104.645 108.46 106.441 111.69" stroke="#00CCCC" stroke-width="0.2159" stroke-miterlimit="10"/>
<path d="M-28.7892 73.62C-21.0859 75.7 -10.4914 78.55 -0.970706 74.46C8.72549 70.3 14.2706 62.2 18.3804 57.59C20.6521 55.04 22.4489 53.46 24.2456 54.17C28.4793 55.84 27.5293 67.96 30.3793 75.25C31.4326 77.95 32.8266 80.03 35.0777 80.67C41.6038 82.54 50.319 71.7 59.1375 68.63C62.1114 67.58 64.9407 67.38 67.5842 68.6C72.3135 70.78 72.4375 76.07 77.6418 77.82C82.2989 79.38 85.7478 77.09 89.238 75.84C90.7353 75.31 92.2119 75 93.7711 75.45C98.1184 76.7 98.8413 82.11 102.528 91.99C104.81 98.12 107.195 102.77 109.188 105.25" stroke="#00CCCC" stroke-width="0.2159" stroke-miterlimit="10"/>
<path d="M-27.7979 72.02C-20.0946 73.06 -9.78916 75.12 -0.619593 70.87C9.23149 66.3 14.9108 58.63 19.1136 54.52C21.4266 52.25 23.244 50.93 25.0407 51.76C29.3364 53.74 28.7065 65.56 32.0418 72.45C33.2706 74.98 34.7473 76.88 37.0293 77.41C43.7826 78.95 52.3739 68.22 61.2543 65.61C64.2489 64.73 67.0266 64.7 69.6081 66.01C74.1723 68.32 74.4511 73.53 79.3766 75.51C83.8271 77.3 87.1831 75.56 90.7146 74.48C92.2016 74.03 93.6782 73.73 95.2581 74.11C99.6261 75.15 100.917 79.69 104.851 88C107.319 93.22 109.746 97.09 111.924 98.82" stroke="#00CCCC" stroke-width="0.2159" stroke-miterlimit="10"/>
<path d="M-26.8066 70.43C-19.0931 70.43 -9.08708 71.68 -0.268597 67.28C9.73738 62.28 15.5406 55.07 19.8466 51.45C22.2113 49.47 24.039 48.4 25.8254 49.34C30.1727 51.64 29.8629 63.15 33.7042 69.64C35.0983 71.99 36.6781 73.73 38.9809 74.13C45.9613 75.34 54.439 64.7 63.3814 62.57C66.3863 61.85 69.1227 62 71.6423 63.39C76.0412 65.82 76.4852 70.97 81.1216 73.17C85.376 75.19 88.6184 74 92.2118 73.09C93.6885 72.72 95.1754 72.44 96.776 72.75C101.154 73.59 103.013 77.21 107.205 83.99C109.859 88.28 112.317 91.39 114.692 92.37" stroke="#00CCCC" stroke-width="0.2159" stroke-miterlimit="10"/>
<path d="M-25.8153 68.83C-18.1017 67.79 -8.38487 68.22 0.092846 63.68C10.2434 58.24 16.1809 51.5 20.5901 48.38C22.9961 46.68 24.8445 45.87 26.6206 46.93C31.0195 49.55 31.0298 60.75 35.3668 66.83C36.926 69.01 38.6092 70.57 40.9325 70.85C48.1401 71.71 56.4836 61.18 65.4983 59.53C68.5135 58.98 71.1983 59.29 73.6662 60.78C77.9102 63.34 78.4988 68.43 82.8668 70.84C86.9249 73.09 90.064 72.44 93.7092 71.71C95.1755 71.41 96.6727 71.16 98.2836 71.4C102.683 72.04 105.068 74.69 109.539 79.99C112.358 83.32 114.867 85.7 117.428 85.93" stroke="#00CCCC" stroke-width="0.2159" stroke-miterlimit="10"/>
<path d="M-24.8344 67.23C-17.1104 65.16 -7.70337 64.74 0.433585 60.08C10.7287 54.19 16.8004 47.93 21.3129 45.31C23.7499 43.89 25.6292 43.35 27.4053 44.52C31.8662 47.46 32.1657 58.36 37.0189 64.03C38.733 66.03 40.5298 67.42 42.8738 67.58C50.3189 68.09 58.5282 57.67 67.6151 56.5C70.6407 56.11 73.2841 56.6 75.6901 58.17C79.7689 60.85 80.5227 65.89 84.6015 68.52C88.4635 71.01 91.489 70.9 95.1858 70.34C96.6417 70.12 98.139 69.89 99.7809 70.05C104.19 70.48 107.03 72.12 111.873 75.99C114.805 78.34 117.428 80.01 120.175 79.49" stroke="#00CCCC" stroke-width="0.2159" stroke-miterlimit="10"/>
<path d="M-23.843 65.64C-16.1191 62.53 -7.02182 61.25 0.784701 56.49C11.2141 50.13 17.42 44.36 22.0358 42.25C24.5141 41.11 26.4141 40.83 28.1798 42.11C32.6923 45.38 33.2912 55.96 38.6711 61.22C40.5401 63.05 42.4505 64.36 44.8151 64.3C52.4978 64.1 60.5727 54.15 69.7217 53.46C72.7679 53.23 75.3597 53.89 77.7037 55.56C81.6276 58.36 82.526 63.35 86.326 66.19C89.9814 68.92 92.9037 69.33 96.6624 68.96C98.1081 68.82 99.6157 68.61 101.268 68.7C105.698 68.93 108.858 69.52 114.196 71.99C117.17 73.37 119.968 74.32 122.911 73.05" stroke="#00CCCC" stroke-width="0.2159" stroke-miterlimit="10"/>
<path d="M-22.8517 64.04C-15.1174 59.89 -6.3506 57.75 1.14614 52.89C11.6994 46.04 18.0499 40.78 22.7793 39.17C25.2989 38.31 27.2195 38.3 28.9853 39.69C33.5391 43.28 34.4374 53.57 40.344 58.41C42.3679 60.07 44.3918 61.09 46.7771 61.02C54.6972 60.81 62.638 50.63 71.8592 50.41C74.9157 50.34 77.4766 51.17 79.7483 52.94C83.507 55.86 84.5603 60.81 88.0815 63.85C91.5304 66.83 94.3494 67.76 98.1701 67.57C99.5951 67.5 101.113 67.29 102.786 67.34C107.226 67.45 110.499 68.06 116.54 67.98C119.349 68.95 122.529 68.62 125.668 66.6" stroke="#00CCCC" stroke-width="0.2159" stroke-miterlimit="10"/>
<path d="M-21.8604 62.44C-14.1158 57.25 -5.67937 54.24 1.49726 49.29C12.1641 41.94 18.6695 37.2 23.5125 36.1C26.063 35.52 28.0146 35.77 29.7701 37.27C34.3755 41.19 35.563 51.18 42.0065 55.6C44.1853 57.09 46.3228 57.92 48.7288 57.74C56.8864 57.15 64.6929 47.11 73.9761 47.37C77.0429 47.46 79.5625 48.46 81.7619 50.32C85.3657 53.36 86.5532 58.27 89.8059 61.51C93.0483 64.75 95.7641 66.36 99.6364 66.18C101.051 66.11 102.579 66.03 104.273 65.97C108.734 65.81 112.348 62.73 118.864 63.96C121.724 64.5 125.07 62.92 128.395 60.15" stroke="#00CCCC" stroke-width="0.2159" stroke-miterlimit="10"/>
<path d="M-20.8794 60.84C-13.1348 54.62 -5.02885 50.71 1.838 45.69C12.6081 37.82 19.2788 33.61 24.2353 33.03C26.8271 32.72 28.7994 33.25 30.5548 34.86C35.2016 39.12 36.6782 48.81 43.6587 52.79C45.9923 54.12 48.2434 54.75 50.6804 54.46C59.0652 53.5 66.7478 43.6 76.1032 44.34C79.1804 44.59 81.6587 45.76 83.7962 47.72C87.2554 50.88 88.5668 55.76 91.5511 59.19C94.5766 62.68 97.1994 64.61 101.134 64.81C102.538 64.88 104.066 64.77 105.78 64.63C110.252 64.27 114.114 62.6 121.197 59.97C124.12 58.89 127.63 57.24 131.141 53.72" stroke="#00CCCC" stroke-width="0.2159" stroke-miterlimit="10"/>
<path d="M-19.8881 59.25C-12.1332 51.99 -4.37828 47.19 2.19944 42.1C13.0522 33.7 19.9087 30.03 24.9788 29.97C27.6016 29.94 29.5946 30.74 31.35 32.46C36.038 37.05 37.8141 46.46 45.3212 50C47.7994 51.17 50.1641 51.59 52.6321 51.21C61.244 49.85 68.8027 40.09 78.2201 41.32C81.3179 41.72 83.7549 43.07 85.8201 45.13C89.1244 48.4 90.5701 53.26 93.2859 56.88C96.0946 60.63 98.6244 63.05 102.621 63.45C104.015 63.59 105.553 63.51 107.288 63.3C111.78 62.75 116.096 60.52 123.541 55.99C126.557 54.16 130.191 51.57 133.898 47.3" stroke="#00CCCC" stroke-width="0.2159" stroke-miterlimit="10"/>
<path d="M-18.8969 57.65C-11.142 49.35 -3.73816 43.66 2.55043 38.5C13.4651 29.55 20.5385 26.44 25.7118 26.9C28.376 27.14 30.3896 28.22 32.145 30.04C36.8743 34.96 38.9396 44.1 46.9939 47.19C49.6271 48.2 52.1053 48.42 54.5939 47.93C63.433 46.17 70.8678 36.54 80.3575 38.28C83.4656 38.84 85.8613 40.36 87.8646 42.51C91.014 45.9 92.5836 50.73 95.0412 54.54C97.6227 58.55 100.08 61.45 104.118 62.06C105.502 62.27 107.04 62.22 108.796 61.93C113.298 61.19 118.172 58.36 125.885 51.97C129.035 49.36 132.752 45.86 136.645 40.84" stroke="#00CCCC" stroke-width="0.2159" stroke-miterlimit="10"/>
<path d="M-17.9055 56.05C-10.1403 46.71 -3.10824 40.12 2.90155 34.9C13.8575 25.39 21.1684 22.84 26.445 23.82C29.1505 24.32 31.1744 25.68 32.9298 27.62C37.7005 32.88 40.0651 41.75 48.6461 44.37C51.4341 45.22 54.0157 45.24 56.5352 44.64C65.5912 42.48 72.9124 33.01 82.464 35.23C85.5825 35.95 87.9472 37.64 89.8782 39.89C92.8831 43.39 94.5559 48.19 96.7657 52.21C99.1097 56.48 101.505 59.86 105.594 60.68C106.968 60.95 108.517 60.95 110.293 60.58C114.816 59.65 120.268 56.17 128.209 47.97C131.513 44.56 135.303 40.17 139.381 34.4" stroke="#00CCCC" stroke-width="0.2159" stroke-miterlimit="10"/>
<path d="M-16.9246 54.46C5.71022 24.23 18.9792 18.46 27.1782 20.76C37.432 23.64 37.876 38.63 50.3086 41.57C63.9907 44.81 72.3341 28.76 84.5912 32.19C97.7363 35.87 96.6004 56.69 107.092 59.29C113.37 60.85 123.799 55.89 142.138 27.95" stroke="#00CCCC" stroke-width="0.2159" stroke-miterlimit="10"/>
</g>
<path d="M52.5701 15.09H55.8538V33.42" stroke="#333333" stroke-width="0.8244" stroke-miterlimit="10" stroke-linecap="round"/>
<path d="M57.351 35.3C57.2271 34.41 56.5043 33.75 55.6989 33.7C54.7179 33.63 53.7679 34.47 53.7679 35.57C53.8918 36.28 54.6869 41.32 51.0108 45.47C48.0989 48.74 44.2782 49.35 43.2766 49.48H39.4146C38.413 49.35 34.5923 48.74 31.6804 45.47C27.994 41.32 28.7891 36.28 28.9233 35.57C28.9233 34.46 27.963 33.63 26.9923 33.7C26.1869 33.75 25.4641 34.42 25.3402 35.3C25.2266 36.24 24.4728 43.16 29.7597 48.41C33.2499 51.87 37.463 52.7 39.1461 52.92V62.18C39.1461 63.29 40.0755 64.19 41.2217 64.19C42.3679 64.19 43.2972 63.29 43.2972 62.18V52.95C44.7635 52.78 49.2657 52.07 52.9624 48.4C58.2288 43.16 57.4749 36.24 57.351 35.3Z" fill="white" stroke="#333333" stroke-width="0.8244" stroke-miterlimit="10" stroke-linecap="round"/>
<path d="M39.9722 51.93C39.9722 52.93 39.9722 53.92 39.9722 54.92C39.9722 56.92 39.9722 58.93 39.9825 60.93C39.8792 61.61 40.3749 62.18 40.8912 62.23C41.3042 62.27 41.7483 61.98 41.9341 61.53C42.0374 61.27 42.0271 61.03 42.0167 60.98C41.9548 60.3 41.9135 56.21 41.8825 50.49C41.7792 50.48 41.6347 50.47 41.4591 50.49C41.2216 50.51 40.757 50.56 40.3955 50.9C39.9928 51.29 39.9722 51.81 39.9722 51.93Z" fill="#00CCCC"/>
<path d="M56.3597 38.74C56.3184 38.59 56.2151 38.21 55.9363 38.12C55.5955 38.02 55.2031 38.41 55.0896 38.53C54.9347 39.87 54.4184 42.63 52.3222 45.33C51.5684 46.3 49.658 48.71 46.1472 49.86C44.4227 50.43 42.8945 50.5 41.8928 50.48C41.8928 51.03 41.8928 51.58 41.8928 52.13C44.7118 52.03 46.7771 51.29 48.0678 50.69C55.0792 47.4 56.6488 39.83 56.3597 38.74Z" fill="#00CCCC"/>
<path d="M26.6 39.15C26.6309 39 26.7239 38.61 27.0027 38.52C27.3331 38.41 27.7462 38.79 27.8701 38.91C28.0663 40.25 28.6652 42.99 30.8337 45.63C31.6081 46.58 33.5907 48.93 37.1326 50C38.8777 50.52 40.4059 50.56 41.4076 50.5C41.4282 51.05 41.4386 51.6 41.4592 52.15C38.6402 52.13 36.5543 51.45 35.2532 50.87C28.1282 47.76 26.3418 40.24 26.6 39.15Z" fill="#00CCCC"/>
<path d="M50.9385 12.14C51.7336 12.14 52.3842 12.77 52.3842 13.54V16.68C52.3842 17.45 51.7336 18.08 50.9385 18.08C49.2967 18.08 47.9646 16.79 47.9646 15.2V15.01C47.9646 13.42 49.2967 12.14 50.9385 12.14Z" stroke="#333333" stroke-width="0.8244" stroke-miterlimit="10" stroke-linecap="round"/>
<path d="M30.369 15.09H27.0853V33.42" stroke="#333333" stroke-width="0.8244" stroke-miterlimit="10" stroke-linecap="round"/>
<path d="M32.0108 12.14C31.2157 12.14 30.5652 12.77 30.5652 13.54V16.68C30.5652 17.45 31.2157 18.08 32.0108 18.08C33.6527 18.08 34.9848 16.79 34.9848 15.2V15.01C34.9848 13.42 33.6527 12.14 32.0108 12.14Z" stroke="#333333" stroke-width="0.8244" stroke-miterlimit="10" stroke-linecap="round"/>
<path d="M50.5461 13.41C51.0521 13.41 51.4651 13.81 51.4651 14.3V16.29C51.4651 16.78 51.0521 17.18 50.5461 17.18C49.5032 17.18 48.6667 16.36 48.6667 15.36V15.24C48.6667 14.23 49.5135 13.41 50.5461 13.41Z" fill="#FFCC00"/>
<path d="M32.2999 13.6C31.8043 13.6 31.4119 13.99 31.4119 14.46V16.39C31.4119 16.87 31.8146 17.25 32.2999 17.25C33.3119 17.25 34.1276 16.46 34.1276 15.48V15.36C34.1276 14.39 33.3119 13.6 32.2999 13.6Z" fill="#FFCC00"/>
<path d="M41.201 64.19C41.201 69.67 45.7858 74.1 51.4342 74.1H60.6554C66.3141 74.1 70.8886 69.66 70.8886 64.19V36.95" stroke="#333333" stroke-width="0.8244" stroke-miterlimit="10" stroke-linecap="round"/>
<path d="M70.8885 36.88C74.8521 36.88 78.0652 33.7684 78.0652 29.93C78.0652 26.0916 74.8521 22.98 70.8885 22.98C66.925 22.98 63.7119 26.0916 63.7119 29.93C63.7119 33.7684 66.925 36.88 70.8885 36.88Z" fill="white" stroke="#333333" stroke-width="0.8244" stroke-miterlimit="10" stroke-linecap="round"/>
<path d="M70.8885 33.14C72.7192 33.14 74.2032 31.7028 74.2032 29.93C74.2032 28.1572 72.7192 26.72 70.8885 26.72C69.0579 26.72 67.5739 28.1572 67.5739 29.93C67.5739 31.7028 69.0579 33.14 70.8885 33.14Z" stroke="#333333" stroke-width="0.8244" stroke-miterlimit="10" stroke-linecap="round"/>
<path d="M70.4651 32.24C71.5487 32.24 72.4271 31.3893 72.4271 30.34C72.4271 29.2907 71.5487 28.44 70.4651 28.44C69.3816 28.44 68.5032 29.2907 68.5032 30.34C68.5032 31.3893 69.3816 32.24 70.4651 32.24Z" fill="#FFCC00"/>
</g>
<defs>
<clipPath id="clip0_7_375">
<rect width="95" height="92" fill="white"/>
</clipPath>
</defs>
</svg>
