<svg width="93" height="92" viewBox="0 0 93 92" fill="none" xmlns="http://www.w3.org/2000/svg">
<g clip-path="url(#clip0_7_308)">
<g opacity="0.9">
<path d="M-14.041 73.2C-11.9081 73.8 -8.0971 74.58 -3.78069 73.58C10.1188 70.36 11.2813 52.03 21.208 51.37C32.2972 50.63 38.8174 71.16 50.7052 69.07C59.3178 67.56 59.8637 63.66 70.4373 63.33C83.144 62.94 87.238 71.41 97.286 70.92C103.028 70.64 110.852 67.43 119.849 54.4" stroke="#00CCCC" stroke-width="0.2121" stroke-miterlimit="10"/>
<path d="M-16.2144 69.55C-13.9399 69.85 -10.1592 70.37 -5.94392 69.23C8.18804 65.39 10.3311 48.17 20.1871 47.26C26.2017 46.7 30.8214 51.34 35.3501 55.98C39.8889 60.62 44.4075 65.44 50.4525 64.72C51.8071 64.56 52.9898 64.31 54.0613 64.03C59.8738 62.5 61.7136 59.4 70.5991 59.23C83.417 58.99 87.4301 68.24 97.5388 67.89C103.281 67.68 111.165 64.4 120.405 50.67" stroke="#00CCCC" stroke-width="0.2121" stroke-miterlimit="10"/>
<path d="M-18.3978 65.9C-15.992 65.91 -12.2315 66.15 -8.11728 64.87C6.25728 60.41 9.38087 44.28 19.1661 43.14C25.6255 42.39 30.4171 46.65 34.9458 51.12C39.5452 55.66 44.0133 60.77 50.2099 60.37C51.5644 60.28 52.7674 60.09 53.8895 59.85C60.0254 58.58 61.9158 55.19 70.771 55.11C83.7 55.03 87.6424 65.05 97.8016 64.83C103.543 64.7 111.479 61.34 120.971 46.91" stroke="#00CCCC" stroke-width="0.2121" stroke-miterlimit="10"/>
<path d="M-20.5713 62.25C-18.0239 61.96 -14.2938 61.92 -10.2806 60.52C4.32643 55.4 8.43056 40.37 18.145 39.02C25.0392 38.06 30.0227 41.96 34.5413 46.26C39.2115 50.71 43.6088 56.29 49.9571 56.02C51.3015 55.96 52.5348 55.86 53.7074 55.68C60.1669 54.67 62.1077 50.99 70.9326 51.01C83.9627 51.08 87.8344 61.87 98.0543 61.79C103.796 61.73 111.792 58.31 121.517 43.16" stroke="#00CCCC" stroke-width="0.2121" stroke-miterlimit="10"/>
<path d="M-22.7446 58.6C-20.0658 58.01 -16.3559 57.69 -12.4439 56.16C2.3957 50.38 7.48038 36.45 17.1241 34.91C24.4529 33.74 29.6285 37.28 34.137 41.41C38.878 45.75 43.1944 51.4 49.7145 51.68C51.0489 51.74 52.3023 51.65 53.5255 51.52C60.3084 50.78 62.2998 46.79 71.0944 46.91C84.2458 47.14 88.0265 58.7 98.307 58.76C104.049 58.78 112.105 55.28 122.073 39.43" stroke="#00CCCC" stroke-width="0.2121" stroke-miterlimit="10"/>
<path d="M-24.9281 54.95C-22.1078 54.06 -18.4383 53.45 -14.6172 51.81C0.454835 45.34 6.52005 32.51 16.093 30.79C23.8565 29.39 29.2242 32.59 33.7226 36.54C38.5343 40.78 42.7799 46.68 49.4517 47.31C50.786 47.44 52.0597 47.41 53.3334 47.33C60.4398 46.86 62.4919 42.57 71.2561 42.79C84.5187 43.17 88.2286 55.51 98.5698 55.7C104.301 55.79 112.419 52.23 122.639 35.66" stroke="#00CCCC" stroke-width="0.2121" stroke-miterlimit="10"/>
<path d="M-27.1014 51.3C-24.1497 50.12 -20.5005 49.2 -16.7805 47.46C-1.48601 40.28 5.56987 28.57 15.0821 26.68C23.2803 25.05 28.8401 27.9 33.3182 31.69C38.2007 35.83 42.3756 41.98 49.2091 42.97C50.5333 43.16 51.8374 43.2 53.1616 43.16C60.5915 42.96 62.6941 38.37 71.428 38.68C84.7917 39.22 88.4308 52.33 98.8327 52.66C104.564 52.83 112.742 49.19 123.205 31.92" stroke="#00CCCC" stroke-width="0.2121" stroke-miterlimit="10"/>
<path d="M-29.2849 47.65C-26.2018 46.17 -22.5828 44.96 -18.9538 43.1C-3.44709 35.18 4.60954 24.61 14.0511 22.56C22.6738 20.69 28.4458 23.2 32.9038 26.83C37.8671 30.86 41.9612 37.26 48.9463 38.62C50.2705 38.88 51.5948 38.98 52.9594 38.99C60.7128 39.06 62.866 34.16 71.5695 34.58C85.0444 35.27 88.6027 49.16 99.0652 49.62C104.797 49.86 113.035 46.15 123.73 28.18" stroke="#00CCCC" stroke-width="0.2121" stroke-miterlimit="10"/>
<path d="M-31.4583 44C-28.2336 42.22 -24.6551 40.7 -21.1171 38.75C-5.41825 30.08 3.64925 20.64 13.0301 18.44C22.0875 16.32 28.0516 18.5 32.4995 21.97C37.5336 25.9 41.567 32.53 48.6936 34.27C50.0077 34.59 51.3623 34.76 52.7775 34.82C60.8544 35.16 63.0581 29.96 71.7414 30.47C85.3275 31.32 88.8049 45.98 99.3281 46.58C105.06 46.9 113.349 43.12 124.297 24.43" stroke="#00CCCC" stroke-width="0.2121" stroke-miterlimit="10"/>
<path d="M-33.6317 40.35C-30.2756 38.27 -26.7275 36.45 -23.2703 34.39C-7.38954 24.96 2.69893 16.67 12.0293 14.32C21.5011 11.94 27.6876 13.8 32.1152 17.11C37.2302 20.93 41.1827 27.79 48.4711 29.92C49.7852 30.3 51.16 30.54 52.6258 30.65C61.0261 31.27 63.2804 25.75 71.9334 26.37C85.6307 27.37 89.0373 42.81 99.611 43.54C105.343 43.93 113.692 40.08 124.883 20.69" stroke="#00CCCC" stroke-width="0.2121" stroke-miterlimit="10"/>
<path d="M-35.8152 36.71C-32.3176 34.33 -28.82 32.2 -25.4437 30.05C-9.40117 19.83 1.72851 12.7 10.9982 10.22C20.8946 7.57 27.2934 9.11 31.7008 12.26C36.9068 15.95 40.7885 23.05 48.2083 25.57C49.5224 26.02 50.9174 26.32 52.4236 26.47C61.1474 27.37 63.4522 21.54 72.0749 22.25C85.8834 23.41 89.2092 39.61 99.8435 40.49C105.575 40.96 113.986 37.04 125.419 16.93" stroke="#00CCCC" stroke-width="0.2121" stroke-miterlimit="10"/>
<path d="M-37.9885 33.06C3.49756 2.51 22.1885 1.19999 31.2965 7.39999C37.483 11.61 41.6882 20.94 52.2518 22.3C61.2991 23.47 63.6544 17.34 72.2468 18.15C86.1665 19.46 89.4114 36.44 100.106 37.45C105.838 37.99 114.299 34 125.975 13.19" stroke="#00CCCC" stroke-width="0.2121" stroke-miterlimit="10"/>
</g>
<path d="M73.552 78.9973C66.4727 79.146 60.2159 73.0853 60.0059 66.0364C59.7871 58.4015 65.7201 52.2709 73.0357 52.0085C80.5088 51.7462 86.7656 57.5707 86.9931 64.952C87.2294 72.753 81.3489 78.8399 73.552 78.9973Z" fill="white" stroke="#333333" stroke-width="0.8221" stroke-miterlimit="10" stroke-linecap="round"/>
<path d="M61.9573 62.1854C62.3959 62.9249 63.0905 63.4209 63.7302 63.9709C63.8581 64.0791 63.9587 64.2234 64.0043 64.3857C64.2328 65.2695 64.9091 65.6933 65.695 66.0089C66.1976 66.2073 66.682 66.4418 67.1389 66.7484C67.7512 67.1542 67.7878 67.3165 67.4588 67.9838C67.2943 68.3174 67.1298 68.6331 67.2029 69.0298C67.3034 69.5799 67.669 69.9316 68.0711 70.2111C68.9301 70.8153 69.1769 71.672 69.25 72.6189C69.3139 73.4214 69.3414 74.233 69.4693 75.0266C69.5698 75.7119 69.9262 76.2259 70.5294 76.5596C70.8675 76.7489 71.1326 76.5956 71.1417 76.2079C71.1508 75.9915 71.1234 75.784 71.096 75.5676C71.0137 74.9544 71.0869 74.4494 71.818 74.1519C72.4394 73.8994 72.7501 73.3854 72.9512 72.7902C73.1613 72.177 73.4355 71.6179 73.9838 71.1941C74.4682 70.8243 74.5139 70.2292 74.5413 69.6701C74.5687 69.2102 74.587 68.7593 74.1483 68.4437C73.9107 68.2723 73.6274 68.2002 73.3441 68.1371C72.8049 68.0199 72.4485 67.7493 72.2932 67.1902C72.1195 66.559 71.6169 66.2253 70.9955 66.072C70.5842 65.9728 70.1638 65.9368 69.7526 65.8556C68.7291 65.6392 67.7786 65.2605 66.9927 64.53C66.8739 64.4218 66.7917 64.2956 66.746 64.1423C66.5906 63.6283 66.7917 63.3307 67.3308 63.3577C68.4092 63.3938 69.3779 63.1323 70.2095 62.4199C70.5659 62.1133 70.8492 61.7436 71.0503 61.3197C71.2422 60.9049 71.5255 60.6344 71.9825 60.4991C72.4851 60.3458 72.9329 60.0933 73.3258 59.7507C73.6457 59.4621 73.6823 59.2096 73.4538 58.8309C73.0151 58.0824 72.083 57.875 71.2788 58.3439C71.0503 58.4792 70.8218 58.6144 70.5659 58.6776C70.0999 58.7948 69.8349 58.5333 69.9445 58.0734C70.0176 57.7668 70.0999 57.4692 70.2827 57.2167C70.4928 56.9191 70.3649 56.8019 70.0725 56.7117C69.4053 56.4953 68.7199 56.3871 68.0162 56.36C67.8061 56.351 67.5867 56.36 67.2669 56.36C67.7329 56.0174 68.1899 55.8821 68.6285 55.7198C70.0542 55.1968 71.5347 54.9533 73.0608 55.0074C75.1079 55.0886 77.0179 55.6567 78.7725 56.7207C78.9553 56.829 78.9553 56.9011 78.8091 57.0364C78.6629 57.1716 78.5897 57.343 78.5075 57.5233C78.2882 57.9922 78.343 58.2718 78.7086 58.6505C79.0375 58.9932 79.0284 59.2186 78.7177 59.5703C78.4709 59.8499 78.1328 59.9941 77.8221 60.1565C76.7711 60.6795 76.8717 61.6083 77.2464 62.456C77.3834 62.7626 77.6942 62.8347 78.0231 62.7536C78.7817 62.5732 79.531 62.3478 80.2713 62.0772C80.5089 61.9871 80.7373 61.8879 80.9932 61.8698C81.4867 61.8428 81.9162 62.1764 81.9893 62.6273C82.0625 63.0782 81.7517 63.5291 81.2857 63.6553C80.7922 63.7906 80.3078 63.6733 79.8143 63.6192C79.0467 63.5291 78.2973 63.3307 77.5205 63.3758C76.7529 63.4209 76.104 63.6824 75.775 64.4308C75.3912 65.2785 75.7385 66.6131 76.4421 67.082C76.7894 67.3165 77.1915 67.3255 77.5845 67.3525C78.279 67.3976 78.9279 67.587 79.5585 67.8666C79.9697 68.0469 80.1068 68.3265 80.0976 68.7322C80.0885 69.2102 80.0062 69.6791 79.8966 70.139C79.5767 71.5097 79.9331 72.7451 80.6917 73.8994C81.0663 74.4675 81.0663 74.4855 80.5637 74.9454C78.7908 76.5415 76.7163 77.5335 74.3311 77.8761C72.0007 78.2098 69.7617 77.8671 67.6416 76.8752C65.4757 75.8562 63.785 74.3052 62.5696 72.2491C61.4455 70.3374 60.9337 68.2723 61.0068 66.072C61.0434 64.8186 61.3084 63.6012 61.7654 62.4199C61.8019 62.3568 61.8202 62.2576 61.9573 62.1854Z" fill="#00CCCC"/>
<path d="M66.8487 55C67.6521 55.009 68.3634 55.0991 69.058 55.2882C69.309 55.3603 69.4178 55.4323 69.2672 55.7385C69.1417 55.9817 69.0747 56.2609 69.0161 56.5311C68.832 57.3327 69.309 57.8731 70.079 57.747C70.4807 57.684 70.7987 57.4318 71.1418 57.2427C71.736 56.9274 72.3134 57.0175 72.7067 57.4948C73.0331 57.8911 73.008 58.0983 72.6063 58.4135C72.1962 58.7378 71.736 58.9809 71.2589 59.1521C70.8489 59.2962 70.5643 59.5754 70.3802 59.9897C69.6354 61.6559 68.3969 62.4485 66.6897 62.3855C66.2461 62.3674 65.8361 62.4485 65.6268 62.9168C65.4093 63.4032 65.5097 63.8716 65.7942 64.3039C66.0034 64.6101 66.2712 64.8623 66.5725 65.0604C67.5014 65.6729 68.4889 66.1232 69.5852 66.2673C69.8949 66.3033 70.2045 66.3664 70.5058 66.4565C71.0665 66.6186 71.4849 66.9698 71.6188 67.6183C71.7527 68.2488 72.1293 68.6 72.69 68.7712C72.7486 68.7892 72.8155 68.8072 72.8741 68.8342C73.3009 68.9783 73.87 68.9873 73.9453 69.5818C74.0457 70.3563 74.0708 71.203 73.4515 71.7794C72.8992 72.3018 72.5393 72.9142 72.3218 73.6528C72.1042 74.4003 71.7276 74.9587 71.0246 75.283C70.3384 75.5982 70.1878 76.2647 70.2296 76.9942C70.2463 77.2194 70.2882 77.4356 70.3049 77.6607C70.3133 77.7688 70.3635 77.9129 70.2631 77.976C70.1375 78.057 70.0539 77.9129 69.9702 77.8409C69.5936 77.4896 69.3509 77.0573 69.2756 76.5169C69.1417 75.6342 69.0998 74.7336 69.058 73.8419C68.991 72.4639 68.5977 71.293 67.5014 70.4374C66.698 69.8069 66.6646 69.3656 67.0914 68.4109C67.5265 67.4382 67.4345 67.0869 66.606 66.4745C66.0787 66.0872 65.5097 65.781 64.9155 65.5288C64.1791 65.2226 63.5933 64.7722 63.3673 63.8986C63.2502 63.4572 62.9238 63.151 62.589 62.8808C62.0032 62.4035 61.4927 61.8541 61.0994 61.1786C60.9823 60.9804 60.9655 60.8183 61.0659 60.6021C62.0785 58.3865 63.5431 56.6032 65.4595 55.2522C65.903 54.9099 66.4386 55.063 66.8487 55Z" fill="#FFCC00" stroke="#333333" stroke-width="0.6183" stroke-miterlimit="10" stroke-linecap="round"/>
<path d="M86.9965 65.958C86.9126 68.7443 85.957 71.3849 84.1296 73.6825C83.7776 74.1197 83.786 74.1026 83.4926 73.6482C82.604 72.2936 82.2855 70.8362 82.7214 69.233C82.8555 68.7272 82.889 68.2128 82.8471 67.6898C82.8136 67.2697 82.6292 66.9696 82.2603 66.7639C81.4892 66.3352 80.676 66.0952 79.8043 66.0352C78.4128 65.9408 77.6667 64.7577 78.1445 63.3946C78.3373 62.8287 78.7732 62.5715 79.3097 62.4429C79.8713 62.3143 80.4246 62.4172 80.9778 62.4944C81.6987 62.5887 82.4196 62.743 83.1489 62.7687C83.5764 62.7859 83.9871 62.7173 84.3392 62.4515C84.8422 62.0743 85.0433 61.397 84.8338 60.814C84.6158 60.2225 84.0374 59.8538 83.4171 59.9053C83.1237 59.931 82.8639 60.0253 82.604 60.1282C81.8496 60.4282 81.0868 60.6854 80.2988 60.874C79.8378 60.9855 79.7288 60.9169 79.6031 60.4454C79.3516 59.4937 79.5025 59.1337 80.3659 58.6621C80.7599 58.4478 81.1539 58.242 81.4137 57.8562C81.7322 57.3761 81.7071 56.9389 81.3215 56.5188C80.9024 56.0644 80.9862 55.4214 81.4892 55.0528C81.6652 54.9242 81.7574 55.0614 81.858 55.1385C84.3308 57.0161 85.9319 59.4852 86.6695 62.5373C86.9126 63.6003 87.0216 64.6892 86.9965 65.958Z" fill="#FFCC00" stroke="#333333" stroke-width="0.6183" stroke-miterlimit="10" stroke-linecap="round"/>
<path d="M9.59314 26.65C9.75488 27.26 23.8868 27.37 60.2579 26.65C64.3722 26.65 68.3853 27.95 71.701 30.36L84.074 39.34C87.3593 41.73 85.6611 46.88 81.5772 46.88C69.3558 46.89 59.3785 46.89 52.6056 46.88C30.1138 46.87 6.44934 46.8 6.44934 46.8C6.44934 46.8 9.16858 26.56 9.57293 26.6C9.58304 26.61 9.59314 26.65 9.59314 26.65Z" fill="white"/>
<path d="M78.7568 29.26L80.4651 25.64L85.4184 24.92L83.3663 20.89L86.9549 17.48L82.0724 16.07L81.7287 10.43L77.1394 14.95L72.5804 11.76L73.9349 18.98L68.8098 19.23L73.7934 26.6" fill="white"/>
<path d="M78.7568 29.26L80.4651 25.64L85.4184 24.92L83.3663 20.89L86.9549 17.48L82.0724 16.07L81.7287 10.43L77.1394 14.95L72.5804 11.76L73.9349 18.98L68.8098 19.23L73.7934 26.6" stroke="#333333" stroke-width="0.8244" stroke-miterlimit="10" stroke-linecap="round"/>
<path d="M47.4098 46.89H81.5873C85.6712 46.89 87.3795 41.73 84.0841 39.35L71.7111 30.37C68.3954 27.96 64.3823 26.66 60.268 26.66H9.59314" fill="white"/>
<path d="M47.4098 46.89H81.5873C85.6712 46.89 87.3796 41.73 84.0841 39.35L71.7111 30.37C68.3954 27.96 64.3823 26.66 60.268 26.66H9.59314" stroke="#333333" stroke-width="0.8244" stroke-miterlimit="10" stroke-linecap="round"/>
<path d="M9.14832 46.89H25.4031" stroke="#333333" stroke-width="0.8244" stroke-miterlimit="10" stroke-linecap="round"/>
<path d="M29.4061 41.95L15.9413 56.02C14.9406 57.06 15.6886 58.78 17.1443 58.78H23.0477C24.2102 58.78 25.3525 58.49 26.3634 57.94L56.083 41.96" fill="white"/>
<path d="M29.4061 41.95L15.9413 56.02C14.9406 57.06 15.6886 58.78 17.1443 58.78H23.0477C24.2102 58.78 25.3525 58.49 26.3634 57.94L56.083 41.96" stroke="#333333" stroke-width="0.8244" stroke-miterlimit="10" stroke-linecap="round"/>
<path d="M40.9199 26.17L25.767 18.68C25.1402 18.37 24.4427 18.21 23.7351 18.21H16.9522C15.2741 18.21 14.4553 20.24 15.6785 21.38L20.8339 26.18" fill="white"/>
<path d="M40.9199 26.17L25.767 18.68C25.1402 18.37 24.4427 18.21 23.7351 18.21H16.9522C15.2741 18.21 14.4553 20.24 15.6785 21.38L20.8339 26.18" stroke="#333333" stroke-width="0.8244" stroke-miterlimit="10" stroke-linecap="round"/>
<path d="M21.7438 37.78C23.508 37.78 24.9381 36.3652 24.9381 34.62C24.9381 32.8748 23.508 31.46 21.7438 31.46C19.9796 31.46 18.5494 32.8748 18.5494 34.62C18.5494 36.3652 19.9796 37.78 21.7438 37.78Z" fill="white" stroke="#333333" stroke-width="0.8244" stroke-miterlimit="10" stroke-linecap="round"/>
<path d="M32.6106 37.78C34.3748 37.78 35.805 36.3652 35.805 34.62C35.805 32.8748 34.3748 31.46 32.6106 31.46C30.8464 31.46 29.4163 32.8748 29.4163 34.62C29.4163 36.3652 30.8464 37.78 32.6106 37.78Z" fill="white" stroke="#333333" stroke-width="0.8244" stroke-miterlimit="10" stroke-linecap="round"/>
<path d="M43.4774 37.78C45.2416 37.78 46.6718 36.3652 46.6718 34.62C46.6718 32.8748 45.2416 31.46 43.4774 31.46C41.7132 31.46 40.2831 32.8748 40.2831 34.62C40.2831 36.3652 41.7132 37.78 43.4774 37.78Z" fill="white" stroke="#333333" stroke-width="0.8244" stroke-miterlimit="10" stroke-linecap="round"/>
<path d="M81.941 37.77L73.2172 31.45H61.3092C61.3092 31.45 61.3092 31.46 61.3092 31.47C59.6918 31.63 58.4282 32.98 58.4282 34.62C58.4282 36.37 59.8637 37.78 61.6226 37.78C61.9056 37.78 62.31 37.87 62.5627 37.8C66.869 37.85 81.941 37.77 81.941 37.77Z" fill="white" stroke="#333333" stroke-width="0.8244" stroke-miterlimit="10" stroke-linecap="round"/>
<path d="M78.1908 36.71L72.7826 33H65.4032C65.4032 33 65.4032 33 65.4032 33.01C64.4025 33.1 63.614 33.89 63.614 34.86C63.614 35.89 64.5036 36.72 65.5953 36.72C65.7672 36.72 66.0199 36.77 66.1816 36.73C68.8503 36.75 78.1908 36.71 78.1908 36.71Z" fill="#00CCCC"/>
<path d="M21.4 37C22.4608 37 23.3207 36.1493 23.3207 35.1C23.3207 34.0507 22.4608 33.2 21.4 33.2C20.3393 33.2 19.4794 34.0507 19.4794 35.1C19.4794 36.1493 20.3393 37 21.4 37Z" fill="#00CCCC"/>
<path d="M32.2264 37C33.2872 37 34.1471 36.1493 34.1471 35.1C34.1471 34.0507 33.2872 33.2 32.2264 33.2C31.1657 33.2 30.3058 34.0507 30.3058 35.1C30.3058 36.1493 31.1657 37 32.2264 37Z" fill="#00CCCC"/>
<path d="M42.8507 37C43.9115 37 44.7714 36.1493 44.7714 35.1C44.7714 34.0507 43.9115 33.2 42.8507 33.2C41.79 33.2 40.9301 34.0507 40.9301 35.1C40.9301 36.1493 41.79 37 42.8507 37Z" fill="#00CCCC"/>
</g>
<defs>
<clipPath id="clip0_7_308">
<rect width="93" height="92" fill="white"/>
</clipPath>
</defs>
</svg>
