<svg width="95" height="92" viewBox="0 0 95 92" fill="none" xmlns="http://www.w3.org/2000/svg">
<g clip-path="url(#clip0_6_185)">
<g opacity="0.9">
<path d="M-26.3936 61.38C-17.3273 66.03 -5.77236 70.23 2.69503 66.22C12.2363 61.71 10.0369 50.48 18.8141 47.47C28.2728 44.22 34.138 56.11 54.2119 59.11C70.1554 61.5 76.8776 55.56 83.063 60.66C90.5597 66.83 85.5929 79.58 93.8124 83.12C97.1064 84.54 99.0787 82.99 102.228 84.56C107.949 87.41 108.475 96.04 108.073 102.7" stroke="#00CCCC" stroke-width="0.2159" stroke-miterlimit="10"/>
<path d="M-27.6223 59.67C-18.1017 63.16 -6.47449 66.48 2.11682 62.38C12.4016 57.45 11.0902 46.89 19.7228 44.46C27.3021 42.33 32.2896 49.91 44.1233 54.13C47.4174 55.31 50.9695 56.05 55.1516 56.5C57.6608 56.78 59.9739 56.87 62.163 56.91C73.2016 57.1 78.819 54.37 84.0853 58.81C88.0092 62.12 88.8663 67.03 89.9195 71.3C90.8902 75.21 92.0261 78.6 96.0223 79.99C99.275 81.12 101.268 79.57 104.366 80.83C109.993 83.11 110.809 90.69 110.809 96.25" stroke="#00CCCC" stroke-width="0.2159" stroke-miterlimit="10"/>
<path d="M-28.8511 57.95C-18.8657 60.28 -7.17662 62.72 1.5386 58.53C12.5565 53.18 12.1538 43.31 20.6315 41.44C28.3245 39.75 33.0745 48 44.9391 51.97C48.4087 53.13 51.9299 53.59 56.1017 53.87C58.5902 54.04 60.9136 54.07 63.1853 54.1C74.1413 54.28 79.769 52.34 85.0973 56.94C89.0419 60.34 90.219 65.16 91.5718 69.18C92.7902 72.79 94.143 75.78 98.2321 76.85C101.433 77.69 103.447 76.14 106.514 77.09C112.038 78.81 113.153 85.34 113.556 89.8" stroke="#00CCCC" stroke-width="0.2159" stroke-miterlimit="10"/>
<path d="M-30.08 56.24C-19.6403 57.4 -7.85822 59 0.960259 54.69C12.732 48.95 13.2483 39.76 21.5401 38.44C29.3673 37.2 33.8488 46.09 45.7445 49.82C49.3999 50.97 52.8798 51.15 57.0412 51.26C59.4988 51.32 61.8429 51.28 64.2075 51.32C75.0706 51.49 80.7293 50.35 86.1092 55.1C90.0744 58.6 91.5613 63.32 93.2342 67.08C94.7005 70.4 96.2597 72.98 100.442 73.73C103.571 74.29 105.625 72.73 108.661 73.38C114.083 74.53 115.497 80.01 116.303 83.38" stroke="#00CCCC" stroke-width="0.2159" stroke-miterlimit="10"/>
<path d="M-31.2985 54.52C-20.4044 54.52 -8.55009 55.25 0.381975 50.84C12.8972 44.68 14.3428 36.22 22.4488 35.42C30.4206 34.64 34.6439 44.15 46.5602 47.66C50.3912 48.79 53.8505 48.7 57.9912 48.63C60.4282 48.59 62.7825 48.48 65.2401 48.51C76.0102 48.67 81.6896 48.32 87.1314 53.24C91.1276 56.83 92.9037 61.45 94.8967 64.96C96.6005 67.97 98.3559 70.17 102.662 70.59C105.718 70.89 107.804 69.3 110.819 69.64C116.137 70.23 117.852 74.65 119.06 76.93" stroke="#00CCCC" stroke-width="0.2159" stroke-miterlimit="10"/>
<path d="M-32.5272 52.81C-21.1685 51.64 -9.25222 51.5 -0.196242 47C13.0521 40.42 15.4684 31.83 23.3679 32.42C31.4739 33.02 35.4391 42.23 47.376 45.52C51.3929 46.63 54.8108 46.28 58.9309 46.03C61.3472 45.88 63.7119 45.7 66.2521 45.73C76.9293 45.88 82.6396 46.32 88.1331 51.4C92.15 55.09 94.2152 59.59 96.5385 62.87C98.4592 65.58 100.504 66.66 104.861 67.48C107.773 68.03 109.973 65.77 112.947 65.93C118.141 66.2 120.175 69.33 121.786 70.5" stroke="#00CCCC" stroke-width="0.2159" stroke-miterlimit="10"/>
<path d="M-33.756 51.09C-21.9429 48.76 -9.95435 47.75 -0.774463 43.15C13.2174 36.16 16.656 28.3 24.2766 29.4C32.4755 30.58 36.2342 40.27 48.1918 43.36C52.3946 44.44 55.7712 43.83 59.881 43.4C62.2663 43.15 64.6516 42.9 67.2848 42.93C77.869 43.07 83.6 44.3 89.1554 49.54C93.1929 53.33 95.5266 57.72 98.2011 60.75C100.328 63.16 102.528 63.81 107.071 64.34C109.932 64.68 112.141 62.49 115.095 62.19C120.175 61.68 122.519 63.97 124.533 64.05" stroke="#00CCCC" stroke-width="0.2159" stroke-miterlimit="10"/>
<path d="M-34.9849 49.38C-22.7071 45.88 -10.6566 44 -1.3528 39.31C13.3722 31.9 17.6885 25.75 25.1852 26.4C33.6423 27.13 37.0293 38.33 48.9972 41.21C53.3755 42.27 56.7211 41.4 60.8206 40.79C63.1852 40.44 65.5809 40.11 68.307 40.14C78.8086 40.27 84.5602 42.3 90.1673 47.69C94.2255 51.57 96.8173 55.87 99.8532 58.64C102.177 60.76 104.583 61.89 109.281 61.21C112.069 60.81 114.31 59.08 117.242 58.46C122.209 57.41 124.863 58.63 127.29 57.61" stroke="#00CCCC" stroke-width="0.2159" stroke-miterlimit="10"/>
<path d="M-36.2136 47.66C-23.4816 43 -11.3587 40.24 -1.94134 35.46C13.5168 27.62 18.7934 22.3 26.0837 23.38C34.6956 24.66 37.8244 36.35 49.8027 39.05C54.3668 40.08 57.6712 38.95 61.7603 38.16C64.1043 37.71 66.5103 37.31 69.3293 37.33C79.738 37.45 85.5103 40.27 91.1793 45.82C95.2581 49.8 98.0978 54.01 101.505 56.51C104.015 58.35 106.658 59.15 111.48 58.06C114.176 57.45 116.468 55.66 119.38 54.71C124.233 53.13 127.197 53.26 130.026 51.15" stroke="#00CCCC" stroke-width="0.2159" stroke-miterlimit="10"/>
<path d="M-37.4321 45.95C-24.2457 40.13 -12.0506 36.49 -2.5093 31.62C13.682 23.36 19.919 18.88 27.0027 20.38C35.7798 22.23 38.6298 34.4 50.6184 36.91C55.3684 37.9 58.6315 36.53 62.7103 35.55C65.0233 34.99 67.4499 34.52 70.3516 34.55C80.6673 34.66 86.4706 38.27 92.1912 43.98C96.2907 48.06 99.3576 52.2 103.168 54.42C105.853 55.99 108.754 56.47 113.7 54.95C116.313 54.15 118.657 52.28 121.528 51C126.267 48.89 129.551 47.93 132.773 44.73" stroke="#00CCCC" stroke-width="0.2159" stroke-miterlimit="10"/>
<path d="M-38.6609 44.23C-25.0098 37.25 -12.7631 32.72 -3.08752 27.77C13.8266 19.06 21.0239 15.47 27.9114 17.36C36.8228 19.81 39.425 32.41 51.4342 34.75C56.3701 35.71 59.6022 34.09 63.6603 32.93C65.9527 32.27 68.3897 31.73 71.3842 31.75C81.607 31.85 87.431 36.25 93.2239 42.12C97.3543 46.29 100.648 50.38 104.841 52.3C107.701 53.61 110.871 53.78 115.921 51.81C118.461 50.82 120.846 48.88 123.686 47.26C128.322 44.63 131.905 42.58 135.53 38.27" stroke="#00CCCC" stroke-width="0.2159" stroke-miterlimit="10"/>
<path d="M-39.8898 42.52C-25.7843 34.37 -13.4653 28.97 -3.66586 23.94C13.9814 14.81 22.1081 12.09 28.82 14.36C37.8657 17.43 40.2303 30.44 52.2396 32.6C57.3613 33.52 60.5521 31.66 64.5896 30.31C66.8613 29.55 69.3086 28.93 72.3961 28.96C82.526 29.06 88.3809 34.25 94.2254 40.27C98.3765 44.54 101.898 48.6 106.483 50.19C109.518 51.25 112.978 51.12 118.12 48.68C120.588 47.51 123.015 45.48 125.823 43.54C130.356 40.39 134.239 37.24 138.266 31.84" stroke="#00CCCC" stroke-width="0.2159" stroke-miterlimit="10"/>
<path d="M-41.1185 40.8C-26.5484 31.49 -14.1674 25.21 -4.24408 20.09C14.1467 10.54 23.182 8.7 29.7287 11.35C38.8777 15.06 41.0255 28.46 53.0554 30.45C58.363 31.33 61.5124 29.23 65.5396 27.7C67.7907 26.84 70.2483 26.14 73.4184 26.17C83.4657 26.26 89.3309 32.24 95.2374 38.42C99.4092 42.79 103.178 46.83 108.135 48.09C111.356 48.91 115.115 48.48 120.33 45.56C122.746 44.21 125.193 42.1 127.961 39.82C132.401 36.15 136.573 31.91 141.003 25.41" stroke="#00CCCC" stroke-width="0.2159" stroke-miterlimit="10"/>
<path d="M-42.337 39.09C-27.3126 28.62 -14.8593 21.47 -4.81203 16.25C14.3016 6.27 24.2456 5.31 30.6374 8.34C39.8793 12.71 41.8309 26.47 53.8711 28.3C59.3646 29.14 62.4831 26.81 66.4896 25.08C68.72 24.13 71.188 23.35 74.451 23.37C84.4054 23.45 90.3016 30.22 96.2597 36.57C100.452 41.03 104.459 45.06 109.797 45.98C113.215 46.56 117.284 45.84 122.54 42.43C124.904 40.9 127.383 38.71 130.109 36.09C134.466 31.91 138.917 26.56 143.749 18.97" stroke="#00CCCC" stroke-width="0.2159" stroke-miterlimit="10"/>
<path d="M-43.5658 37.37C2.18909 2.98 22.0875 0.2 31.5462 5.33C40.85 10.37 42.626 24.47 54.6766 26.14C63.4951 27.36 66.0456 20.51 75.4733 20.58C92.2532 20.7 97.6228 42.51 111.449 43.87C119.194 44.63 130.491 39.08 146.496 12.53" stroke="#00CCCC" stroke-width="0.2159" stroke-miterlimit="10"/>
</g>
<path d="M8.93201 86.09C34.5304 86.09 60.0668 86.09 85.6032 86.09H8.93201Z" fill="white"/>
<path d="M8.93201 86.09C34.5304 86.09 60.0668 86.09 85.6032 86.09" stroke="#333333" stroke-width="0.8244" stroke-miterlimit="10" stroke-linecap="round"/>
<path d="M71.8592 32.09H22.6967V86.09H71.8592V32.09Z" fill="white" stroke="#333333" stroke-width="0.8244" stroke-miterlimit="10" stroke-linecap="round"/>
<path d="M73.9761 32.09H20.5592C19.6299 32.09 18.8657 31.36 18.8657 30.45V23.42C18.8657 22.52 19.6195 21.78 20.5592 21.78H73.9761C74.9054 21.78 75.6695 22.51 75.6695 23.42V30.45C75.6695 31.36 74.9157 32.09 73.9761 32.09Z" fill="white" stroke="#333333" stroke-width="0.8196" stroke-miterlimit="10" stroke-linecap="round"/>
<path d="M53.9435 66.92H39.9826C38.6609 66.92 37.5973 67.95 37.5973 69.23V86.09H56.3288V69.23C56.3185 67.96 55.2549 66.92 53.9435 66.92Z" stroke="#333333" stroke-width="0.8196" stroke-miterlimit="10" stroke-linecap="round"/>
<path d="M35.1189 47.14H28.3657C27.7048 47.14 27.1678 46.62 27.1678 45.98V39.44C27.1678 38.8 27.7048 38.28 28.3657 38.28H35.1189C35.7798 38.28 36.3168 38.8 36.3168 39.44V45.98C36.3168 46.62 35.7798 47.14 35.1189 47.14Z" stroke="#333333" stroke-width="0.8196" stroke-miterlimit="10" stroke-linecap="round"/>
<path d="M33.2293 46.31H28.9852C28.5722 46.31 28.2314 45.98 28.2314 45.58V41.47C28.2314 41.07 28.5722 40.74 28.9852 40.74H33.2293C33.6423 40.74 33.9831 41.07 33.9831 41.47V45.58C33.9831 45.99 33.6423 46.31 33.2293 46.31Z" fill="#00CCCC"/>
<path d="M49.1831 46.31H44.9391C44.5261 46.31 44.1853 45.98 44.1853 45.58V41.47C44.1853 41.07 44.5261 40.74 44.9391 40.74H49.1831C49.5962 40.74 49.9369 41.07 49.9369 41.47V45.58C49.9369 45.99 49.6065 46.31 49.1831 46.31Z" fill="#00CCCC"/>
<path d="M62.5967 46.11H58.3527C57.9396 46.11 57.5989 45.78 57.5989 45.38V41.27C57.5989 40.87 57.9396 40.54 58.3527 40.54H62.5967C63.0097 40.54 63.3505 40.87 63.3505 41.27V45.38C63.3505 45.78 63.0097 46.11 62.5967 46.11Z" fill="#00CCCC"/>
<path d="M33.2293 60.53H28.9852C28.5722 60.53 28.2314 60.2 28.2314 59.8V55.7C28.2314 55.3 28.5722 54.97 28.9852 54.97H33.2293C33.6423 54.97 33.9831 55.3 33.9831 55.7V59.81C33.9831 60.21 33.6423 60.53 33.2293 60.53Z" fill="#00CCCC"/>
<path d="M49.1831 60.53H44.9391C44.5261 60.53 44.1853 60.2 44.1853 59.8V55.7C44.1853 55.3 44.5261 54.97 44.9391 54.97H49.1831C49.5962 54.97 49.9369 55.3 49.9369 55.7V59.81C49.9369 60.21 49.6065 60.53 49.1831 60.53Z" fill="#FFCC00"/>
<path d="M62.5967 60.33H58.3527C57.9396 60.33 57.5989 60 57.5989 59.6V55.49C57.5989 55.09 57.9396 54.76 58.3527 54.76H62.5967C63.0097 54.76 63.3505 55.09 63.3505 55.49V59.6C63.3505 60 63.0097 60.33 62.5967 60.33Z" fill="#FFCC00"/>
<path d="M49.8026 47.14H43.0494C42.3885 47.14 41.8516 46.62 41.8516 45.98V39.44C41.8516 38.8 42.3885 38.28 43.0494 38.28H49.8026C50.4635 38.28 51.0005 38.8 51.0005 39.44V45.98C51.0005 46.62 50.4635 47.14 49.8026 47.14Z" stroke="#333333" stroke-width="0.8196" stroke-miterlimit="10" stroke-linecap="round"/>
<path d="M64.4864 47.14H57.7331C57.0722 47.14 56.5353 46.62 56.5353 45.98V39.44C56.5353 38.8 57.0722 38.28 57.7331 38.28H64.4864C65.1472 38.28 65.6842 38.8 65.6842 39.44V45.98C65.6842 46.62 65.1472 47.14 64.4864 47.14Z" stroke="#333333" stroke-width="0.8196" stroke-miterlimit="10" stroke-linecap="round"/>
<path d="M35.1189 61.56H28.3657C27.7048 61.56 27.1678 61.04 27.1678 60.4V53.86C27.1678 53.22 27.7048 52.7 28.3657 52.7H35.1189C35.7798 52.7 36.3168 53.22 36.3168 53.86V60.4C36.3168 61.04 35.7798 61.56 35.1189 61.56Z" stroke="#333333" stroke-width="0.8196" stroke-miterlimit="10" stroke-linecap="round"/>
<path d="M49.8026 61.56H43.0494C42.3885 61.56 41.8516 61.04 41.8516 60.4V53.86C41.8516 53.22 42.3885 52.7 43.0494 52.7H49.8026C50.4635 52.7 51.0005 53.22 51.0005 53.86V60.4C51.0005 61.04 50.4635 61.56 49.8026 61.56Z" stroke="#333333" stroke-width="0.8196" stroke-miterlimit="10" stroke-linecap="round"/>
<path d="M64.4864 61.56H57.7331C57.0722 61.56 56.5353 61.04 56.5353 60.4V53.86C56.5353 53.22 57.0722 52.7 57.7331 52.7H64.4864C65.1472 52.7 65.6842 53.22 65.6842 53.86V60.4C65.6842 61.04 65.1472 61.56 64.4864 61.56Z" stroke="#333333" stroke-width="0.8196" stroke-miterlimit="10" stroke-linecap="round"/>
<path d="M68.8852 72.91C68.7407 71.84 68.6477 70.3 68.9265 68.48C69.1124 67.26 69.4428 65.15 70.8988 62.88C72.0863 61.03 73.532 59.82 74.6162 59.09C74.7505 59.85 74.9983 60.99 75.5249 62.3C76.9499 65.85 78.8293 66.7 80.3472 69.21C80.626 69.67 83.4553 74.51 81.4521 79.43C81.2352 79.95 79.4695 84.09 74.8227 85.46C70.6613 86.69 66.2934 85.1 63.8668 82.35C62.1526 80.4 61.7396 78.23 61.5537 77.19C61.3678 76.16 60.9548 73.63 62.2559 70.87C62.9581 69.38 63.9184 68.35 64.5689 67.76C64.5793 68.2 64.6928 70 66.1798 71.46C67.1918 72.45 68.3586 72.79 68.8852 72.91Z" fill="white" stroke="#333333" stroke-width="0.6456" stroke-miterlimit="10" stroke-linecap="round"/>
<path d="M76.1135 71.66C75.6282 70.93 74.9776 69.84 74.4097 68.36C73.7488 68.85 72.8918 69.59 72.0657 70.63C71.0641 71.89 70.5581 73.04 70.3619 73.52C69.701 75.14 69.5358 76.61 69.5151 77.64C70.3309 75.18 71.3016 73.76 72.0657 72.9C72.0657 72.9 72.107 72.85 73.7695 71.05C73.8314 71.65 73.9863 72.53 74.4097 73.52C74.6265 74.05 74.8537 74.44 75.0499 74.76C76.5679 77.28 77.4456 77.73 77.8173 78.88C78.0548 79.63 78.1374 80.81 77.1771 82.58C77.5592 82.12 78.0651 81.44 78.5092 80.56C78.8706 79.84 79.2217 79.15 79.3043 78.27C79.4385 76.97 78.9429 75.96 78.4575 74.97C77.7141 73.47 77.1564 73.22 76.1135 71.66Z" fill="#00CCCC"/>
<path d="M70.3723 75.37C70.331 75.34 70.2071 75.51 69.9489 75.58C69.7734 75.62 69.6391 75.6 69.5255 75.58C67.8114 75.27 67.1815 74.96 67.1815 74.96C66.3967 74.58 65.8391 74.1 65.4777 73.72C65.106 74.45 64.3522 76.2 64.631 78.46C64.8272 80.1 65.4777 81.3 65.9114 81.96C65.9114 78.93 67.0266 77.57 67.6152 77.01C68.0489 76.59 68.8543 76.01 69.1022 76.19C69.288 76.32 69.0299 76.76 69.1022 77.43C69.1435 77.78 69.2777 78.28 69.7114 78.87C69.4636 77.64 69.6908 76.88 69.9592 76.4C70.1244 76.08 70.4549 75.43 70.3723 75.37Z" fill="#00CCCC"/>
<path d="M70.5375 79.93C70.4755 79.44 70.4342 78.73 70.5581 77.9C70.6407 77.34 70.7956 76.37 71.4668 75.33C72.0141 74.48 72.675 73.93 73.1706 73.59C73.2326 73.94 73.3462 74.46 73.5837 75.06C74.2342 76.69 75.1016 77.08 75.7934 78.23C75.9174 78.44 77.2184 80.66 76.2994 82.92C76.2065 83.16 75.3907 85.06 73.2532 85.69C71.3429 86.25 69.3396 85.52 68.2244 84.26C67.4396 83.37 67.2434 82.37 67.1608 81.89C67.0782 81.42 66.882 80.25 67.4809 78.99C67.801 78.3 68.2451 77.84 68.5445 77.56C68.5549 77.76 68.6065 78.59 69.2777 79.26C69.763 79.72 70.2896 79.87 70.5375 79.93Z" fill="white" stroke="#333333" stroke-width="0.6456" stroke-miterlimit="10" stroke-linecap="round"/>
<path d="M71.4875 82.03C71.4049 81.4 71.4565 80.88 71.5185 80.53C71.5908 80.14 71.6734 79.62 72.0348 79.05C72.3446 78.56 72.7266 78.24 73.0157 78.05C73.0467 78.25 73.119 78.55 73.2533 78.9C73.6353 79.84 74.131 80.06 74.5234 80.73C74.5956 80.85 75.3391 82.13 74.8125 83.43C74.7609 83.57 74.2859 84.66 73.0571 85.02C71.5391 85.47 70.3 84.33 70.1657 84.2C70.0418 84.08 69.5462 83.6 69.319 82.79C69.1022 82.01 69.2364 81.37 69.319 81.08C69.6701 81.27 70.0625 81.46 70.4962 81.65C70.8473 81.8 71.1777 81.92 71.4875 82.03Z" fill="#FFCC00"/>
<path d="M39.8277 85.57L39.5696 82.31L42.8842 79.82L39.7038 77.76L40.9016 73.9L36.7609 74.84L34.169 70.96L32.6924 76.01L28.0457 75.54L32.0315 80.15L28.4071 82.38L35.0984 85.65" fill="white"/>
<path d="M39.8277 85.57L39.5696 82.31L42.8842 79.82L39.7038 77.76L40.9016 73.9L36.7609 74.84L34.169 70.96L32.6924 76.01L28.0457 75.54L32.0315 80.15L28.4071 82.38L35.0984 85.65" stroke="#333333" stroke-width="0.6456" stroke-miterlimit="10" stroke-linecap="round"/>
</g>
<defs>
<clipPath id="clip0_6_185">
<rect width="95" height="92" fill="white"/>
</clipPath>
</defs>
</svg>
