<svg width="94" height="94" viewBox="0 0 94 94" fill="none" xmlns="http://www.w3.org/2000/svg">
<g clip-path="url(#clip0_7_344)">
<g opacity="0.9">
<path d="M-12.8433 72.7887C-10.6874 73.4017 -6.83544 74.1987 -2.47261 73.177C11.5763 69.887 12.7513 51.1585 22.7848 50.4841C33.9933 49.728 40.5835 70.7043 52.5991 68.5689C61.3044 67.0261 61.8561 63.0413 72.5435 62.7041C85.3867 62.3056 89.5248 70.9598 99.6809 70.4591C105.484 70.173 113.393 66.8933 122.486 53.58" stroke="#00CCCC" stroke-width="0.2121" stroke-miterlimit="10"/>
<path d="M-16.123 69.5702C-13.773 69.7643 -9.96196 70.1935 -5.74218 68.9674C8.63369 64.8089 11.1676 47.6335 21.1091 46.6117C27.3622 45.968 32.0928 50.5659 36.6702 55.2352C41.2783 59.9454 45.825 64.9724 51.9963 64.3593C53.3654 64.2265 54.5609 63.9915 55.6746 63.7156C61.6722 62.2546 63.5522 58.9748 72.523 58.8317C85.5196 58.6478 89.5554 68.3952 99.7933 68.0887C105.597 67.9048 113.587 64.5228 123.017 50.2287" stroke="#00CCCC" stroke-width="0.2121" stroke-miterlimit="10"/>
<path d="M-19.413 66.362C-16.8791 66.1372 -13.0986 66.178 -9.01166 64.768C5.70138 59.7104 9.59421 44.0778 19.4233 42.7394C26.2792 41.8096 31.2755 45.8965 35.8427 50.3207C40.5427 54.8878 45.0077 60.3133 51.3833 60.16C52.7423 60.1294 53.9786 59.9659 55.1536 59.7717C61.6007 58.6785 63.5523 54.9798 72.4823 54.9798C85.632 55.0104 89.5555 65.8409 99.8751 65.7285C105.679 65.657 113.75 62.1728 123.518 46.8774" stroke="#00CCCC" stroke-width="0.2121" stroke-miterlimit="10"/>
<path d="M-22.6927 63.1537C-19.9647 62.51 -16.2251 62.1524 -12.2812 60.5789C2.75877 54.5711 8.01051 40.4813 17.7579 38.8772C25.2166 37.6511 30.4786 41.2272 35.0253 45.4163C39.8275 49.8404 44.1801 55.6439 50.7907 55.9709C52.1394 56.0424 53.4166 55.9607 54.6529 55.8278C61.5496 55.1024 63.5727 50.995 72.4618 51.1278C85.7649 51.3833 89.5862 63.2967 99.9875 63.3683C105.791 63.3989 113.934 59.8126 124.049 43.5261" stroke="#00CCCC" stroke-width="0.2121" stroke-miterlimit="10"/>
<path d="M-25.9725 59.9352C-23.0606 58.8726 -19.3517 58.0961 -15.5406 56.3693C-0.194056 49.3909 6.43703 36.8643 16.0822 35.015C24.1438 33.4722 29.6714 36.5578 34.2079 40.512C39.1122 44.793 43.3627 50.9541 50.1879 51.7817C51.5366 51.9452 52.8342 51.9554 54.142 51.8941C61.4883 51.5467 63.5829 46.9898 72.4312 47.2861C85.8875 47.7254 89.5964 60.7628 100.079 61.0285C105.873 61.1613 114.108 57.483 124.56 40.1952" stroke="#00CCCC" stroke-width="0.2121" stroke-miterlimit="10"/>
<path d="M-29.2523 56.727C-26.1462 55.2454 -22.4884 54.05 -18.8101 52.17C-3.16732 44.18 4.85333 33.227 14.4066 31.1528C23.0709 29.2728 28.8744 31.8885 33.3905 35.6076C38.397 39.7457 42.5453 46.2439 49.5851 47.5926C50.9235 47.848 52.262 47.94 53.6312 47.9502C61.427 47.9809 63.5931 43.0254 72.4005 43.4341C86.0101 44.1187 89.6168 58.2085 100.171 58.6683C105.965 58.9033 114.282 55.1228 125.071 36.8439" stroke="#00CCCC" stroke-width="0.2121" stroke-miterlimit="10"/>
<path d="M-32.5321 53.5187C-29.2421 51.6285 -25.6251 49.9937 -22.0695 47.9707C-6.16102 38.9283 3.25942 29.5691 12.7309 27.2804C21.9879 25.0428 28.0775 27.1987 32.5629 30.693C37.6716 34.6778 41.7279 41.5133 48.972 43.383C50.3003 43.7304 51.6796 43.9143 53.1203 43.9859C61.3657 44.4048 63.6033 39.01 72.3698 39.5617C86.1327 40.4711 89.627 55.6439 100.274 56.2876C106.067 56.635 114.466 52.7524 125.582 33.4722" stroke="#00CCCC" stroke-width="0.2121" stroke-miterlimit="10"/>
<path d="M-35.8119 50.3104C-32.3278 48.0013 -28.7721 45.9374 -25.3391 43.7713C-9.18537 33.6357 1.6655 25.9011 11.0553 23.4183C20.9048 20.8128 27.2805 22.5191 31.7455 25.7887C36.9666 29.6202 40.9207 36.7724 48.3794 39.1939C49.7077 39.6231 51.1075 39.9091 52.6196 40.0522C61.3146 40.8696 63.6238 35.0252 72.3494 35.72C86.2655 36.8439 89.6577 53.11 100.376 53.9478C106.169 54.3974 114.639 50.4126 126.103 30.1515" stroke="#00CCCC" stroke-width="0.2121" stroke-miterlimit="10"/>
<path d="M-39.1019 47.092C2.83025 15.888 21.7222 14.5496 30.9281 20.8844C37.1913 25.1859 41.4316 34.7187 52.1087 36.1083C61.2533 37.3037 63.6339 31.0404 72.3187 31.868C86.3881 33.2065 89.6679 50.5557 100.478 51.5876C106.271 52.1394 114.823 48.0626 126.624 26.8002" stroke="#00CCCC" stroke-width="0.2121" stroke-miterlimit="10"/>
</g>
<path d="M16.7667 77.7748C38.9895 77.7748 61.4576 77.7748 83.7315 77.7748H16.7667Z" fill="white"/>
<path d="M16.7667 77.7748C38.9895 77.7748 61.4576 77.7748 83.7315 77.7748" stroke="#333333" stroke-width="0.8244" stroke-miterlimit="10" stroke-linecap="round"/>
<path d="M65.1972 40.7163C67.8719 40.7163 70.0402 38.548 70.0402 35.8733C70.0402 33.1985 67.8719 31.0302 65.1972 31.0302C62.5224 31.0302 60.3541 33.1985 60.3541 35.8733C60.3541 38.548 62.5224 40.7163 65.1972 40.7163Z" fill="white" stroke="#333333" stroke-width="0.8244" stroke-miterlimit="10" stroke-linecap="round"/>
<path d="M37.3957 54.9287C39.2861 54.9287 40.8186 53.3962 40.8186 51.5059C40.8186 49.6155 39.2861 48.083 37.3957 48.083C35.5054 48.083 33.9729 49.6155 33.9729 51.5059C33.9729 53.3962 35.5054 54.9287 37.3957 54.9287Z" fill="white" stroke="#333333" stroke-width="0.8244" stroke-miterlimit="10" stroke-linecap="round"/>
<path d="M47.7152 40.9309H68.4361C70.1526 40.9309 71.818 41.595 73.0135 42.8313C73.0748 42.8926 73.1361 42.9641 73.1974 43.0357C73.2076 43.0459 73.2178 43.0561 73.228 43.0663C74.1885 44.1596 74.6891 45.5798 74.6891 47.0307V57.5648H71.7976V49.5646V75.0263C71.7976 75.7415 71.5422 76.4465 71.0313 76.9574C70.5919 77.3967 70.03 77.693 69.417 77.785C68.528 77.9076 67.6391 77.5807 66.9852 76.937C66.4641 76.4261 66.2087 75.7109 66.2087 74.9854V61.7539C66.2087 61.57 66.1678 61.3861 66.0759 61.2328C65.8919 60.9263 65.565 60.7322 65.2074 60.722C64.9519 60.7117 64.7169 60.8037 64.533 60.9467C64.2878 61.1511 64.155 61.4576 64.155 61.7846V75.0263C64.155 76.0378 63.6339 76.9983 62.745 77.4683C62.4078 77.6522 62.0298 77.7544 61.6313 77.7748C61.1102 77.8054 60.6096 77.6828 60.1702 77.4376C59.3017 76.9574 58.7909 76.0072 58.7909 75.0161V46.6117L47.7152 44.8237V40.9309Z" fill="white" stroke="#333333" stroke-width="0.8244" stroke-miterlimit="10" stroke-linecap="round"/>
<path d="M62.459 41.3498L63.8792 43.1378H66.924L68.5894 41.1352" stroke="#333333" stroke-width="0.8244" stroke-miterlimit="10" stroke-linecap="round"/>
<path d="M64.8089 48.2976L64.012 53.723L65.1972 55.2965L66.3722 53.723L65.565 48.2976H64.8089Z" fill="#FFCC00"/>
<path d="M65.4936 44.507L65.8001 43.8428L64.6149 43.8837L64.8907 44.507H65.4936Z" fill="#FFCC00"/>
<path d="M63.9303 43.24L64.7987 45.1404L63.5114 53.9887L65.4016 56.5124L67.302 53.9887L65.9737 45.1404L66.924 43.1378" stroke="#333333" stroke-width="0.8244" stroke-miterlimit="10" stroke-linecap="round"/>
<path d="M50.0345 22.6111C49.6872 22.3761 49.0741 22.0287 48.2567 21.8959C48.2261 21.8959 47.8889 21.8346 47.5006 21.8448C45.5695 21.8652 44.1391 23.03 44.1391 23.03C43.9143 23.2139 42.1365 24.7159 42.2182 27.1272C42.2591 28.4044 42.8006 29.3444 43.0867 29.7735C42.7495 29.3852 41.9832 28.6291 40.7674 28.2817C40.6345 28.2409 40.0726 28.1081 39.4187 28.1081C36.4965 28.1081 34.1363 30.4785 34.1363 33.3904C34.1363 33.8094 34.1976 34.2078 34.1976 34.2078C34.3304 34.9639 34.6472 35.5361 34.8719 35.8733C34.4428 35.3726 34.0035 35.0865 33.7072 34.9333C33.3087 34.7187 32.9817 34.6267 32.7569 34.5654C32.5935 34.5144 32.0213 34.3611 31.3061 34.3611C30.9076 34.3611 29.1706 34.3611 27.7095 35.6689C27.5154 35.8426 25.8193 37.4059 26.0237 39.6537C26.085 40.3076 26.2893 40.8185 26.4426 41.1454C25.8806 40.3587 25.1245 39.102 24.6137 37.4263C24.6137 37.4263 24.0415 35.4441 24.0415 33.2781C24.0415 24.8998 30.8361 18.1052 39.2143 18.1052C41.2374 18.1052 43.148 18.6161 43.4954 18.7183C46.8059 19.6787 48.9719 21.5587 50.0345 22.6111Z" fill="white" stroke="#333333" stroke-width="0.8244" stroke-miterlimit="10" stroke-linecap="round"/>
<path d="M37.8248 20.0772C36.7622 20.1487 33.7889 20.3837 30.9791 22.4374C25.9011 26.1463 25.6661 32.6139 25.615 33.9728C25.5843 34.923 25.6354 35.72 25.6967 36.2717C25.7887 35.8324 26.0952 34.7187 27.0863 33.7685C28.0672 32.8387 29.1502 32.6037 29.61 32.5015C30.9587 32.2257 32.0622 32.5322 32.5628 32.7161C32.5526 30.1107 34.0035 27.8424 36.1389 27.0352C38.0904 26.2894 39.8989 27.0454 40.3485 27.2498C40.2463 26.8411 40.0113 25.6457 40.563 24.297C41.0535 23.1015 41.8913 22.4374 42.2489 22.1922C43.1991 21.528 44.1289 21.385 44.5683 21.3544C43.4035 20.8128 40.982 19.8728 37.8248 20.0772Z" fill="#00CCCC"/>
<path d="M28.762 21.763C28.4862 21.058 28.2001 20.3633 27.9242 19.6583C28.2716 19.3824 28.6292 19.0963 28.9766 18.8204C29.6305 19.2802 30.2946 19.7502 30.9485 20.21" fill="#FFCC00"/>
<path d="M28.762 21.763C28.4862 21.058 28.2001 20.3633 27.9242 19.6583C28.2716 19.3824 28.6292 19.0963 28.9766 18.8204C29.6305 19.2802 30.2946 19.7502 30.9485 20.21" stroke="#333333" stroke-width="0.8244" stroke-miterlimit="10" stroke-linecap="round"/>
<path d="M37.6102 30.8259L46.4585 40.512" stroke="#333333" stroke-width="0.8244" stroke-miterlimit="10" stroke-linecap="round"/>
<path d="M48.9822 46.1928C48.9924 47 48.5837 47.7459 47.9298 48.083C47.0511 48.5428 45.8352 48.2159 45.1915 47.2452" stroke="#333333" stroke-width="0.8244" stroke-miterlimit="10" stroke-linecap="round"/>
<path d="M41.4008 66.832H43.9552V58.9033C43.9552 56.7065 42.1774 54.9389 39.9908 54.9389H34.5961C32.3993 54.9389 30.6317 56.7167 30.6317 58.9033V66.832H33.5335" fill="white"/>
<path d="M41.4008 66.832H43.9552V58.9033C43.9552 56.7065 42.1774 54.9389 39.9908 54.9389H34.5961C32.3993 54.9389 30.6317 56.7167 30.6317 58.9033V66.832H33.5335" stroke="#333333" stroke-width="0.8244" stroke-miterlimit="10" stroke-linecap="round"/>
<path d="M41.4009 62.1933V77.3559H37.3957V69.1615V77.3559H33.5233V62.1933" stroke="#333333" stroke-width="0.8244" stroke-miterlimit="10" stroke-linecap="round"/>
</g>
<defs>
<clipPath id="clip0_7_344">
<rect width="94" height="94" fill="white"/>
</clipPath>
</defs>
</svg>
