<svg width="96" height="96" viewBox="0 0 96 96" fill="none" xmlns="http://www.w3.org/2000/svg">
<g clip-path="url(#clip0_7_411)">
<g opacity="0.9">
<path d="M-29.9896 75.2452C-22.2261 79.5757 -10.9461 84.1461 -0.594842 80.2957C14.1495 74.8174 18.866 55.2731 23.9999 56.64C29.7286 58.1635 24.4695 82.6435 32.5982 86.0974C40.8521 89.6139 54.2504 67.8157 65.2904 72.1148C70.393 74.1078 70.2052 79.8157 76.0382 81.1513C83.4156 82.8417 87.8086 74.64 92.8069 76.6331C97.1582 78.3757 96.7408 85.7531 99.9756 99.4331C101.927 107.687 104.254 114.209 105.882 118.362" stroke="#00CCCC" stroke-width="0.2159" stroke-miterlimit="10"/>
<path d="M-28.9983 73.5757C-21.2244 76.8209 -10.2261 80.6087 -0.250464 76.5391C9.39127 72.6157 14.8591 63.7043 18.9182 58.3722C21.1721 55.4191 22.9669 53.4991 24.793 54.1148C29.0087 55.5444 27.7148 68.4835 30.1148 76.5287C31.0121 79.5339 32.3165 81.8713 34.5704 82.6748C40.9461 84.96 49.8678 73.5652 58.7061 69.8713C61.7008 68.6087 64.6017 68.2122 67.3356 69.3913C72.2713 71.52 72.24 77.1339 77.7913 78.72C82.6956 80.1183 86.2747 77.1339 89.76 75.6626C91.2834 75.0157 92.7652 74.6817 94.32 75.2243C98.6921 76.7478 98.8487 83.2696 102.334 95.2487C104.463 102.574 106.831 108.261 108.647 111.631" stroke="#00CCCC" stroke-width="0.2159" stroke-miterlimit="10"/>
<path d="M-27.9966 71.9061C-20.2122 74.0765 -9.50615 77.0504 0.114723 72.7826C9.91298 68.4522 15.5165 59.9896 19.6695 55.1791C21.9652 52.5183 23.7808 50.8696 25.5965 51.6104C29.8747 53.353 28.9147 66 31.7947 73.607C32.8591 76.4243 34.2678 78.5948 36.5425 79.2626C43.1373 81.2139 51.9443 69.9026 60.8556 66.6991C63.8608 65.6035 66.7199 65.3948 69.3912 66.6678C74.1704 68.9426 74.2956 74.4626 79.5547 76.2887C84.2608 77.9165 87.746 75.527 91.273 74.2226C92.786 73.6696 94.2782 73.3461 95.8539 73.8156C100.247 75.12 100.977 80.7652 104.703 91.0748C107.009 97.4713 109.419 102.323 111.433 104.911" stroke="#00CCCC" stroke-width="0.2159" stroke-miterlimit="10"/>
<path d="M-26.9949 70.2365C-19.2105 71.3218 -8.79661 73.4713 0.469476 69.0365C10.4243 64.2678 16.1634 56.2644 20.4103 51.9757C22.7477 49.607 24.5843 48.2296 26.3999 49.0957C30.7408 51.1618 30.1043 63.4957 33.4747 70.6852C34.7164 73.3252 36.2086 75.3078 38.5147 75.8609C45.339 77.4678 54.0208 66.2713 62.9947 63.5478C66.0208 62.6296 68.8277 62.5983 71.4364 63.9652C76.0486 66.3757 76.3303 71.8122 81.3077 73.8783C85.8051 75.7461 89.1964 73.9304 92.7651 72.8035C94.2677 72.3339 95.7599 72.0209 97.3564 72.4174C101.77 73.5026 103.075 78.24 107.05 86.9113C109.544 92.3583 111.996 96.3965 114.198 98.2018" stroke="#00CCCC" stroke-width="0.2159" stroke-miterlimit="10"/>
<path d="M-25.993 68.5774C-18.1983 68.5774 -8.08695 69.8817 0.82435 65.2904C10.9357 60.0731 16.8 52.5496 21.1513 48.7722C23.5409 46.7061 25.3878 45.5896 27.193 46.5704C31.5861 48.9704 31.273 60.9809 35.1548 67.7531C36.5635 70.2052 38.16 72.0209 40.487 72.4383C47.5409 73.7009 56.1078 62.5983 65.1443 60.3757C68.1809 59.6244 70.9461 59.7809 73.4922 61.2313C77.9374 63.767 78.3861 69.1409 83.0713 71.4365C87.3704 73.5444 90.647 72.3026 94.2783 71.353C95.7704 70.967 97.273 70.6748 98.8904 70.9983C103.315 71.8748 105.193 75.6522 109.43 82.727C112.111 87.2035 114.595 90.4487 116.995 91.4713" stroke="#00CCCC" stroke-width="0.2159" stroke-miterlimit="10"/>
<path d="M-25.0018 66.9078C-17.207 65.8226 -7.38792 66.2713 1.17904 61.5339C11.4364 55.8574 17.4364 48.8244 21.8921 45.5687C24.3234 43.7948 26.1912 42.9496 27.986 44.0557C32.4312 46.7896 32.4416 58.4765 36.8243 64.8209C38.3999 67.0957 40.1008 68.7235 42.4486 69.0157C49.7321 69.913 58.1634 58.9252 67.273 57.2035C70.3199 56.6296 73.0329 56.9531 75.5269 58.5078C79.8156 61.1791 80.4103 66.4904 84.8243 69.0052C88.9251 71.353 92.0973 70.6748 95.7808 69.913C97.2625 69.6 98.7756 69.3391 100.403 69.5896C104.849 70.2574 107.259 73.0226 111.777 78.553C114.626 82.0278 117.162 84.5113 119.749 84.7513" stroke="#00CCCC" stroke-width="0.2159" stroke-miterlimit="10"/>
<path d="M-24 65.2383C-16.1948 63.0783 -6.6887 62.64 1.53391 57.7774C11.9374 51.6313 18.073 45.0991 22.633 42.3652C25.0957 40.8835 26.9948 40.32 28.7896 41.5409C33.2974 44.6087 33.6 55.9826 38.5043 61.8991C40.2365 63.9861 42.0522 65.4365 44.4209 65.6035C51.9443 66.1357 60.24 55.2626 69.4226 54.0417C72.48 53.6348 75.1513 54.1461 77.5826 55.7843C81.7043 58.5809 82.4661 63.84 86.5878 66.5843C90.4904 69.1826 93.5478 69.0678 97.2835 68.4835C98.7548 68.2539 100.268 68.0139 101.927 68.1809C106.383 68.6296 109.252 70.3409 114.146 74.3791C117.11 76.8313 119.76 78.5739 122.536 78.0313" stroke="#00CCCC" stroke-width="0.2159" stroke-miterlimit="10"/>
<path d="M-22.9983 63.5791C-15.1931 60.3339 -6.00003 58.9983 1.88867 54.0313C12.4278 47.3948 18.6991 41.3739 23.3634 39.1722C25.8678 37.9826 27.7878 37.6904 29.5721 39.0261C34.1321 42.4383 34.7374 53.4783 40.1739 58.967C42.0626 60.8765 43.993 62.2435 46.3826 62.1809C54.1461 61.9722 62.3061 51.5896 71.5513 50.8696C74.6295 50.6296 77.2487 51.3183 79.6174 53.0609C83.5826 55.9826 84.4904 61.1896 88.3304 64.1531C92.0243 67.0017 94.9774 67.4296 98.7756 67.0435C100.236 66.8974 101.76 66.6783 103.43 66.7722C107.906 67.0122 111.099 67.6278 116.494 70.2052C119.499 71.6452 122.327 72.6365 125.301 71.3113" stroke="#00CCCC" stroke-width="0.2159" stroke-miterlimit="10"/>
<path d="M-21.9966 61.9096C-14.1809 57.5791 -5.3218 55.3461 2.25385 50.2748C12.9182 43.127 19.3356 37.6383 24.1147 35.9583C26.6608 35.0609 28.6017 35.0504 30.386 36.5009C34.9878 40.247 35.8956 50.9844 41.8643 56.0348C43.9095 57.767 45.9547 58.8313 48.3652 58.7583C56.3686 58.5391 64.393 47.9165 73.7112 47.687C76.7999 47.6139 79.3878 48.48 81.6834 50.327C85.4817 53.3739 86.546 58.5391 90.1043 61.7113C93.5895 64.8209 96.4382 65.7913 100.299 65.5931C101.739 65.52 103.273 65.3009 104.963 65.3531C109.45 65.4678 112.758 66.1044 118.863 66.0209C121.701 67.0331 124.915 66.6887 128.087 64.5809" stroke="#00CCCC" stroke-width="0.2159" stroke-miterlimit="10"/>
<path d="M-20.9949 60.24C-13.1688 54.8244 -4.64357 51.6835 2.60861 46.5183C13.3877 38.8487 19.9617 33.9026 24.8556 32.7548C27.433 32.1496 29.4051 32.4104 31.179 33.9757C35.833 38.0661 37.033 48.4904 43.5443 53.1026C45.746 54.6574 47.906 55.5235 50.3373 55.3357C58.5808 54.72 66.4695 44.2435 75.8503 44.5148C78.9495 44.6087 81.4956 45.6522 83.7182 47.5931C87.3599 50.7652 88.5599 55.8887 91.8469 59.2696C95.1234 62.6504 97.8677 64.3304 101.781 64.1426C103.21 64.0696 104.755 63.9861 106.466 63.9235C110.974 63.7565 114.626 60.5426 121.21 61.8261C124.101 62.3896 127.482 60.7409 130.842 57.8504" stroke="#00CCCC" stroke-width="0.2159" stroke-miterlimit="10"/>
<path d="M-20.0035 58.5704C-12.1775 52.08 -3.98615 48 2.95298 42.7617C13.8365 34.5496 20.5773 30.1565 25.586 29.5513C28.2052 29.2278 30.1982 29.7809 31.9721 31.4609C36.6678 35.9061 38.1599 46.0174 45.2139 50.1704C47.5721 51.5583 49.8469 52.2157 52.3095 51.913C60.7825 50.9009 68.546 40.56 77.9999 41.3426C81.1095 41.6035 83.6138 42.8244 85.7738 44.8696C89.2695 48.167 90.5947 53.2591 93.6104 56.8383C96.6678 60.48 99.3182 62.4939 103.294 62.7026C104.713 62.7757 106.257 62.6609 107.989 62.5148C112.508 62.1391 116.41 60.3965 123.569 57.6522C126.522 56.5252 130.07 54.8035 133.617 51.1304" stroke="#00CCCC" stroke-width="0.2159" stroke-miterlimit="10"/>
<path d="M-19.0018 56.9113C-11.1653 49.3357 -3.32879 44.327 3.31817 39.0157C14.2851 30.2504 21.2138 26.4209 26.3373 26.3583C28.9877 26.327 31.0016 27.1617 32.7756 28.9565C37.5129 33.7461 39.3077 43.5652 46.8938 47.2591C49.3982 48.48 51.7877 48.9183 54.2816 48.5217C62.9843 47.1026 70.6225 36.9183 80.139 38.2017C83.2695 38.6191 85.7321 40.0278 87.819 42.1774C91.1582 45.5896 92.619 50.6609 95.3634 54.4383C98.2016 58.3513 100.758 60.8765 104.796 61.2939C106.205 61.44 107.76 61.3565 109.513 61.1374C114.052 60.5635 118.414 58.2365 125.937 53.5096C128.984 51.6 132.657 48.8974 136.403 44.4417" stroke="#00CCCC" stroke-width="0.2159" stroke-miterlimit="10"/>
<path d="M-18 55.2417C-10.1635 46.5809 -2.68174 40.6435 3.67304 35.2591C14.7026 25.92 21.8504 22.6748 27.0783 23.1444C29.7704 23.3948 31.8052 24.5217 33.5791 26.4209C38.3583 31.5548 40.4452 41.0922 48.5843 44.3165C51.2452 45.3704 53.7496 45.6 56.2643 45.0887C65.1965 43.2522 72.7096 33.2035 82.2991 35.0191C85.44 35.6035 87.8609 37.1896 89.8852 39.433C93.0678 42.9704 94.6539 48.0104 97.1374 51.9861C99.7461 56.1704 102.23 59.1965 106.31 59.8331C107.708 60.0522 109.263 60 111.037 59.6974C115.586 58.9252 120.511 55.9722 128.306 49.3044C131.489 46.5809 135.245 42.9287 139.179 37.6904" stroke="#00CCCC" stroke-width="0.2159" stroke-miterlimit="10"/>
<path d="M-16.9983 53.5722C-9.16177 43.8365 -2.04525 36.9496 4.0278 31.513C15.0991 21.5896 22.4869 18.9287 27.8191 19.9513C30.553 20.473 32.5982 21.8922 34.3721 23.9165C39.193 29.4052 41.5826 38.6609 50.2539 41.3948C53.0713 42.2817 55.68 42.3026 58.2261 41.6765C67.3774 39.4226 74.7756 29.5409 84.4278 31.8574C87.5791 32.6087 89.9687 34.3722 91.92 36.72C94.9565 40.3722 96.6469 45.3809 98.88 49.5757C101.249 54.0313 103.67 57.5583 107.802 58.4139C109.19 58.6957 110.755 58.6957 112.55 58.3096C117.12 57.3391 122.63 53.7078 130.654 45.1513C133.993 41.593 137.823 37.0122 141.944 30.9913" stroke="#00CCCC" stroke-width="0.2159" stroke-miterlimit="10"/>
<path d="M-16.007 51.913C6.86609 20.3687 20.2748 14.3478 28.56 16.7478C38.9217 19.753 39.3704 35.3948 51.9339 38.4626C65.76 41.8435 74.1913 25.0957 86.5774 28.6748C99.8609 32.5148 98.713 54.24 109.315 56.9531C115.659 58.5809 126.198 53.4052 144.73 24.2504" stroke="#00CCCC" stroke-width="0.2159" stroke-miterlimit="10"/>
</g>
<path d="M66 60.6261L70.08 59.7809L73.7322 63.433L75.84 59.2174L80.9113 60.0626L79.0748 55.1374L83.5826 51.3391L76.967 50.3583L76.8313 44.5878L71.6244 50.2226L68.2539 46.1426L65.1548 54.8557" fill="white"/>
<path d="M66 60.6261L70.08 59.7809L73.7322 63.433L75.84 59.2174L80.9113 60.0626L79.0748 55.1374L83.5826 51.3391L76.967 50.3583L76.8313 44.5878L71.6244 50.2226L68.2539 46.1426L65.1548 54.8557" stroke="#333333" stroke-width="0.8244" stroke-miterlimit="10" stroke-linecap="round"/>
<path d="M61.346 27.0678H43.8468C42.6781 27.0678 41.739 28.007 41.739 29.1756V66.8974C41.739 68.0661 42.6781 69.0052 43.8468 69.0052H61.3564C62.5251 69.0052 63.4642 68.0661 63.4642 66.8974V29.1756C63.4538 28.0174 62.5147 27.0678 61.346 27.0678Z" fill="white" stroke="#333333" stroke-width="0.8244" stroke-miterlimit="10" stroke-linecap="round"/>
<path d="M61.5652 34.1322V31.6696C61.5652 30.6783 60.7617 29.8643 59.76 29.8643H45.433C44.4417 29.8643 43.6278 30.6678 43.6278 31.6696V34.1322H61.5652Z" fill="#00CCCC"/>
<path d="M42.7721 61.6383V65.9061C42.7721 66.8974 43.5756 67.7113 44.5773 67.7113H58.9043C59.8956 67.7113 60.7095 66.9078 60.7095 65.9061V61.6383H42.7721Z" fill="#00CCCC"/>
<path d="M63.4538 35.4574H41.739V59.3322H63.4538V35.4574Z" fill="white" stroke="#333333" stroke-width="0.8244" stroke-miterlimit="10" stroke-linecap="round"/>
<path d="M59.5825 45.1304H55.3878V40.9461H50.4417V45.1304H46.2573V50.0765H50.4417V54.2713H55.3878V50.0765H59.5825V45.1304Z" fill="white" stroke="#333333" stroke-width="0.8244" stroke-miterlimit="10" stroke-linecap="round"/>
<path d="M56.1495 46.8313H53.9165V44.5983H51.2765V46.8313H49.0435V49.4609H51.2765V51.6939H53.9165V49.4609H56.1495V46.8313Z" fill="#FFCC00"/>
<path d="M28.393 41.8539C26.9322 42.8765 24.9183 42.5217 23.8957 41.0609L20.7443 36.5635L17.7183 32.2539C16.6957 30.7931 17.0504 28.7791 18.5113 27.7565C19.9722 26.7339 21.9861 27.0887 23.0087 28.5496L29.1757 37.3565C30.2087 38.8278 29.8539 40.8313 28.393 41.8539Z" fill="white" stroke="#333333" stroke-width="0.8244" stroke-miterlimit="10" stroke-linecap="round"/>
<path d="M25.6277 34.5287L27.6625 37.4296C28.3199 38.3687 28.0904 39.6626 27.1512 40.3304C26.2121 40.9878 24.9182 40.7583 24.2504 39.8191L22.2156 36.9183" fill="#FFCC00"/>
<path d="M20.7547 36.5739L17.7286 32.2644C16.706 30.8035 17.0608 28.7896 18.5217 27.767C19.9826 26.7444 21.9965 27.0991 23.0191 28.56L26.0452 32.8696" fill="white"/>
<path d="M20.7547 36.5739L17.7286 32.2644C16.706 30.8035 17.0608 28.7896 18.5217 27.767C19.9826 26.7444 21.9965 27.0991 23.0191 28.56L26.0452 32.8696" stroke="#333333" stroke-width="0.8244" stroke-miterlimit="10" stroke-linecap="round"/>
<path d="M26.0347 32.8696L29.186 37.367" stroke="#333333" stroke-width="0.8244" stroke-miterlimit="10" stroke-linecap="round"/>
<path d="M21.047 35.2278L19.1061 32.4522C18.4487 31.513 18.6783 30.2191 19.6174 29.5617C20.5565 28.9043 21.8504 29.1339 22.5078 30.073L24.4487 32.8487" fill="#00CCCC"/>
<path d="M20.7548 36.5739L26.0348 32.8696" stroke="#333333" stroke-width="0.8244" stroke-miterlimit="10" stroke-linecap="round"/>
<path d="M16.8417 64.2678C15.8191 62.807 16.1738 60.793 17.6347 59.7704L22.1321 56.6191L26.4417 53.593C27.9025 52.5704 29.9165 52.9252 30.9391 54.3861C31.9617 55.847 31.6069 57.8609 30.146 58.8835L21.3391 65.0504C19.8782 66.073 17.8643 65.7183 16.8417 64.2678Z" fill="white" stroke="#333333" stroke-width="0.8244" stroke-miterlimit="10" stroke-linecap="round"/>
<path d="M23.5513 61.6487L20.6713 63.6626C19.7321 64.32 18.4487 64.0904 17.7913 63.1513C17.1339 62.2122 17.3634 60.9287 18.3026 60.2713L21.1826 58.2574" fill="#FFCC00"/>
<path d="M22.1217 56.6191L26.4313 53.593C27.8921 52.5704 29.9061 52.9252 30.9287 54.3861C31.9513 55.847 31.5965 57.8609 30.1356 58.8835L25.8261 61.9096" fill="white"/>
<path d="M22.1217 56.6191L26.4313 53.593C27.8921 52.5704 29.9061 52.9252 30.9287 54.3861C31.9513 55.847 31.5965 57.8609 30.1356 58.8835L25.8261 61.9096" stroke="#333333" stroke-width="0.8244" stroke-miterlimit="10" stroke-linecap="round"/>
<path d="M25.8261 61.9096L21.3391 65.0504" stroke="#333333" stroke-width="0.8244" stroke-miterlimit="10" stroke-linecap="round"/>
<path d="M23.499 56.6817L26.2538 54.7513C27.1825 54.0939 28.466 54.3235 29.1234 55.2522C29.7808 56.1809 29.5512 57.4643 28.6225 58.1217L25.8677 60.0522" fill="#00CCCC"/>
<path d="M22.1217 56.6191L25.8261 61.9096" stroke="#333333" stroke-width="0.8244" stroke-miterlimit="10" stroke-linecap="round"/>
<path d="M63.8608 28.0383H41.5513C40.8834 28.0383 40.3408 27.4957 40.3408 26.8278V19.993C40.3408 19.3252 40.8834 18.7826 41.5513 18.7826H63.8608C64.5286 18.7826 65.0713 19.3252 65.0713 19.993V26.8278C65.0713 27.4957 64.5286 28.0383 63.8608 28.0383Z" fill="white" stroke="#333333" stroke-width="0.8244" stroke-miterlimit="10" stroke-linecap="round"/>
<path d="M44.4313 18.793V27.7148" stroke="#333333" stroke-width="0.8244" stroke-miterlimit="10" stroke-linecap="round"/>
<path d="M48.5217 18.793V27.7148" stroke="#333333" stroke-width="0.8244" stroke-miterlimit="10" stroke-linecap="round"/>
<path d="M52.6017 18.793V27.7148" stroke="#333333" stroke-width="0.8244" stroke-miterlimit="10" stroke-linecap="round"/>
<path d="M56.6921 18.793V27.7148" stroke="#333333" stroke-width="0.8244" stroke-miterlimit="10" stroke-linecap="round"/>
<path d="M60.7721 18.793V27.7148" stroke="#333333" stroke-width="0.8244" stroke-miterlimit="10" stroke-linecap="round"/>
</g>
<defs>
<clipPath id="clip0_7_411">
<rect width="96" height="96" fill="white"/>
</clipPath>
</defs>
</svg>
