<svg width="95" height="92" viewBox="0 0 95 92" fill="none" xmlns="http://www.w3.org/2000/svg">
<g clip-path="url(#clip0_6_228)">
<g opacity="0.9">
<path d="M-28.1799 55.79C-18.2566 63.56 -5.93754 70.98 2.37496 67.02C11.6168 62.63 8.48801 47.73 16.4184 44.97C28.3141 40.83 41.3559 72.2 63.6603 70.94C74.0587 70.35 83.6103 62.84 87.9163 67.02C90.725 69.75 88.6494 74.89 92.532 77.53C95.3924 79.48 98.0358 77.7 100.979 78.97C103.88 80.23 106.834 84.35 106.844 97.11" stroke="#00CCCC" stroke-width="0.2164" stroke-miterlimit="10"/>
<path d="M-29.4189 54.08C-19.1342 60.7 -6.81514 67.15 1.65225 63.16C11.2762 58.63 9.10769 44.53 17.0381 41.98C20.8484 40.76 24.5762 42.69 28.4588 45.93C32.1039 48.98 35.8523 53.37 40.3957 57.1C45.0631 60.92 49.8544 63.8 55.5957 65.62C58.6729 66.61 61.8533 67.24 65.2093 67.21C75.4838 67.13 84.7773 60.91 89.4343 64.96C89.6821 65.18 89.9093 65.42 90.0952 65.66C92.1191 68.31 91.0968 72.38 94.7213 74.44C97.5919 76.08 100.173 74.38 103.127 75.27C106.111 76.17 109.219 79.46 109.611 90.67" stroke="#00CCCC" stroke-width="0.2164" stroke-miterlimit="10"/>
<path d="M-30.6478 52.36C-20.0223 57.84 -7.68261 63.32 0.929345 59.29C10.9456 54.63 9.72717 41.33 17.6473 38.99C21.7158 37.78 25.5261 39.71 29.3158 42.91C33.0022 46.02 36.5956 50.7 41.387 54.29C46.3228 57.98 51.0418 60.02 57.0206 61.73C60.1908 62.64 63.4125 63.35 66.7478 63.48C76.8984 63.89 85.9234 58.99 90.9315 62.89C91.2 63.1 91.4375 63.32 91.644 63.55C93.8022 66 93.1929 69.63 96.8897 71.34C99.75 72.66 102.301 71.05 105.254 71.57C108.341 72.11 111.584 74.58 112.358 84.23" stroke="#00CCCC" stroke-width="0.2164" stroke-miterlimit="10"/>
<path d="M-31.8766 50.65C-20.8896 54.98 -8.54996 59.49 0.216889 55.43C10.6153 50.63 10.3674 38.16 18.2772 36C22.6142 34.82 26.4865 36.73 30.1832 39.89C33.9006 43.06 37.3495 48.02 42.3783 51.48C47.5723 55.03 52.2191 56.26 58.4457 57.83C61.7191 58.66 64.9615 59.45 68.2968 59.75C78.3234 60.66 87.0799 57.07 92.4392 60.82C92.718 61.02 92.9658 61.22 93.193 61.44C95.475 63.69 95.2685 66.89 99.0685 68.24C101.908 69.25 104.469 68.06 107.391 67.86C110.592 67.64 113.959 69.68 115.115 77.78" stroke="#00CCCC" stroke-width="0.2164" stroke-miterlimit="10"/>
<path d="M-33.1055 48.93C-21.7674 52.12 -9.41742 55.65 -0.506009 51.55C10.2744 46.62 11.0076 34.98 18.8864 33C23.4815 31.84 27.4261 33.74 31.0402 36.86C34.7886 40.09 38.0929 45.34 43.3695 48.66C48.8217 52.08 53.3962 52.49 59.881 53.93C63.2576 54.68 66.5309 55.55 69.8456 56.02C79.738 57.42 88.2157 55.15 93.9467 58.76C94.2359 58.94 94.5043 59.14 94.7522 59.34C97.1478 61.4 97.3337 64.16 101.258 65.16C104.056 65.87 106.699 64.77 109.549 64.17C112.823 63.48 116.354 64.8 117.893 71.35" stroke="#00CCCC" stroke-width="0.2164" stroke-miterlimit="10"/>
<path d="M-34.3446 47.22C-22.6451 49.26 -10.2848 51.83 -1.22885 47.69C9.94398 42.62 11.6478 31.82 19.4956 30.01C24.3592 28.88 28.3657 30.77 31.8869 33.84C35.6663 37.14 38.826 42.66 44.3402 45.86C50.0505 49.15 54.5527 48.74 61.2853 50.05C64.7652 50.73 68.0695 51.66 71.3739 52.3C81.1423 54.18 89.3413 53.25 95.444 56.7C95.7434 56.87 96.0326 57.05 96.2907 57.24C98.7999 59.11 99.3679 61.44 103.426 62.07C106.183 62.49 108.806 60.98 111.677 60.47C115.156 59.86 118.709 59.91 120.629 64.91" stroke="#00CCCC" stroke-width="0.2164" stroke-miterlimit="10"/>
<path d="M-35.5734 45.5C-23.5228 46.4 -11.1522 48 -1.95163 43.82C9.60326 38.62 12.2984 28.67 20.1152 27.02C25.2473 25.93 29.3158 27.8 32.7543 30.82C36.5647 34.18 39.5902 39.99 45.3418 43.05C51.3103 46.2 55.7402 44.98 62.7207 46.15C66.2935 46.75 69.6288 47.76 72.9228 48.57C82.5571 50.93 90.4772 51.34 96.9516 54.63C97.2717 54.79 97.5712 54.96 97.8397 55.13C100.462 56.81 101.505 57.99 105.605 58.97C108.238 59.6 110.974 57.57 113.814 56.76C117.428 55.73 121.084 55.01 123.386 58.46" stroke="#00CCCC" stroke-width="0.2164" stroke-miterlimit="10"/>
<path d="M-36.8021 43.79C-24.4005 43.54 -12.0195 44.17 -2.66409 39.96C9.27287 34.62 12.949 25.54 20.7348 24.03C26.1354 22.98 30.2658 24.82 33.6115 27.8C37.4528 31.23 40.3337 37.31 46.3229 40.24C52.5495 43.26 56.9071 41.22 64.1457 42.26C67.8218 42.79 71.1881 43.86 74.4718 44.84C83.9821 47.68 91.6131 49.44 98.4593 52.57C98.7897 52.72 99.0995 52.87 99.3989 53.03C102.125 54.53 103.467 55.28 107.784 55.88C110.407 56.25 113.143 54.17 115.952 53.06C119.69 51.59 123.459 50.12 126.144 52.02" stroke="#00CCCC" stroke-width="0.2164" stroke-miterlimit="10"/>
<path d="M-38.0413 42.07C-25.2782 40.67 -12.8972 40.33 -3.39724 36.09C8.93211 30.61 13.5892 22.4 21.3544 21.03C27.0234 20.03 31.2158 21.84 34.4788 24.78C38.3511 28.27 41.0875 34.63 47.3245 37.43C53.8093 40.32 58.0946 37.46 65.581 38.37C69.3604 38.83 72.7473 39.96 76.0207 41.12C85.4071 44.43 92.749 47.55 99.9669 50.51C100.308 50.65 100.638 50.79 100.948 50.93C103.777 52.25 105.46 53.41 109.963 52.8C112.554 52.45 115.301 50.77 118.089 49.38C121.951 47.46 125.834 45.25 128.901 45.6" stroke="#00CCCC" stroke-width="0.2164" stroke-miterlimit="10"/>
<path d="M-39.2701 40.36C-26.156 37.82 -13.7647 36.5 -4.10981 32.22C8.6016 26.61 14.2396 19.27 21.9636 18.03C27.9114 17.08 32.1554 18.86 35.3255 21.75C39.2184 25.31 41.8206 31.95 48.2951 34.61C55.038 37.36 59.2614 33.7 66.9853 34.46C70.8576 34.84 74.2858 36.05 77.5489 37.37C86.8114 41.14 93.8538 45.64 101.464 48.42C101.815 48.55 102.166 48.67 102.497 48.8C105.429 49.95 107.495 50.75 112.141 49.68C114.682 49.09 117.449 47.32 120.227 45.65C124.192 43.27 128.209 40.34 131.658 39.14" stroke="#00CCCC" stroke-width="0.2164" stroke-miterlimit="10"/>
<path d="M-40.4989 38.64C-27.0337 34.95 -14.6217 32.67 -4.83259 28.35C8.26088 22.61 14.8799 16.15 22.5832 15.04C28.7995 14.15 33.1055 15.88 36.1826 18.73C40.1065 22.35 42.5745 29.27 49.2864 31.8C56.2875 34.42 60.4386 29.94 68.4207 30.57C72.3962 30.88 75.8555 32.14 79.0978 33.65C88.2364 37.88 94.9897 43.76 102.972 46.36C103.333 46.48 103.695 46.59 104.046 46.7C107.082 47.68 109.549 48.14 114.32 46.59C116.819 45.78 119.586 43.9 122.364 41.95C126.422 39.1 130.584 35.45 134.415 32.7" stroke="#00CCCC" stroke-width="0.2164" stroke-miterlimit="10"/>
<path d="M-41.7277 36.93C-27.901 32.1 -15.4891 28.84 -5.54505 24.49C7.93049 18.61 15.5408 13.03 23.2028 12.05C29.6876 11.22 34.0555 12.91 37.0501 15.71C41.005 19.4 43.3283 26.6 50.2778 28.99C57.537 31.48 61.6158 26.19 69.8457 26.68C73.9142 26.92 77.4147 28.24 80.6468 29.92C89.6718 34.61 96.1153 41.88 104.479 44.3C104.851 44.41 105.233 44.51 105.605 44.6C108.744 45.41 111.625 45.54 116.509 43.5C118.977 42.47 121.734 40.48 124.522 38.25C128.663 34.93 132.979 30.56 137.192 26.26" stroke="#00CCCC" stroke-width="0.2164" stroke-miterlimit="10"/>
<path d="M-42.9668 35.21C-28.7891 29.23 -16.3668 25.01 -6.27821 20.62C7.58973 14.6 16.181 9.91 23.812 9.06C30.5756 8.3 34.9952 9.94 37.8968 12.69C41.8723 16.45 44.0615 23.92 51.2588 26.18C58.7761 28.53 62.7827 22.45 71.2707 22.78C75.4424 22.96 78.974 24.33 82.1854 26.19C91.0968 31.34 97.2408 40.01 105.987 42.23C106.379 42.33 106.761 42.41 107.154 42.49C110.396 43.14 113.711 42.94 118.678 40.41C121.125 39.16 123.851 37.07 126.65 34.55C130.863 30.77 135.344 25.67 139.939 19.82" stroke="#00CCCC" stroke-width="0.2164" stroke-miterlimit="10"/>
<path d="M-44.1957 33.5C-29.6669 26.38 -17.2343 21.18 -6.99079 16.75C7.25921 10.6 16.8315 6.8 24.4315 6.06C31.4636 5.38 35.9348 6.96 38.7641 9.66C42.7603 13.49 44.8152 21.24 52.25 23.36C60.0255 25.58 63.9598 18.68 72.6956 18.88C76.9706 18.98 80.5331 20.42 83.7342 22.45C92.532 28.06 98.3663 38.13 107.495 40.15C107.897 40.24 108.3 40.31 108.713 40.37C112.059 40.86 115.828 40.34 120.867 37.3C123.304 35.83 125.978 33.63 128.797 30.83C133.072 26.58 137.729 20.76 142.707 13.36" stroke="#00CCCC" stroke-width="0.2164" stroke-miterlimit="10"/>
<path d="M-45.4244 31.78C10.6772 0.630001 32.0212 -0.720001 39.6212 6.64C43.6484 10.54 45.5587 18.56 53.2413 20.55C61.2853 22.64 65.137 14.92 74.1207 14.99C90.9625 15.11 96.363 36.92 110.252 38.28C117.872 39.02 129.262 34 145.443 6.94" stroke="#00CCCC" stroke-width="0.2164" stroke-miterlimit="10"/>
</g>
<path d="M22.2734 85.06V32.09H71.4359V85.06" fill="white"/>
<path d="M22.2734 85.06V32.09H71.4359V85.06" stroke="#333333" stroke-width="0.8244" stroke-miterlimit="10" stroke-linecap="round"/>
<path d="M53.9435 65.89H39.9826C38.6609 65.89 37.5973 66.92 37.5973 68.2C37.5973 73.89 37.5973 79.58 37.5973 85.26C41.5728 85.74 45.5381 86.22 49.5136 86.7C50.2261 86.15 50.9283 85.6 51.6408 85.05C53.2 85.05 54.7592 85.05 56.3185 85.05V68.2C56.3288 66.93 55.2549 65.89 53.9435 65.89Z" stroke="#333333" stroke-width="0.8196" stroke-miterlimit="10" stroke-linecap="round"/>
<path d="M52.6424 71.59H43.6071C42.7603 71.59 42.0685 72.26 42.0685 73.08C42.0685 76.76 42.0685 80.44 42.0685 84.12C44.6397 84.43 47.2109 84.74 49.7821 85.05C50.2364 84.69 50.7011 84.34 51.1554 83.98C52.1674 83.98 53.1793 83.98 54.181 83.98V73.09C54.181 72.26 53.4891 71.59 52.6424 71.59Z" fill="#FFCC00"/>
<path d="M75.2462 27.77V30.46C75.2462 31.36 74.4924 32.1 73.5527 32.1H20.1359C19.2065 32.1 18.4424 31.37 18.4424 30.46V23.43C18.4424 22.53 19.1962 21.79 20.1359 21.79H73.5527C74.4821 21.79 75.2462 22.52 75.2462 23.43" fill="white"/>
<path d="M75.2462 27.77V30.46C75.2462 31.36 74.4924 32.1 73.5527 32.1H20.1359C19.2065 32.1 18.4424 31.37 18.4424 30.46V23.43C18.4424 22.53 19.1962 21.79 20.1359 21.79H73.5527C74.4821 21.79 75.2462 22.52 75.2462 23.43" stroke="#333333" stroke-width="0.8196" stroke-miterlimit="10" stroke-linecap="round"/>
<path d="M34.6957 47.14H27.9425C27.2816 47.14 26.7446 46.62 26.7446 45.98V39.44C26.7446 38.8 27.2816 38.28 27.9425 38.28H34.6957C35.3566 38.28 35.8935 38.8 35.8935 39.44V45.98C35.8935 46.62 35.3566 47.14 34.6957 47.14Z" stroke="#333333" stroke-width="0.8196" stroke-miterlimit="10" stroke-linecap="round"/>
<path d="M32.8059 45.7H28.5619C28.1489 45.7 27.8081 45.37 27.8081 44.97V40.86C27.8081 40.46 28.1489 40.13 28.5619 40.13H32.8059C33.219 40.13 33.5597 40.46 33.5597 40.86V44.97C33.5494 45.37 33.219 45.7 32.8059 45.7Z" fill="#FFCC00"/>
<path d="M48.8218 46.31H44.8979C44.5158 46.31 44.2061 46.01 44.2061 45.64V41.84C44.2061 41.47 44.5158 41.17 44.8979 41.17H48.8218C49.2039 41.17 49.5137 41.47 49.5137 41.84V45.64C49.5137 46.01 49.2039 46.31 48.8218 46.31Z" fill="#00CCCC"/>
<path d="M62.1734 46.11H57.9293C57.5163 46.11 57.1755 45.78 57.1755 45.38V41.27C57.1755 40.87 57.5163 40.54 57.9293 40.54H62.1734C62.5864 40.54 62.9272 40.87 62.9272 41.27V45.38C62.9168 45.78 62.5864 46.11 62.1734 46.11Z" fill="#00CCCC"/>
<path d="M32.8059 60.53H28.5619C28.1489 60.53 27.8081 60.2 27.8081 59.8V55.7C27.8081 55.3 28.1489 54.97 28.5619 54.97H32.8059C33.219 54.97 33.5597 55.3 33.5597 55.7V59.81C33.5494 60.21 33.219 60.53 32.8059 60.53Z" fill="#00CCCC"/>
<path d="M48.7598 60.53H44.5158C44.1027 60.53 43.762 60.2 43.762 59.8V55.7C43.762 55.3 44.1027 54.97 44.5158 54.97H48.7598C49.1728 54.97 49.5136 55.3 49.5136 55.7V59.81C49.5136 60.21 49.1728 60.53 48.7598 60.53Z" fill="#FFCC00"/>
<path d="M49.3793 47.14H42.626C41.9652 47.14 41.4282 46.62 41.4282 45.98V39.44C41.4282 38.8 41.9652 38.28 42.626 38.28H49.3793C50.0402 38.28 50.5771 38.8 50.5771 39.44V45.98C50.5771 46.62 50.0402 47.14 49.3793 47.14Z" stroke="#333333" stroke-width="0.8196" stroke-miterlimit="10" stroke-linecap="round"/>
<path d="M64.063 47.14H57.3098C56.6489 47.14 56.1119 46.62 56.1119 45.98V39.44C56.1119 38.8 56.6489 38.28 57.3098 38.28H64.063C64.7239 38.28 65.2609 38.8 65.2609 39.44V45.98C65.2609 46.62 64.7239 47.14 64.063 47.14Z" stroke="#333333" stroke-width="0.8196" stroke-miterlimit="10" stroke-linecap="round"/>
<path d="M34.6957 61.56H27.9425C27.2816 61.56 26.7446 61.04 26.7446 60.4V53.86C26.7446 53.22 27.2816 52.7 27.9425 52.7H34.6957C35.3566 52.7 35.8935 53.22 35.8935 53.86V60.4C35.8935 61.04 35.3566 61.56 34.6957 61.56Z" stroke="#333333" stroke-width="0.8196" stroke-miterlimit="10" stroke-linecap="round"/>
<path d="M49.3793 61.56H42.626C41.9652 61.56 41.4282 61.04 41.4282 60.4V53.86C41.4282 53.22 41.9652 52.7 42.626 52.7H49.3793C50.0402 52.7 50.5771 53.22 50.5771 53.86V60.4C50.5771 61.04 50.0402 61.56 49.3793 61.56Z" stroke="#333333" stroke-width="0.8196" stroke-miterlimit="10" stroke-linecap="round"/>
<path d="M64.063 61.56H57.3098C56.6489 61.56 56.1119 61.04 56.1119 60.4V53.86C56.1119 53.22 56.6489 52.7 57.3098 52.7H64.063C64.7239 52.7 65.2609 53.22 65.2609 53.86V60.4C65.2609 61.04 64.7239 61.56 64.063 61.56Z" stroke="#333333" stroke-width="0.8196" stroke-miterlimit="10" stroke-linecap="round"/>
<path d="M8.50867 85.13H29.925L33.157 88.26C34.7059 87.26 36.2652 86.26 37.8141 85.26C41.7174 85.74 45.6206 86.22 49.5136 86.69L51.5375 85.13H62.9168L64.4038 84.03L71.4255 85.45C76.0103 85.45 80.5951 85.45 85.1695 85.45" fill="white"/>
<path d="M8.50867 85.13H29.925L33.157 88.26C34.7059 87.26 36.2652 86.26 37.8141 85.26C41.7174 85.74 45.6206 86.22 49.5136 86.69L51.5375 85.13H62.9168L64.4038 84.03L71.4255 85.45C76.0103 85.45 80.5951 85.45 85.1695 85.45" stroke="#333333" stroke-width="0.8244" stroke-miterlimit="10" stroke-linecap="round"/>
<path d="M41.5212 83.86L41.0049 78.23L45.4038 75.78L39.1875 74.1L39.2805 70.08L34.8506 73.67L30.1419 72.25L32.4343 77.2L28.4277 79.81L34.7473 80.91L33.0435 84.38L38 81.41L41.5212 83.86Z" fill="white" stroke="#333333" stroke-width="0.8244" stroke-miterlimit="10" stroke-linecap="round"/>
<path d="M75.2668 27.77C73.5527 28.53 71.8386 29.28 70.1245 30.04C65.9424 28.67 61.75 27.29 57.5679 25.92C55.8332 26.81 54.0984 27.71 52.3636 28.6C50.4223 27.64 48.481 26.68 46.5397 25.71C48.481 26.19 50.4223 26.67 52.3636 27.15C54.0261 26.05 55.6989 24.95 57.3614 23.85C61.5228 24.88 65.6842 25.91 69.856 26.94C71.663 25.84 73.4598 24.74 75.2668 23.64" fill="white"/>
<path d="M75.2668 27.77C73.5527 28.53 71.8386 29.28 70.1245 30.04C65.9424 28.67 61.75 27.29 57.5679 25.92C55.8332 26.81 54.0984 27.71 52.3636 28.6C50.4223 27.64 48.481 26.68 46.5397 25.71C48.481 26.19 50.4223 26.67 52.3636 27.15C54.0261 26.05 55.6989 24.95 57.3614 23.85C61.5228 24.88 65.6842 25.91 69.856 26.94C71.663 25.84 73.4598 24.74 75.2668 23.64" stroke="#333333" stroke-width="0.8153" stroke-miterlimit="10" stroke-linecap="round"/>
<path d="M73.594 82.71C74.2549 82.71 74.9261 82.71 75.5869 82.71C76.1962 82.35 76.8157 82 77.425 81.64C78.282 82.06 79.1391 82.47 79.9962 82.89C80.182 82.42 80.3679 81.94 80.5435 81.47C81.4005 81.93 82.2576 82.39 83.1043 82.84C83.8272 82.84 84.5396 82.84 85.2625 82.84" fill="white"/>
<path d="M73.594 82.71C74.2549 82.71 74.9261 82.71 75.5869 82.71C76.1962 82.35 76.8157 82 77.425 81.64C78.282 82.06 79.1391 82.47 79.9962 82.89C80.182 82.42 80.3679 81.94 80.5435 81.47C81.4005 81.93 82.2576 82.39 83.1043 82.84C83.8272 82.84 84.5397 82.84 85.2625 82.84" stroke="#333333" stroke-width="0.6183" stroke-miterlimit="10" stroke-linecap="round"/>
</g>
<defs>
<clipPath id="clip0_6_228">
<rect width="95" height="92" fill="white"/>
</clipPath>
</defs>
</svg>
