<svg width="93" height="92" viewBox="0 0 93 92" fill="none" xmlns="http://www.w3.org/2000/svg">
<g clip-path="url(#clip0_6_268)">
<g opacity="0.9">
<path d="M-14.041 78.2C-11.9081 78.8 -8.0971 79.58 -3.78069 78.58C10.1188 75.36 11.2813 57.03 21.208 56.37C32.2972 55.63 38.8174 76.16 50.7052 74.07C59.3178 72.56 59.8637 68.66 70.4373 68.33C83.144 67.94 87.238 76.41 97.286 75.92C103.028 75.64 110.852 72.43 119.849 59.4" stroke="#00CCCC" stroke-width="0.2121" stroke-miterlimit="10"/>
<path d="M-16.2144 74.55C-13.9399 74.85 -10.1592 75.37 -5.94392 74.23C8.18804 70.39 10.3311 53.17 20.1871 52.26C26.2017 51.7 30.8214 56.34 35.3501 60.98C39.8889 65.62 44.4075 70.44 50.4525 69.72C51.8071 69.56 52.9898 69.31 54.0613 69.03C59.8738 67.5 61.7136 64.4 70.5991 64.23C83.417 63.99 87.4301 73.24 97.5388 72.89C103.281 72.68 111.165 69.4 120.405 55.67" stroke="#00CCCC" stroke-width="0.2121" stroke-miterlimit="10"/>
<path d="M-18.3978 70.9C-15.992 70.91 -12.2315 71.15 -8.11728 69.87C6.25728 65.41 9.38087 49.28 19.1661 48.14C25.6255 47.39 30.4171 51.65 34.9458 56.12C39.5452 60.66 44.0133 65.77 50.2099 65.37C51.5644 65.28 52.7674 65.09 53.8895 64.85C60.0254 63.58 61.9158 60.19 70.771 60.11C83.7 60.03 87.6424 70.05 97.8016 69.83C103.543 69.7 111.479 66.34 120.971 51.91" stroke="#00CCCC" stroke-width="0.2121" stroke-miterlimit="10"/>
<path d="M-20.5713 67.25C-18.0239 66.96 -14.2938 66.92 -10.2806 65.52C4.32643 60.4 8.43056 45.37 18.145 44.02C25.0392 43.06 30.0227 46.96 34.5413 51.26C39.2115 55.71 43.6088 61.29 49.9571 61.02C51.3015 60.96 52.5348 60.86 53.7074 60.68C60.1669 59.67 62.1077 55.99 70.9326 56.01C83.9627 56.08 87.8344 66.87 98.0543 66.79C103.796 66.73 111.792 63.31 121.517 48.16" stroke="#00CCCC" stroke-width="0.2121" stroke-miterlimit="10"/>
<path d="M-22.7446 63.6C-20.0658 63.01 -16.3559 62.69 -12.4439 61.16C2.3957 55.38 7.48038 41.45 17.1241 39.91C24.4529 38.74 29.6285 42.28 34.137 46.41C38.878 50.75 43.1944 56.4 49.7145 56.68C51.0489 56.74 52.3023 56.65 53.5255 56.52C60.3084 55.78 62.2998 51.79 71.0944 51.91C84.2458 52.14 88.0265 63.7 98.307 63.76C104.049 63.78 112.105 60.28 122.073 44.43" stroke="#00CCCC" stroke-width="0.2121" stroke-miterlimit="10"/>
<path d="M-24.9281 59.95C-22.1078 59.06 -18.4383 58.45 -14.6172 56.81C0.454835 50.34 6.52005 37.51 16.093 35.79C23.8565 34.39 29.2242 37.59 33.7226 41.54C38.5343 45.78 42.7799 51.68 49.4517 52.31C50.786 52.44 52.0597 52.41 53.3334 52.33C60.4398 51.86 62.4919 47.57 71.2561 47.79C84.5187 48.17 88.2286 60.51 98.5698 60.7C104.301 60.79 112.419 57.23 122.639 40.66" stroke="#00CCCC" stroke-width="0.2121" stroke-miterlimit="10"/>
<path d="M-27.1014 56.3C-24.1497 55.12 -20.5005 54.2 -16.7805 52.46C-1.48601 45.28 5.56987 33.57 15.0821 31.68C23.2803 30.05 28.8401 32.9 33.3182 36.69C38.2007 40.83 42.3756 46.98 49.2091 47.97C50.5333 48.16 51.8374 48.2 53.1616 48.16C60.5915 47.96 62.6941 43.37 71.428 43.68C84.7917 44.22 88.4308 57.33 98.8327 57.66C104.564 57.83 112.742 54.19 123.205 36.92" stroke="#00CCCC" stroke-width="0.2121" stroke-miterlimit="10"/>
<path d="M-29.2849 52.65C-26.2018 51.17 -22.5828 49.96 -18.9538 48.1C-3.44709 40.18 4.60954 29.61 14.0511 27.56C22.6738 25.69 28.4458 28.2 32.9038 31.83C37.8671 35.86 41.9612 42.26 48.9463 43.62C50.2705 43.88 51.5948 43.98 52.9594 43.99C60.7128 44.06 62.866 39.16 71.5695 39.58C85.0444 40.27 88.6027 54.16 99.0652 54.62C104.797 54.86 113.035 51.15 123.73 33.18" stroke="#00CCCC" stroke-width="0.2121" stroke-miterlimit="10"/>
<path d="M-31.4583 49C-28.2336 47.22 -24.6551 45.7 -21.1171 43.75C-5.41825 35.08 3.64925 25.64 13.0301 23.44C22.0875 21.32 28.0516 23.5 32.4995 26.97C37.5336 30.9 41.567 37.53 48.6936 39.27C50.0077 39.59 51.3623 39.76 52.7775 39.82C60.8544 40.16 63.0581 34.96 71.7414 35.47C85.3275 36.32 88.8049 50.98 99.3281 51.58C105.06 51.9 113.349 48.12 124.297 29.43" stroke="#00CCCC" stroke-width="0.2121" stroke-miterlimit="10"/>
<path d="M-33.6317 45.35C-30.2756 43.27 -26.7275 41.45 -23.2703 39.39C-7.38954 29.96 2.69893 21.67 12.0293 19.32C21.5011 16.94 27.6876 18.8 32.1152 22.11C37.2302 25.93 41.1827 32.79 48.4711 34.92C49.7852 35.3 51.16 35.54 52.6258 35.65C61.0261 36.27 63.2804 30.75 71.9334 31.37C85.6307 32.37 89.0373 47.81 99.611 48.54C105.343 48.93 113.692 45.08 124.883 25.69" stroke="#00CCCC" stroke-width="0.2121" stroke-miterlimit="10"/>
<path d="M-35.8152 41.71C-32.3176 39.33 -28.82 37.2 -25.4437 35.05C-9.40117 24.83 1.72851 17.7 10.9982 15.22C20.8946 12.57 27.2934 14.11 31.7008 17.27C36.9068 20.96 40.7885 28.06 48.2083 30.58C49.5224 31.03 50.9174 31.33 52.4236 31.48C61.1474 32.38 63.4522 26.55 72.0749 27.26C85.8834 28.42 89.2092 44.62 99.8435 45.5C105.575 45.97 113.986 42.05 125.419 21.94" stroke="#00CCCC" stroke-width="0.2121" stroke-miterlimit="10"/>
<path d="M-37.9885 38.06C3.49756 7.51 22.1885 6.19999 31.2965 12.4C37.483 16.61 41.6882 25.94 52.2518 27.3C61.2991 28.47 63.6544 22.34 72.2468 23.15C86.1665 24.46 89.4114 41.44 100.106 42.45C105.838 42.99 114.299 39 125.975 18.19" stroke="#00CCCC" stroke-width="0.2121" stroke-miterlimit="10"/>
</g>
<path d="M8.86534 33.65C9.02708 34.26 23.159 34.37 59.5301 33.65C63.6444 33.65 67.6575 34.95 70.9732 37.36L83.3462 46.34C86.6315 48.73 84.9333 53.88 80.8494 53.88C68.628 53.89 58.6507 53.89 51.8778 53.88C29.3759 53.87 5.71143 53.8 5.71143 53.8C5.71143 53.8 8.43066 33.56 8.83501 33.6C8.85523 33.61 8.85523 33.65 8.86534 33.65Z" fill="white"/>
<path d="M78.029 36.26L79.7273 32.64L84.6906 31.92L82.6284 27.89L86.217 24.48L81.3345 23.07L80.9908 17.43L76.4015 21.95L71.8425 18.76L73.197 25.98L68.082 26.23L73.0555 33.6" fill="white"/>
<path d="M78.029 36.26L79.7273 32.64L84.6906 31.92L82.6284 27.89L86.217 24.48L81.3345 23.07L80.9908 17.43L76.4015 21.95L71.8425 18.76L73.197 25.98L68.082 26.23L73.0555 33.6" stroke="#333333" stroke-width="0.8244" stroke-miterlimit="10" stroke-linecap="round"/>
<path d="M46.4595 53.89H80.8493C84.9332 53.89 86.6415 48.73 83.3461 46.35L70.9731 37.37C67.6574 34.96 63.6443 33.66 59.53 33.66H8.86523" fill="white"/>
<path d="M46.4595 53.89H80.8493C84.9332 53.89 86.6415 48.73 83.3461 46.35L70.9731 37.37C67.6574 34.96 63.6443 33.66 59.53 33.66H8.86523" stroke="#333333" stroke-width="0.8244" stroke-miterlimit="10" stroke-linecap="round"/>
<path d="M8.42053 53.89H23.624" stroke="#333333" stroke-width="0.8244" stroke-miterlimit="10" stroke-linecap="round"/>
<path d="M28.6783 48.95L15.2135 63.02C14.2128 64.06 14.9608 65.78 16.4165 65.78H22.32C23.4825 65.78 24.6247 65.49 25.6356 64.94L55.3552 48.96" fill="white"/>
<path d="M28.6783 48.95L15.2135 63.02C14.2128 64.06 14.9608 65.78 16.4165 65.78H22.32C23.4825 65.78 24.6247 65.49 25.6356 64.94L55.3552 48.96" stroke="#333333" stroke-width="0.8244" stroke-miterlimit="10" stroke-linecap="round"/>
<path d="M40.182 33.17L25.0291 25.68C24.4023 25.37 23.7048 25.21 22.9972 25.21H16.2143C14.5362 25.21 13.7174 27.24 14.9406 28.38L20.096 33.18" fill="white"/>
<path d="M40.182 33.17L25.0291 25.68C24.4023 25.37 23.7048 25.21 22.9972 25.21H16.2143C14.5362 25.21 13.7174 27.24 14.9406 28.38L20.096 33.18" stroke="#333333" stroke-width="0.8244" stroke-miterlimit="10" stroke-linecap="round"/>
<path d="M21.0059 44.78C22.7701 44.78 24.2002 43.3652 24.2002 41.62C24.2002 39.8748 22.7701 38.46 21.0059 38.46C19.2417 38.46 17.8115 39.8748 17.8115 41.62C17.8115 43.3652 19.2417 44.78 21.0059 44.78Z" fill="white" stroke="#333333" stroke-width="0.8244" stroke-miterlimit="10" stroke-linecap="round"/>
<path d="M31.8727 44.78C33.6369 44.78 35.067 43.3652 35.067 41.62C35.067 39.8748 33.6369 38.46 31.8727 38.46C30.1085 38.46 28.6783 39.8748 28.6783 41.62C28.6783 43.3652 30.1085 44.78 31.8727 44.78Z" fill="white" stroke="#333333" stroke-width="0.8244" stroke-miterlimit="10" stroke-linecap="round"/>
<path d="M42.7395 44.78C44.5037 44.78 45.9339 43.3652 45.9339 41.62C45.9339 39.8748 44.5037 38.46 42.7395 38.46C40.9753 38.46 39.5452 39.8748 39.5452 41.62C39.5452 43.3652 40.9753 44.78 42.7395 44.78Z" fill="white" stroke="#333333" stroke-width="0.8244" stroke-miterlimit="10" stroke-linecap="round"/>
<path d="M81.2031 44.77L72.4793 38.45H60.5713C60.5713 38.45 60.5713 38.46 60.5713 38.47C58.9539 38.63 57.6903 39.98 57.6903 41.62C57.6903 43.37 59.1257 44.78 60.8847 44.78C61.1677 44.78 61.572 44.87 61.8248 44.8C66.1311 44.85 81.2031 44.77 81.2031 44.77Z" fill="white" stroke="#333333" stroke-width="0.8244" stroke-miterlimit="10" stroke-linecap="round"/>
<path d="M77.4527 43.71L72.0446 40H64.6652C64.6652 40 64.6652 40 64.6652 40.01C63.6645 40.1 62.876 40.89 62.876 41.86C62.876 42.89 63.7655 43.72 64.8573 43.72C65.0291 43.72 65.2818 43.77 65.4436 43.73C68.1123 43.75 77.4527 43.71 77.4527 43.71Z" fill="#00CCCC"/>
<path d="M20.6621 44C21.7229 44 22.5828 43.1493 22.5828 42.1C22.5828 41.0507 21.7229 40.2 20.6621 40.2C19.6014 40.2 18.7415 41.0507 18.7415 42.1C18.7415 43.1493 19.6014 44 20.6621 44Z" fill="#00CCCC"/>
<path d="M31.4885 44C32.5493 44 33.4092 43.1493 33.4092 42.1C33.4092 41.0507 32.5493 40.2 31.4885 40.2C30.4278 40.2 29.5679 41.0507 29.5679 42.1C29.5679 43.1493 30.4278 44 31.4885 44Z" fill="#00CCCC"/>
<path d="M42.1229 44C43.1837 44 44.0436 43.1493 44.0436 42.1C44.0436 41.0507 43.1837 40.2 42.1229 40.2C41.0622 40.2 40.2023 41.0507 40.2023 42.1C40.2023 43.1493 41.0622 44 42.1229 44Z" fill="#00CCCC"/>
<path d="M76.6257 63.89C76.555 63.26 76.464 62.44 76.4741 61.48C76.4842 60.94 76.5145 60.84 76.4134 60.69C76.1001 60.23 75.3116 60.48 75.0387 60.06C74.9376 59.9 74.887 59.62 75.1195 59.1C75.1195 59.07 75.1195 59.03 75.1195 59C73.583 59 72.0364 59 70.4999 59C70.4999 59.33 70.8941 59.35 71.1165 59.31C70.1258 59.59 70.4695 60.79 69.8327 61.21C69.7417 61.89 69.7821 62.43 69.8327 62.79C69.8832 63.13 69.9135 63.35 70.045 63.61C70.2977 64.12 70.702 64.37 71.0862 64.64C72.3295 65.51 72.1274 65.8 72.7541 66.08C74.1895 66.73 76.4842 65.79 76.7167 64.66C76.7369 64.54 76.6965 64.59 76.6257 63.89Z" fill="white" stroke="#333333" stroke-width="0.6183" stroke-miterlimit="10" stroke-linecap="round"/>
<path d="M89.5548 79.38C88.463 79.2 89.4436 77.96 88.5237 77.68C87.4825 77.35 86.6637 76.27 86.4211 75.3C86.5727 74.91 86.8659 74.59 87.1388 74.27C88.2305 72.38 85.6932 73.47 86.047 71.24C85.4911 68.49 87.2298 67.95 86.7445 65.52C86.3503 64.95 84.9452 65.04 84.3488 64.13C83.4895 63.4 82.2057 63.69 81.3364 62.88C80.6086 62.25 79.8909 63.04 79.0923 62.92C78.698 62.82 78.3543 63.03 78.1319 63.29C77.8085 64.06 76.3427 63.55 76.5651 64.35C76.464 65.05 74.7051 64.59 74.0682 64.96C72.6631 65.36 71.9858 63.91 70.7223 63.8C69.5598 63.97 70.2067 62.25 69.206 62.17C68.185 62.05 69.5901 60.47 67.9525 60.54C66.2037 61.37 65.4354 62.56 63.8787 60.43C62.6656 59.99 62.888 63.33 63.4743 63.73C64.0303 64.54 64.1819 65.88 65.122 66.41C65.2939 66.49 65.6578 66.28 65.6174 66.66C65.8094 67.77 63.7776 68.73 64.9805 69.74C65.5365 71.12 67.7503 71.22 67.6896 72.82C67.6391 73.6 68.0536 74.14 68.468 74.69C69.1049 75.4 69.2464 75.02 69.6811 74.6C69.9843 74.98 70.1764 75.47 70.7829 75.22C71.7028 75.73 72.3902 77.16 72.9361 78.14C73.2697 78.95 74.4322 78.61 74.8567 79.42C77.6063 81.98 80.0425 78.3 80.9017 80.5C80.9421 80.85 81.0533 81.11 81.2151 81.29C81.8014 81.97 82.8628 81.98 83.4794 81.99C84.6318 82 86.2088 82.08 88.3619 82.37C89.2414 82.39 89.5244 82.08 89.6154 81.96C89.6862 81.87 89.8176 81.64 89.5952 79.78C89.5851 79.62 89.5649 79.48 89.5548 79.38Z" stroke="#333333" stroke-width="0.6183" stroke-miterlimit="10" stroke-linecap="round"/>
<path d="M90.9599 83.57C90.9296 83.1 90.9498 82.63 90.9498 82.16C90.9195 82.16 90.879 82.17 90.8487 82.17C90.0198 82.15 89.2212 82.35 88.4024 82.34C87.5836 82.66 86.4817 82.25 85.7438 82.12C84.8441 82.24 81.9227 81.83 81.3566 81.28C81.0028 80.23 80.5176 78.97 79.2844 79.73C78.7587 80.08 78.2735 80.23 77.9096 80.29C75.6149 80.72 73.7448 78.74 73.5527 78.53C72.6632 78.06 71.9454 75.38 70.8739 75.01C70.0046 75.48 70.2169 74.52 69.5598 74.31C69.3576 74.31 69.4183 74.49 69.4284 74.6C69.4284 75.45 68.1345 74.57 68.4377 75.47C68.367 75.9 67.6391 76.07 68.3265 76.48C68.832 77.77 69.6305 78.95 70.6616 79.91C71.3389 80.27 71.066 81 71.2783 81.55C71.5916 81.82 72.0465 83.58 72.2891 82.44C72.1577 82.02 72.8855 80.66 73.1079 81.53C73.3202 82.47 72.3599 83.67 73.5325 83.81C73.5325 83.84 73.5426 83.87 73.5426 83.9C74.6546 83.9 75.7766 83.9 76.8886 83.9C77.8792 83.78 78.233 83.46 78.3746 83.19C78.506 82.92 78.4251 82.72 78.5869 82.37C78.7789 81.94 79.1428 81.69 79.4158 81.55C79.5674 81.83 79.719 82.11 79.8808 82.39C80.1638 82.89 80.4368 83.36 80.7198 83.82C80.7198 83.85 80.7299 83.88 80.7299 83.91C84.0253 83.91 87.3208 83.91 90.6162 83.92C90.8992 83.92 90.9801 83.86 90.9599 83.57Z" fill="white" stroke="#333333" stroke-width="0.6183" stroke-miterlimit="10" stroke-linecap="round"/>
<path d="M89.5548 79.38C88.463 79.2 89.4436 77.96 88.5237 77.68C87.4825 77.35 86.6637 76.27 86.4211 75.3C86.5727 74.91 86.8659 74.59 87.1388 74.27C88.2305 72.38 85.6932 73.47 86.047 71.24C85.4911 68.49 87.2298 67.95 86.7445 65.52C86.3503 64.95 84.9452 65.04 84.3488 64.13C83.4895 63.4 82.2057 63.69 81.3364 62.88C80.6086 62.25 79.8909 63.04 79.0923 62.92C78.698 62.82 78.3543 63.03 78.1319 63.29C77.8085 64.06 76.3427 63.55 76.5651 64.35C76.464 65.05 74.7051 64.59 74.0682 64.96C72.6631 65.36 71.9858 63.91 70.7223 63.8C69.5598 63.97 70.2067 62.25 69.206 62.17C68.185 62.05 69.5901 60.47 67.9525 60.54C66.2037 61.37 65.4354 62.56 63.8787 60.43C62.6656 59.99 62.888 63.33 63.4743 63.73C64.0303 64.54 64.1819 65.88 65.122 66.41C65.2939 66.49 65.6578 66.28 65.6174 66.66C65.8094 67.77 63.7776 68.73 64.9805 69.74C65.5365 71.12 67.7503 71.22 67.6896 72.82C67.6391 73.6 68.0536 74.14 68.468 74.69C69.1049 75.4 69.2464 75.02 69.6811 74.6C69.9843 74.98 70.1764 75.47 70.7829 75.22C71.7028 75.73 72.3902 77.16 72.9361 78.14C73.2697 78.95 74.4322 78.61 74.8567 79.42C77.6063 81.98 80.0425 78.3 80.9017 80.5C80.9421 80.85 81.0533 81.11 81.2151 81.29C81.8014 81.97 82.8628 81.98 83.4794 81.99C84.6318 82 86.2088 82.08 88.3619 82.37C89.2414 82.39 89.5244 82.08 89.6154 81.96C89.6862 81.87 89.8176 81.64 89.5952 79.78C89.5851 79.62 89.5649 79.48 89.5548 79.38Z" fill="#FFCC00" stroke="#333333" stroke-width="0.6183" stroke-miterlimit="10" stroke-linecap="round"/>
<path d="M87.5431 83.33C87.5633 83.18 87.6442 83.14 87.6341 83.09C87.6139 82.93 86.9164 82.89 86.8052 82.88C85.8954 82.82 86.0167 82.68 85.1373 82.61C84.0657 82.53 83.9343 82.74 83.0549 82.67C82.6202 82.64 82.0541 82.53 81.3869 82.26C80.831 81.78 80.275 81.3 79.719 80.82C80.1335 81.55 80.5479 82.29 80.9725 83.02C81.0635 83.18 81.1544 83.33 81.2454 83.48C81.2454 83.5 81.2454 83.52 81.2555 83.53C83.2773 83.53 85.299 83.53 87.5128 83.49C87.5735 83.51 87.533 83.42 87.5431 83.33Z" fill="#00CCCC"/>
<path d="M73.947 80.66C72.7845 79.67 71.9454 78.42 70.8638 77.36C70.6212 77.37 70.3382 77.3 70.4696 77.68C70.4392 77.88 70.1966 78 70.1865 78.15C70.3584 78.33 70.5302 78.52 70.7122 78.68C71.0255 78.96 71.2783 79.23 71.4804 79.56C71.5512 79.68 71.6624 79.86 71.7433 80.12C71.8848 80.59 71.8444 81 71.7938 81.25C71.8241 80.76 72.0971 80.38 72.4205 80.32C72.7036 80.27 73.0069 80.46 73.0776 80.5C73.1686 80.56 73.2495 80.63 73.3202 80.71C73.6235 80.96 73.7751 81.35 73.765 81.74C73.7751 81.81 73.7852 81.88 73.7852 81.96V81.99C73.7852 82.16 73.7549 82.33 73.6841 82.48C73.5932 82.96 73.4213 83.4 73.9975 83.47C74.0885 83.32 74.1997 83.2 74.3008 83.12C75.1196 82.42 76.4236 82.86 76.5954 82.91C77.1009 83.14 77.2828 83.11 77.3536 83.03C77.4446 82.93 77.3738 82.75 77.4951 82.46C77.5355 82.37 77.5861 82.3 77.6366 82.24V81.52C76.3528 81.72 74.9477 81.51 73.947 80.66Z" fill="#00CCCC"/>
<path d="M70.5403 62.74C70.6414 63.07 70.6616 63.48 71.1367 63.41C71.9758 63.48 72.4306 64.45 73.3606 64.18C73.7852 63.93 74.9578 64.24 75.0185 63.77C74.9881 63.66 75.0084 63.59 75.0589 63.54C75.0589 63.52 75.0589 63.5 75.0488 63.48C74.9983 63.06 74.9376 62.52 74.9477 61.88C74.9578 61.52 74.978 61.46 74.9073 61.36C74.695 61.05 74.1794 61.22 73.9874 60.94C73.9166 60.83 73.8863 60.65 74.0379 60.31C74.0379 60.29 74.0379 60.26 74.0379 60.24C73.017 60.24 71.9859 60.24 70.9649 60.24C70.9649 60.46 71.2277 60.47 71.3692 60.44C70.7122 60.63 70.9346 61.42 70.5201 61.7C70.4797 62.14 70.51 62.5 70.5403 62.74Z" fill="#00CCCC"/>
</g>
<defs>
<clipPath id="clip0_6_268">
<rect width="93" height="92" fill="white"/>
</clipPath>
</defs>
</svg>
